<svg width="100" height="95" version="1.1" viewBox="0 0 100 95" xmlns="http://www.w3.org/2000/svg">
 <g>
  <path d="m46.867 90.083c-3.056-4.8608-3.4752-5.4903-4.3081-6.4684-0.54474-0.63971-2.3551-2.4495-3.1341-3.1332-3.1533-2.7673-6.349-5.0721-12.589-9.0793-2.5056-1.609-5.3066-3.6914-7.5361-5.6026-1.6721-1.4334-4.2109-3.8956-5.6024-5.4332-9.0041-9.9501-13.693-21.677-13.697-34.256-2e-3 -7.1905 1.5018-14.189 4.4572-20.734 0.94634-2.096 2.7715-5.4584 2.9171-5.3739 0.72761 0.42227 11.872 7.2539 11.873 7.2787 0.0012 0.019318-0.21249 0.4099-0.47486 0.86788-3.9712 6.9318-5.5265 15.068-4.3953 22.994 1.4123 9.8948 7.2418 19.015 16.697 26.123 1.359 1.0216 2.2659 1.6468 4.0485 2.7913 3.7464 2.4051 5.9012 3.8795 8.5266 5.8341 2.3497 1.7494 3.8464 2.9808 6.0862 5.0073l0.26376 0.24465 0.19086-0.17259c4.6296-4.1866 7.9656-6.5967 15.023-11.128 7.8207-5.0221 13.57-11.109 17.036-18.037 2.9991-5.9948 4.2145-12.507 3.5731-19.145-0.50032-5.1776-2.0555-10.078-4.6187-14.554-0.24915-0.43505-0.45204-0.80664-0.45086-0.82575 1e-3 -0.019118 0.44556-0.30314 0.98751-0.63116 1.1498-0.69587 10.686-6.5181 10.84-6.6181 0.0992-0.064559 0.12303-0.035432 0.50815 0.62069 4.5595 7.7681 6.9145 16.451 6.9122 25.486-3e-3 12.007-4.3467 23.379-12.596 32.978-1.73 2.013-4.1051 4.4095-6.1289 6.1841-2.7323 2.3958-5.3209 4.3161-9.0245 6.6945-8.1487 5.233-13.017 9.1716-15.631 12.647-0.21744 0.28901-1.7864 2.7381-3.4866 5.4425-1.7002 2.7043-3.11 4.917-3.1329 4.917-0.0229 0-1.4327-2.2126-3.1329-4.917z" fill="#0076ff" stroke-width=".050023"/>
  <path d="m48.85 57.657c-3.5785-1.6301-7.415-3.8188-10.594-6.044-4.4192-3.093-7.6833-6.2313-9.8418-9.4627-2.1298-3.1884-3.13-6.4661-2.9905-9.8 0.15945-3.8115 0.96473-6.992 2.6015-10.275 0.8323-1.6694 1.6714-2.9887 2.7946-4.394 3.9987-5.0029 9.7947-8.26 16.106-9.0506 1.7736-0.22219 4.1891-0.23564 5.8933-0.032801 7.5378 0.89717 14.11 5.0961 18.12 11.577 0.57195 0.92441 1.5108 2.7963 1.906 3.8 1.0624 2.6986 1.6107 5.3625 1.734 8.425 0.25025 6.214-3.514 12.263-11.228 18.044-2.8233 2.1158-5.6914 3.9114-9.1748 5.7439-1.4044 0.73882-4.012 1.9566-4.1749 1.9522-0.037-1e-3 -0.55884-0.21436-1.1501-0.48369zm2.075-8.9862c3.1275-1.6661 6.1418-3.6201 8.5443-5.5389 3.9668-3.168 6.3549-6.3042 6.8584-9.0066 0.11639-0.62481 0.07706-2.4027-0.07522-3.4-0.72617-4.756-3.2754-8.7687-7.2546-11.419-2.0455-1.3626-4.3894-2.2321-6.9728-2.5869-0.90856-0.12475-3.1369-0.12613-4.025-0.0025-2.0467 0.28491-3.5666 0.75116-5.35 1.6412-4.5735 2.2825-7.8427 6.6369-8.7971 11.718-0.25351 1.3496-0.33396 3.2319-0.17446 4.082 0.81014 4.3174 6.5248 9.7254 15.246 14.427 0.57699 0.3111 1.0607 0.56561 1.075 0.56558 0.01426-3e-5 0.43092-0.21581 0.92592-0.47951z" fill="#52aeff" stroke-width=".05"/>
  <path d="m49.05 41.717c-1.6509-0.18684-3.3386-0.867-4.7094-1.8979-0.52135-0.39209-1.4767-1.3487-1.8589-1.8612-0.89618-1.202-1.544-2.6845-1.8072-4.1354-0.11383-0.6276-0.1561-2.194-0.07661-2.8386 0.34981-2.8366 1.8819-5.333 4.2271-6.8877 1.1866-0.78664 2.3669-1.254 3.8-1.5048 0.69711-0.12199 2.0152-0.12213 2.75-3e-4 4.1812 0.69323 7.3814 3.9696 7.9974 8.1878 0.09852 0.67462 0.09955 2.0013 0.0021 2.6871-0.39262 2.7623-1.91 5.1661-4.2475 6.7289-1.7567 1.1745-4.0573 1.7508-6.077 1.5222z" fill="#52aeff" stroke-width=".05"/>
 </g>
</svg>
