<svg width="24" height="24" version="1.1" viewBox="0 0 24 24" xmlns="http://www.w3.org/2000/svg">
 <path d="m1.7695 0.60077c-0.034944-0.02028-0.4721 0.78602-0.69922 1.2891-0.7093 1.5708-1.0708 3.2508-1.0703 4.9766 9.6e-4 3.019 1.1261 5.8327 3.2871 8.2207 0.33396 0.36902 0.9444 0.96067 1.3457 1.3047 0.53508 0.45869 1.2073 0.95759 1.8086 1.3438 1.4976 0.96173 2.2647 1.5155 3.0215 2.1797 0.18696 0.16409 0.62122 0.59842 0.75195 0.75195 0.1999 0.23474 0.29976 0.38614 1.0332 1.5527 0.40805 0.64906 0.74645 1.1797 0.75195 1.1797s0.34391-0.53066 0.75195-1.1797c0.40805-0.64906 0.7857-1.2373 0.83789-1.3066 0.62736-0.8341 1.7943-1.7792 3.75-3.0352 0.88886-0.57082 1.5103-1.0324 2.166-1.6074 0.48571-0.4259 1.0555-0.9993 1.4707-1.4824 1.9798-2.3038 3.0227-5.0343 3.0234-7.916 5.52e-4 -2.1684-0.56392-4.2528-1.6582-6.1172-0.092426-0.15747-0.099237-0.16393-0.12305-0.14844-0.03696 0.024-2.3256 1.4209-2.6016 1.5879-0.13007 0.078724-0.23609 0.14775-0.23633 0.15234-2.83e-4 0.00459 0.04762 0.092854 0.10742 0.19727 0.61517 1.0742 0.9893 2.2515 1.1094 3.4941 0.15394 1.5931-0.13764 3.155-0.85742 4.5938-0.83184 1.6627-2.2109 3.1248-4.0879 4.3301-1.6938 1.0875-2.4944 1.6651-3.6055 2.6699l-0.046875 0.041016-0.0625-0.058594c-0.53755-0.48636-0.89701-0.78132-1.4609-1.2012-0.63009-0.4691-1.1477-0.82317-2.0469-1.4004-0.42782-0.27468-0.64454-0.42474-0.9707-0.66992-2.2692-1.7059-3.6689-3.8948-4.0078-6.2695-0.27149-1.9022 0.1016-3.8539 1.0547-5.5176 0.062968-0.10992 0.11357-0.20434 0.11328-0.20898-2.4e-4 -0.005952-2.675-1.6447-2.8496-1.7461zm10.207 2.0273c-0.24926 0.00139-0.50201 0.016306-0.71484 0.042969-1.5147 0.18974-2.9055 0.97118-3.8652 2.1719-0.26957 0.33727-0.47017 0.65403-0.66992 1.0547-0.39282 0.78792-0.58673 1.552-0.625 2.4668-0.03348 0.80014 0.2076 1.5863 0.71875 2.3516 0.51804 0.77554 1.3007 1.5292 2.3613 2.2715 0.76296 0.53405 1.6841 1.058 2.543 1.4492 0.1419 0.06463 0.26649 0.11695 0.27539 0.11719 0.0391 0.0011 0.6649-0.29143 1.002-0.46875 0.83602-0.4398 1.5255-0.87112 2.2031-1.3789 1.8514-1.3874 2.7534-2.8387 2.6934-4.3301-0.029592-0.735-0.16104-1.3758-0.41602-2.0234-0.094848-0.24089-0.31976-0.69025-0.45703-0.91211-0.9624-1.5554-2.5386-2.562-4.3477-2.7773-0.2045-0.024342-0.45191-0.036544-0.70117-0.035156zm0.02539 1.9609c0.1876 1.163e-4 0.37535 0.00847 0.48438 0.023438 0.62002 0.085152 1.1829 0.29407 1.6738 0.62109 0.95501 0.63607 1.566 1.5988 1.7402 2.7402 0.03654 0.23935 0.04551 0.66645 0.01758 0.81641-0.12084 0.64858-0.6925 1.3998-1.6445 2.1602-0.5766 0.46051-1.3002 0.93022-2.0508 1.3301-0.1188 0.06329-0.21926 0.11523-0.22266 0.11523s-0.11934-0.06206-0.25781-0.13672c-2.0931-1.1284-3.4638-2.4248-3.6582-3.4609-0.03828-0.20402-0.019826-0.65657 0.041016-0.98047 0.22906-1.2195 1.0137-2.2647 2.1113-2.8125 0.42802-0.21361 0.792-0.32615 1.2832-0.39453 0.10657-0.014835 0.29482-0.021601 0.48242-0.021484zm-0.0059 1.4102c-0.12204 1.31e-5 -0.24252 0.00685-0.32617 0.021484-0.34394 0.060192-0.62733 0.17253-0.91211 0.36133-0.5628 0.37313-0.92968 0.97351-1.0136 1.6543-0.019078 0.1547-0.00974 0.52906 0.017578 0.67969 0.063168 0.34822 0.21851 0.70566 0.43359 0.99414 0.09173 0.123 0.32214 0.35121 0.44727 0.44531 0.32899 0.24742 0.73269 0.41219 1.1289 0.45703 0.48473 0.05486 1.0374-0.08531 1.459-0.36719 0.561-0.37507 0.9253-0.95033 1.0195-1.6133 0.02339-0.16459 0.02365-0.48458 0-0.64648-0.14784-1.0124-0.91644-1.7985-1.9199-1.9648-0.08818-0.01462-0.21194-0.021497-0.33398-0.021484z"/>
</svg>
