<svg xmlns="http://www.w3.org/2000/svg" xmlns:svg="http://www.w3.org/2000/svg" id="Layer_1" width="361.599" height="81.218" x="0" y="0" enable-background="new 0 0 600 400" version="1.1" viewBox="0 0 361.599 81.218" xml:space="preserve"><metadata id="metadata29"/><g id="g16" transform="translate(-121.525,-159.54934)"><path id="path2" d="m 216.733,209.39 -9.937,-1.792 c 1.122,-4.018 3.041,-6.985 5.756,-8.904 2.715,-1.919 6.75,-2.878 12.108,-2.878 4.887,0 8.525,0.579 10.914,1.737 2.389,1.159 4.063,2.625 5.022,4.398 0.959,1.773 1.439,5.032 1.439,9.773 l -0.108,12.761 c 0,3.62 0.181,6.299 0.543,8.036 0.361,1.737 1.013,3.584 1.955,5.538 H 233.62 c -0.29,-0.724 -0.634,-1.792 -1.032,-3.203 -0.182,-0.651 -0.308,-1.086 -0.38,-1.304 -1.882,1.811 -3.882,3.168 -6,4.072 -2.118,0.905 -4.39,1.357 -6.814,1.357 -4.235,0 -7.584,-1.148 -10.045,-3.447 -2.462,-2.299 -3.692,-5.222 -3.692,-8.77 0,-2.316 0.561,-4.389 1.683,-6.217 1.122,-1.828 2.688,-3.231 4.697,-4.209 2.009,-0.977 4.896,-1.827 8.661,-2.552 5.104,-0.94 8.651,-1.827 10.643,-2.66 v -1.086 c 0,-2.1 -0.516,-3.602 -1.547,-4.507 -1.031,-0.905 -2.996,-1.357 -5.892,-1.357 -1.955,0 -3.475,0.389 -4.561,1.167 -1.088,0.782 -1.956,2.129 -2.608,4.047 z m 14.606,8.851 c -1.412,0.472 -3.629,1.032 -6.651,1.684 -3.023,0.651 -5.005,1.285 -5.946,1.9 -1.448,1.014 -2.172,2.3 -2.172,3.855 0,1.521 0.57,2.833 1.71,3.937 1.14,1.104 2.597,1.656 4.371,1.656 1.99,0 3.873,-0.633 5.647,-1.9 1.303,-1.013 2.172,-2.227 2.606,-3.638 0.289,-0.941 0.434,-2.716 0.434,-5.321 v -2.173 z" style="fill:#0076ff"/><path id="path4" d="m 252.842,238.06 v -57.014 h 10.914 v 57.014 z" style="fill:#0076ff"/><path id="path6" d="m 298.887,224.921 10.859,1.846 c -1.412,3.982 -3.619,7.014 -6.623,9.095 -3.006,2.082 -6.788,3.122 -11.349,3.122 -7.167,0 -12.471,-2.334 -15.91,-7.004 -2.715,-3.765 -4.072,-8.507 -4.072,-14.227 0,-6.842 1.782,-12.208 5.348,-16.1 3.565,-3.891 8.082,-5.837 13.548,-5.837 6.153,0 10.986,2.036 14.498,6.108 3.512,4.072 5.268,10.29 5.268,18.651 h -27.476 c 0.072,3.223 0.95,5.738 2.633,7.548 1.683,1.811 3.774,2.715 6.271,2.715 1.738,0 3.185,-0.47 4.344,-1.411 1.159,-0.941 2.045,-2.444 2.661,-4.506 z m 0.598,-11.024 c -0.073,-3.185 -0.888,-5.601 -2.443,-7.249 -1.557,-1.646 -3.458,-2.47 -5.702,-2.47 -2.354,0 -4.308,0.868 -5.864,2.605 -1.557,1.738 -2.335,4.109 -2.335,7.113 h 16.344 z" style="fill:#0076ff"/><path id="path8" d="m 338.2,196.794 v 8.688 h -7.493 v 16.615 c 0,3.403 0.072,5.376 0.218,5.919 0.144,0.543 0.47,0.996 0.978,1.357 0.506,0.362 1.121,0.543 1.846,0.543 1.013,0 2.479,-0.344 4.398,-1.032 l 0.923,8.471 c -2.534,1.086 -5.412,1.629 -8.634,1.629 -1.954,0 -3.719,-0.325 -5.294,-0.977 -1.574,-0.652 -2.733,-1.502 -3.475,-2.553 -0.743,-1.049 -1.259,-2.479 -1.548,-4.289 -0.218,-1.267 -0.326,-3.837 -0.326,-7.711 v -17.973 h -5.05 v -8.688 h 5.05 v -8.199 l 10.914,-6.407 v 14.606 h 7.493 z" style="fill:#0076ff"/><path id="path10" d="m 372.951,238.06 v -6.189 c -1.521,2.208 -3.502,3.945 -5.946,5.212 -2.443,1.268 -5.022,1.9 -7.737,1.9 -2.788,0 -5.285,-0.606 -7.493,-1.818 -2.208,-1.213 -3.801,-2.923 -4.778,-5.132 -0.978,-2.207 -1.466,-5.248 -1.466,-9.122 v -26.117 h 10.914 v 18.95 c 0,5.792 0.198,9.349 0.597,10.67 0.399,1.321 1.132,2.361 2.199,3.122 1.067,0.76 2.417,1.14 4.046,1.14 1.882,0 3.557,-0.516 5.022,-1.547 1.466,-1.032 2.471,-2.299 3.014,-3.801 0.543,-1.502 0.814,-5.222 0.814,-11.159 v -17.375 h 10.968 v 41.267 h -10.154 z" style="fill:#0076ff"/><path id="path12" d="m 432.3,238.06 h -10.153 v -6.081 c -1.702,2.354 -3.702,4.108 -6,5.267 -2.3,1.158 -4.607,1.737 -6.923,1.737 -4.743,0 -8.807,-1.908 -12.19,-5.729 -3.386,-3.818 -5.077,-9.148 -5.077,-15.99 0,-6.986 1.646,-12.308 4.941,-15.964 3.294,-3.656 7.457,-5.484 12.488,-5.484 4.597,0 8.58,1.919 11.946,5.756 V 181.047 H 432.3 Z m -29.159,-21.556 c 0,4.417 0.598,7.603 1.792,9.557 1.773,2.86 4.235,4.29 7.385,4.29 2.533,0 4.678,-1.067 6.435,-3.204 1.755,-2.135 2.633,-5.321 2.633,-9.557 0,-4.741 -0.851,-8.162 -2.552,-10.263 -1.702,-2.099 -3.892,-3.148 -6.57,-3.148 -2.606,0 -4.778,1.031 -6.516,3.095 -1.738,2.064 -2.607,5.14 -2.607,9.23 z" style="fill:#0076ff"/><path id="path14" d="m 440.553,216.83 c 0,-3.619 0.896,-7.131 2.688,-10.534 1.792,-3.402 4.325,-6 7.602,-7.792 3.275,-1.792 6.923,-2.688 10.941,-2.688 6.262,0 11.384,2.036 15.366,6.108 3.982,4.072 5.974,9.204 5.974,15.394 0,6.227 -2.01,11.395 -6.027,15.503 -4.019,4.108 -9.087,6.162 -15.204,6.162 -3.801,0 -7.412,-0.851 -10.832,-2.552 -3.421,-1.701 -6.027,-4.208 -7.819,-7.521 -1.793,-3.311 -2.689,-7.338 -2.689,-12.08 z m 11.186,0.596 c 0,4.092 0.968,7.223 2.904,9.395 1.936,2.172 4.335,3.258 7.195,3.258 2.858,0 5.257,-1.086 7.194,-3.258 1.936,-2.172 2.905,-5.34 2.905,-9.503 0,-4.018 -0.97,-7.121 -2.905,-9.312 -1.938,-2.19 -4.336,-3.285 -7.194,-3.285 -2.86,0 -5.259,1.095 -7.195,3.285 -1.936,2.19 -2.904,5.331 -2.904,9.42 z" style="fill:#0076ff"/></g><path id="path18" stroke-miterlimit="10" d="m 74.42,3.1356634 c 2.021,3.297 3.537,6.9369996 4.441,10.8109996 0.628,2.694 0.961,5.501 0.961,8.386 0,14.771 -8.879,26.455 -20.62,33.87 -6.9,4.357 -13.626,9.119 -16.291,13.707 -3.065,-4.561 -9.391,-9.35 -16.291,-13.707 -11.741,-7.415 -20.62,-19.099 -20.62,-33.87 0,-2.885 0.332,-5.693 0.961,-8.386 0.841,-3.605 2.212,-7.0059996 4.026,-10.1179996" style="fill:none;stroke:#0076ff;stroke-width:12;stroke-miterlimit:10"/><path id="path20" stroke-miterlimit="10" d="m 60.701,28.310663 c 0,9.722 -17.604,17.604 -17.604,17.604 0,0 -17.604,-7.882 -17.604,-17.604 0,-9.722 7.882,-17.604 17.604,-17.604 9.722,0 17.604,7.881 17.604,17.604 z" style="fill:none;stroke:#52aeff;stroke-width:7;stroke-miterlimit:10"/><circle id="circle22" cx="43.217" cy="28.134" r="8.255" style="fill:#52aeff"/></svg>