<svg xmlns="http://www.w3.org/2000/svg" xmlns:svg="http://www.w3.org/2000/svg" id="Layer_1" width="85.822" height="81.218" x="0" y="0" enable-background="new 0 0 600 400" version="1.1" viewBox="0 0 85.822 81.218" xml:space="preserve"><metadata id="metadata29"/><path id="path18" stroke-miterlimit="10" d="m 74.42,3.1356634 c 2.021,3.297 3.537,6.9369996 4.441,10.8109996 0.628,2.694 0.961,5.501 0.961,8.386 0,14.771 -8.879,26.455 -20.62,33.87 -6.9,4.357 -13.626,9.119 -16.291,13.707 -3.065,-4.561 -9.391,-9.35 -16.291,-13.707 -11.741,-7.415 -20.62,-19.099 -20.62,-33.87 0,-2.885 0.332,-5.693 0.961,-8.386 0.841,-3.605 2.212,-7.0059996 4.026,-10.1179996" style="fill:none;stroke:#0076ff;stroke-width:12;stroke-miterlimit:10"/><path id="path20" stroke-miterlimit="10" d="m 60.701,28.310663 c 0,9.722 -17.604,17.604 -17.604,17.604 0,0 -17.604,-7.882 -17.604,-17.604 0,-9.722 7.882,-17.604 17.604,-17.604 9.722,0 17.604,7.881 17.604,17.604 z" style="fill:none;stroke:#52aeff;stroke-width:7;stroke-miterlimit:10"/><circle id="circle22" cx="43.217" cy="28.134" r="8.255" style="fill:#52aeff"/></svg>