<svg width="24" height="24" version="1.1"  xmlns="http://www.w3.org/2000/svg">
 <path d="m9.8652 0.0058594-0.81836 0.97852s-1.8948 2.2698-3.7949 5.1719c-1.9001 2.902-3.8984 6.3441-3.8984 9.3379 0 4.6875 3.8242 8.5098 8.5117 8.5098 0.90054 0 1.7683-0.14308 2.584-0.4043-1.9758-1.2622-3.293-3.4705-3.293-5.9766 0-2.5608 1.598-5.1935 3.0391-7.3945 1.0617-1.6215 2.1065-2.9668 2.5977-3.5801-0.10567-0.16415-0.21099-0.3312-0.31641-0.49219-1.9001-2.902-3.7949-5.1719-3.7949-5.1719l-0.81641-0.97852zm6.3828 6-0.61328 0.73242c0 1e-7 -1.4226 1.7025-2.8477 3.8789-1.4251 2.1764-2.9219 4.7586-2.9219 7.0039 0 3.5156 2.8672 6.3828 6.3828 6.3828s6.3828-2.8672 6.3828-6.3828c0-0.78012-0.18275-1.6014-0.47852-2.4316-0.55559-1.5597-1.5153-3.1519-2.4453-4.5723-1.4249-2.1764-2.8477-3.8789-2.8477-3.8789l-0.61133-0.73242zm0 2.5898c0.4224 0.52353 1.0634 1.2732 2.125 2.8945 1.3674 2.0884 2.6602 4.6918 2.6602 6.1309 0 0.14049-0.006228 0.27872-0.017578 0.41602-0.03668 0.080111-0.17258 0.15494-0.35156 0.18359-0.054636 0.00879-0.26046-0.002538-0.32812-0.017578-0.38267-0.08465-0.81986-0.33421-1.4688-0.83984-0.21618-0.16846-0.31167-0.24505-0.80469-0.6543-1.0681-0.88657-1.5319-1.2298-2.1055-1.5586-0.71323-0.40897-1.3868-0.61062-2.0215-0.60352-0.63463 0.006809-1.2308 0.22191-1.791 0.64453-0.02312 0.01744-0.047445 0.047815-0.072265 0.083985 0.50566-1.2201 1.2661-2.5867 2.0508-3.7852 1.0616-1.6214 1.7026-2.3709 2.125-2.8945z" />
</svg>
