<svg width="24" height="24" version="1.1" xmlns="http://www.w3.org/2000/svg">
 <path d="m9.1621 0-0.81641 0.97852s-1.8948 2.2698-3.7949 5.1719-3.8984 6.3441-3.8984 9.3379c0 4.6875 3.8222 8.5117 8.5098 8.5117 1.4888 0 2.8898-0.38808 4.1094-1.0645-1.2181-1.1642-1.9805-2.8016-1.9805-4.6094 0-2.3114 1.432-4.656 2.7148-6.6152 0.61159-0.93407 1.2161-1.7645 1.6895-2.3867-0.59502-1.0953-1.261-2.1675-1.9199-3.1738-1.9001-2.902-3.7949-5.1719-3.7949-5.1719l-0.81836-0.97852zm8.5117 8-0.54492 0.65234s-1.2645 1.5126-2.5312 3.4473c-1.2668 1.9347-2.5977 4.2307-2.5977 6.2266 0 3.125 2.5488 5.6738 5.6738 5.6738s5.6738-2.5488 5.6738-5.6738c0-1.9958-1.3329-4.292-2.5996-6.2266-1.2667-1.9347-2.5312-3.4473-2.5312-3.4473l-0.54297-0.65234z" />
</svg>
