<svg width="24" height="24" version="1.1" xmlns="http://www.w3.org/2000/svg">
 <path d="m11.999-1.5e-7 0.81836 0.97657s1.8947 2.2696 3.7949 5.1719c1.9003 2.9023 3.8984 6.3458 3.8984 9.3398 0 4.688-3.8237 8.5117-8.5117 8.5117-4.688 0-8.5098-3.8237-8.5098-8.5117 0-2.9941 1.9982-6.4376 3.8984-9.3398 1.9003-2.9022 3.7949-5.1719 3.7949-5.1719zm0 3.4531c-0.56324 0.69818-1.4183 1.6992-2.834 3.8613-1.3544 2.0686-2.653 4.5135-3.2324 6.4219 0.0075-0.0071 0.01611-0.01603 0.02343-0.02156 0.74695-0.56355 1.5424-0.85029 2.3887-0.85937 0.8463-0.0085 1.7442 0.25936 2.6953 0.8047 0.76479 0.43849 1.3824 0.89587 2.8066 2.0781 0.65743 0.54572 0.78397 0.64644 1.0723 0.87109 0.86526 0.67424 1.4486 1.0082 1.959 1.1211 0.09025 0.01986 0.36659 0.03504 0.43945 0.02341 0.12683-0.02029 0.42463-0.06256 0.69531-0.11334 0.23873-0.67163 0.37109-1.3965 0.37109-2.1523 0-1.919-1.7255-5.389-3.5488-8.1738-1.4156-2.1621-2.2727-3.1631-2.8359-3.8613z"/>
</svg>
