<svg width="24" height="24" version="1.1" xmlns="http://www.w3.org/2000/svg">
 <path d="m11.816 7.4508e-4a1.2003 1.2003 0 0 0-0.85946 0.32035c-2.4668 2.3005-4.0302 4.7553-4.5278 7.364a1.2003 1.2003 0 0 0 0.95517 1.4025 1.2003 1.2003 0 0 0 1.4044-0.9532c0.37597-1.9712 1.5899-3.9914 3.805-6.0572a1.2003 1.2003 0 0 0 0.0586-1.6955 1.2003 1.2003 0 0 0-0.83601-0.3809zm4.6488 4.434c-1.2428 0.0112-2.4148 0.20191-3.512 0.58404a1.2003 1.2003 0 0 0-0.74029 1.5275 1.2003 1.2003 0 0 0 1.5294 0.73835c1.8951-0.66002 4.2506-0.61788 7.1471 0.2676a1.2003 1.2003 0 0 0 1.5001-0.79695 1.2003 1.2003 0 0 0-0.79695-1.4982c-1.6128-0.49307-3.147-0.77074-4.5903-0.81648-0.1804-6e-3 -0.35962-7e-3 -0.53716-6e-3zm-13.888 1.1603a1.2003 1.2003 0 0 0-0.31253 0.0293 1.2003 1.2003 0 0 0-0.90047 1.4396c0.75883 3.2866 2.1032 5.867 4.1137 7.6023a1.2003 1.2003 0 0 0 1.6916-0.12501 1.2003 1.2003 0 0 0-0.12305-1.6916c-1.5191-1.3112-2.6607-3.3735-3.3421-6.3248a1.2003 1.2003 0 0 0-1.1271-0.92977zm15.074 3.4515a1.2003 1.2003 0 0 0-0.82039 0.41214 1.2003 1.2003 0 0 0 0.12306 1.6916c1.5191 1.3112 2.6607 3.3735 3.3421 6.3248a1.2003 1.2003 0 0 0 1.4396 0.90047 1.2003 1.2003 0 0 0 0.90047-1.4396c-0.75883-3.2866-2.1032-5.867-4.1137-7.6022a1.2003 1.2003 0 0 0-0.87117-0.28713zm-1.3478 5.8482a1.2003 1.2003 0 0 0-1.0919 0.97079c-0.37598 1.9712-1.5899 3.9914-3.805 6.0572a1.2003 1.2003 0 0 0-0.0586 1.6955 1.2003 1.2003 0 0 0 1.6955 0.0605c2.4668-2.3005 4.0302-4.7553 4.5278-7.3639a1.2003 1.2003 0 0 0-0.95517-1.4025 1.2003 1.2003 0 0 0-0.31252-0.0176zm-13.501 1.5001a1.2003 1.2003 0 0 0-1.1915 0.84969 1.2003 1.2003 0 0 0 0.79694 1.4982c3.2257 0.98611 6.1315 1.1117 8.6395 0.2383a1.2003 1.2003 0 0 0 0.7403-1.5275 1.2003 1.2003 0 0 0-1.5294-0.73835c-1.8951 0.66002-4.2506 0.61789-7.1471-0.26759a1.2003 1.2003 0 0 0-0.30863-0.0527z"/>
</svg>
