<svg width="24" height="24" version="1.1" xmlns="http://www.w3.org/2000/svg">
  <path d="m12.305 0.25c-2.7255 1.986-4.5813 4.2397-5.3945 6.7852a1.3044 1.3044 0 0 0 0.8457 1.6406 1.3044 1.3044 0 0 0 1.6387-0.8457c0.59861-1.8736 2.0241-3.705 4.4473-5.4707a1.3044 1.3044 0 0 0 0.28516-1.8223 1.3044 1.3044 0 0 0-1.8223-0.28711zm4.6602 6.6602a1.3044 1.3044 0 0 0-1.6406 0.8457 1.3044 1.3044 0 0 0 0.8457 1.6406c1.8737 0.59861 3.705 2.0221 5.4707 4.4453a1.3044 1.3044 0 0 0 1.8223 0.28516 1.3044 1.3044 0 0 0 0.28711-1.8223c-1.9859-2.7255-4.2396-4.5813-6.7852-5.3945zm-15.459 2.7285a1.3044 1.3044 0 0 0-0.9707 0.23438 1.3044 1.3044 0 0 0-0.28516 1.8223c1.9859 2.7255 4.2396 4.5813 6.7852 5.3945a1.3044 1.3044 0 0 0 1.6387-0.8457 1.3044 1.3044 0 0 0-0.8457-1.6387c-1.8737-0.59861-3.705-2.0241-5.4707-4.4473a1.3044 1.3044 0 0 0-0.85156-0.51953zm14.738 5.6875a1.3044 1.3044 0 0 0-1.6406 0.84375c-0.59856 1.8736-2.0223 3.7069-4.4453 5.4727a1.3044 1.3044 0 0 0-0.28516 1.8223 1.3044 1.3044 0 0 0 1.8223 0.28516c2.7253-1.986 4.5814-4.2397 5.3945-6.7852a1.3044 1.3044 0 0 0-0.8457-1.6387z" />
</svg>
