<svg width="24" height="24" version="1.1" xmlns="http://www.w3.org/2000/svg">
 <path d="m9.1782 0.0060941a1.2278 1.2278 0 0 0-0.32033 0.01 1.2278 1.2278 0 0 0-0.79889 0.49614c-2.009 2.8051-3.0791 5.5811-3.051 8.2975a1.2278 1.2278 0 0 0 1.2403 1.2149 1.2278 1.2278 0 0 0 1.2149-1.2403c-0.0212-2.0525 0.78803-4.3234 2.592-6.8423a1.2278 1.2278 0 0 0-0.28322-1.713 1.2278 1.2278 0 0 0-0.59379-0.22268zm9.153 2.172c-3.4456 0.17837-6.283 1.0718-8.3893 2.7873a1.2278 1.2278 0 0 0-0.17579 1.7286 1.2278 1.2278 0 0 0 1.7267 0.1758c1.5916-1.2963 3.8713-2.0783 6.9653-2.2384a1.2278 1.2278 0 0 0 1.1642-1.2892 1.2278 1.2278 0 0 0-1.2911-1.1642zm-16.818 3.762a1.2278 1.2278 0 0 0-0.31643 0.0469 1.2278 1.2278 0 0 0-0.84576 1.5157c0.94066 3.3195 2.4412 5.8894 4.5823 7.5611a1.2278 1.2278 0 0 0 1.7247-0.2129 1.2278 1.2278 0 0 0-0.2129-1.7228c-1.618-1.2632-2.888-3.3126-3.7327-6.2934a1.2278 1.2278 0 0 0-1.1993-0.89459zm14.19 0.46097a1.2278 1.2278 0 0 0-1.1407 0.96687 1.2278 1.2278 0 0 0 0.93756 1.4591c2.0059 0.43607 4.0399 1.7319 6.0942 4.0511a1.2278 1.2278 0 0 0 1.7326 0.10548 1.2278 1.2278 0 0 0 0.10547-1.7345c-2.2878-2.5827-4.7542-4.2436-7.4087-4.8206a1.2278 1.2278 0 0 0-0.32033-0.0273zm1.9454 5.0121a1.2278 1.2278 0 0 0-0.62309 0.12501 1.2278 1.2278 0 0 0-0.55668 1.6446c0.90971 1.8401 1.1652 4.2375 0.63286 7.2896a1.2278 1.2278 0 0 0 0.99811 1.42 1.2278 1.2278 0 0 0 1.422-0.99811c0.59289-3.3989 0.35226-6.3643-0.85162-8.7994a1.2278 1.2278 0 0 0-0.70709-0.61918 1.2278 1.2278 0 0 0-0.31447-0.0625zm-16.318 4.1272a1.2278 1.2278 0 0 0-0.97858 0.74225 1.2278 1.2278 0 0 0 0.65824 1.6075c3.1818 1.3343 6.1262 1.7608 8.7682 1.129a1.2278 1.2278 0 0 0 0.90826-1.4786 1.2278 1.2278 0 0 0-1.4806-0.91022c-1.9964 0.47742-4.3895 0.19419-7.2466-1.004a1.2278 1.2278 0 0 0-0.62895-0.0859zm13.345 0.41409a1.2278 1.2278 0 0 0-1.0059 0.70123c-0.87145 1.8585-2.5869 3.5527-5.3051 5.0394a1.2278 1.2278 0 0 0-0.48831 1.6661 1.2278 1.2278 0 0 0 1.6661 0.48832c3.0271-1.6557 5.1968-3.6913 6.3501-6.1508a1.2278 1.2278 0 0 0-0.59183-1.6329 1.2278 1.2278 0 0 0-0.62505-0.11134z"/>
</svg>
