<svg width="24" height="24" version="1.1" xmlns="http://www.w3.org/2000/svg">
 <path d="m12.597 0.99899a1.365 1.365 0 0 0-0.9941 0.32012c-2.9256 2.4808-4.8318 5.1843-5.537 8.1209a1.365 1.365 0 0 0 1.0078 1.6445 1.365 1.365 0 0 0 1.6465-1.0078c0.53282-2.219 2.0213-4.448 4.6483-6.6756a1.365 1.365 0 0 0 0.15836-1.9238 1.365 1.365 0 0 0-0.92967-0.47851zm6.1424 10.588a1.365 1.365 0 0 0-0.95506 0.42579 1.365 1.365 0 0 0 0.0506 1.9296c1.6552 1.571 2.8412 3.9742 3.4569 7.3631a1.365 1.365 0 0 0 1.5859 1.0996 1.365 1.365 0 0 0 1.0996-1.5878c-0.6857-3.774-2.073-6.7763-4.2635-8.8552a1.365 1.365 0 0 0-0.9746-0.37492zm-17.263 7.5525a1.365 1.365 0 0 0-1.3965 0.90037 1.365 1.365 0 0 0 0.82418 1.7461c3.6111 1.2932 6.9048 1.5919 9.8005 0.73434a1.365 1.365 0 0 0 0.92183-1.6953 1.365 1.365 0 0 0-1.6972-0.92188c-2.1881 0.64806-4.8626 0.47379-8.1052-0.68747a1.365 1.365 0 0 0-0.3477-0.0763z" />
</svg>
