<svg width="24" height="24" version="1.1" xmlns="http://www.w3.org/2000/svg">
 <path d="m6.9645 8.1558q0.90083 1.7333 0.90083 3.8443 0 2.111-0.90083 3.8443-0.54453 1.0518-1.3176 1.6073-0.76638 0.54812-1.7143 0.54812t-1.721-0.54812q-0.76638-0.55554-1.3109-1.6073-0.90083-1.7333-0.90083-3.8443 0-2.111 0.90083-3.8443 0.54453-1.0518 1.3109-1.6 0.7731-0.55554 1.721-0.55554 0.63193 0 1.1899 0.25184 0.5647 0.25184 1.0218 0.73331 0.45714 0.47406 0.82016 1.1704zm-1.1227 5.5405q0.2084-0.78516 0.2084-1.6963 0-0.91108-0.2084-1.6963-0.23529-0.91849-0.72604-1.5777-0.28907-0.38518-0.58487-0.55554-0.28907-0.17036-0.59831-0.17036-0.63193 0-1.1832 0.7259-0.24201 0.33332-0.42353 0.7259-0.18151 0.38518-0.30252 0.85182-0.20168 0.77776-0.2084 1.6963 0 0.91108 0.2084 1.6963 0.23529 0.91848 0.72604 1.5777 0.55126 0.7259 1.1832 0.7259t1.1832-0.7259q0.49075-0.65923 0.72604-1.5777zm10.091-1.6963q0 0.45924-0.24874 0.7259-0.24201 0.28147-0.65882 0.27407h-4.4638v3.9998q0 0.45924-0.24874 0.7259-0.24202 0.28147-0.66554 0.27407-0.087394 0-0.17479-0.01481-0.087394-0.01482-0.17479-0.04445-0.080671-0.02963-0.16134-0.08148-0.080672-0.05185-0.1479-0.13333-0.13445-0.14074-0.19496-0.32592-0.053781-0.19259-0.053781-0.39998v-10.007q0-0.45184 0.24201-0.71849 0.24201-0.28147 0.65209-0.27407h5.3915q0.4168 0 0.65882 0.27407 0.25546 0.26665 0.24874 0.7259 0 0.45924-0.24874 0.7259-0.24201 0.28147-0.65882 0.27407h-4.4638v2.9999h4.4638q0.07395 0 0.13445 0.01481 0.06723 0.0074 0.14118 0.02222t0.13445 0.04445q0.06723 0.02963 0.12773 0.08148 0.06723 0.04445 0.12101 0.11111 0.13445 0.14074 0.18823 0.33332 0.0605 0.18518 0.0605 0.39258zm8.0672 0q0 0.45924-0.24874 0.7259-0.24201 0.28147-0.65882 0.27407h-4.4638v3.9998q0 0.45924-0.24874 0.7259-0.24201 0.28147-0.66554 0.27407-0.08739 0-0.17479-0.01481-0.08739-0.01482-0.17479-0.04445-0.08067-0.02963-0.16134-0.08148t-0.1479-0.13333q-0.13445-0.14073-0.19496-0.32592-0.05378-0.19259-0.05378-0.39998v-10.007q0-0.45184 0.24201-0.71849 0.24201-0.28147 0.65209-0.27407h5.3915q0.4168 0 0.65882 0.27407 0.25546 0.26665 0.24874 0.7259 0 0.45924-0.24874 0.7259-0.24201 0.28147-0.65882 0.27407h-4.4638v2.9999h4.4638q0.07395 0 0.13445 0.01481 0.06723 0.0074 0.14118 0.02222t0.13445 0.04445q0.06723 0.02963 0.12773 0.08148 0.06723 0.04445 0.12101 0.11111 0.13445 0.14074 0.18823 0.33332 0.0605 0.18517 0.0605 0.39258z"/>
</svg>
