<svg width="24" height="24" version="1.1" xmlns="http://www.w3.org/2000/svg">
 <path d="m14.541 3.0866e-4a1.2289 1.2289 0 0 0-0.61717 0.15039c-3.0297 1.6572-5.201 3.6963-6.3553 6.158a1.2289 1.2289 0 0 0 0.58982 1.6328 1.2289 1.2289 0 0 0 1.6347-0.58983c0.8722-1.8602 2.5898-3.5567 5.3104-5.0448a1.2289 1.2289 0 0 0 0.48826-1.6679 1.2289 1.2289 0 0 0-0.73435-0.58982 1.2289 1.2289 0 0 0-0.3164-0.0488zm-8.3513 1.3789a1.2289 1.2289 0 0 0-1.2089 0.88278c-0.97054 3.3141-1.0651 6.2905-0.14063 8.8474a1.2289 1.2289 0 0 0 1.5742 0.73826 1.2289 1.2289 0 0 0 0.73826-1.5742c-0.69855-1.9321-0.684-4.3442 0.1875-7.3201a1.2289 1.2289 0 0 0-0.83396-1.5253 1.2289 1.2289 0 0 0-0.3164-0.0488zm10.566 2.8202c-1.3746 8e-5 -2.6666 0.20728-3.8651 0.6406a1.2289 1.2289 0 0 0-0.73826 1.5742 1.2289 1.2289 0 0 0 1.5742 0.73826c1.9321-0.69855 4.3442-0.684 7.3201 0.1875a1.2289 1.2289 0 0 0 1.5253-0.83396 1.2289 1.2289 0 0 0-0.83397-1.5253c-1.657-0.48527-3.2289-0.74989-4.7069-0.77928-0.0924-2e-3 -0.18375-2e-3 -0.27538-2e-3zm0.31054 3.2577a1.2289 1.2289 0 0 0-1.0078 0.70115 1.2289 1.2289 0 0 0 0.58983 1.6347c1.8601 0.8722 3.5567 2.5898 5.0448 5.3104a1.2289 1.2289 0 0 0 1.6679 0.48826 1.2289 1.2289 0 0 0 0.48827-1.6679c-1.6572-3.0297-3.6964-5.201-6.158-6.3553a1.2289 1.2289 0 0 0-0.62498-0.11133zm-15.808 0.80076a1.2289 1.2289 0 0 0-0.61912 0.15038 1.2289 1.2289 0 0 0-0.48826 1.6679c1.6572 3.0297 3.6963 5.201 6.158 6.3553a1.2289 1.2289 0 0 0 1.6328-0.58982 1.2289 1.2289 0 0 0-0.58983-1.6347c-1.8602-0.87221-3.5567-2.5898-5.0448-5.3104a1.2289 1.2289 0 0 0-0.7324-0.58787 1.2289 1.2289 0 0 0-0.3164-0.0508zm16.642 3.8261a1.2289 1.2289 0 0 0-0.31444 0.0684 1.2289 1.2289 0 0 0-0.73826 1.5742c0.69855 1.9321 0.684 4.3442-0.18749 7.3201a1.2289 1.2289 0 0 0 0.83395 1.5253 1.2289 1.2289 0 0 0 1.5254-0.83397c0.97054-3.3141 1.0651-6.2905 0.14062-8.8474a1.2289 1.2289 0 0 0-1.2597-0.80662zm-2.6855 3.8632a1.2289 1.2289 0 0 0-1.0078 0.70115c-0.87221 1.8601-2.5898 3.5567-5.3104 5.0448a1.2289 1.2289 0 0 0-0.48827 1.6679 1.2289 1.2289 0 0 0 1.6679 0.48827c3.0297-1.6572 5.201-3.6964 6.3553-6.158a1.2289 1.2289 0 0 0-0.58982-1.6328 1.2289 1.2289 0 0 0-0.62695-0.11132zm-12.578 0.66404a1.2289 1.2289 0 0 0-1.209 0.88278 1.2289 1.2289 0 0 0 0.83396 1.5254c3.3141 0.97054 6.2905 1.0651 8.8474 0.14062a1.2289 1.2289 0 0 0 0.73826-1.5742 1.2289 1.2289 0 0 0-1.5742-0.73826c-1.9321 0.69855-4.3442 0.684-7.3201-0.18749a1.2289 1.2289 0 0 0-0.31639-0.0488z"/>
</svg>
