<?xml version="1.0" encoding="UTF-8" standalone="no"?>
<!-- Generator: Adobe Illustrator 17.0.0, SVG Export Plug-In . SVG Version: 6.00 Build 0)  -->

<svg
   xmlns:dc="http://purl.org/dc/elements/1.1/"
   xmlns:cc="http://creativecommons.org/ns#"
   xmlns:rdf="http://www.w3.org/1999/02/22-rdf-syntax-ns#"
   xmlns:svg="http://www.w3.org/2000/svg"
   xmlns="http://www.w3.org/2000/svg"
   xmlns:sodipodi="http://sodipodi.sourceforge.net/DTD/sodipodi-0.dtd"
   xmlns:inkscape="http://www.inkscape.org/namespaces/inkscape"
   version="1.1"
   id="Layer_1"
   x="0px"
   y="0px"
   width="85.821999"
   height="81.217888"
   viewBox="0 0 85.821999 81.217888"
   enable-background="new 0 0 600 400"
   xml:space="preserve"
   sodipodi:docname="valetudo_logo_small.svg"
   inkscape:version="0.92.1 r15371"><metadata
     id="metadata29"><rdf:RDF><cc:Work
         rdf:about=""><dc:format>image/svg+xml</dc:format><dc:type
           rdf:resource="http://purl.org/dc/dcmitype/StillImage" /><dc:title></dc:title></cc:Work></rdf:RDF></metadata><defs
     id="defs27" /><sodipodi:namedview
     pagecolor="#ffffff"
     bordercolor="#666666"
     borderopacity="1"
     objecttolerance="10"
     gridtolerance="10"
     guidetolerance="10"
     inkscape:pageopacity="0"
     inkscape:pageshadow="2"
     inkscape:window-width="3440"
     inkscape:window-height="1377"
     id="namedview25"
     showgrid="false"
     fit-margin-top="0"
     fit-margin-left="0"
     fit-margin-right="0"
     fit-margin-bottom="0"
     inkscape:zoom="2.7058619"
     inkscape:cx="9.6965838"
     inkscape:cy="2.8657919"
     inkscape:window-x="-8"
     inkscape:window-y="-8"
     inkscape:window-maximized="1"
     inkscape:current-layer="Layer_1" /><path
     stroke-miterlimit="10"
     d="m 74.42,3.1356634 c 2.021,3.297 3.537,6.9369996 4.441,10.8109996 0.628,2.694 0.961,5.501 0.961,8.386 0,14.771 -8.879,26.455 -20.62,33.87 -6.9,4.357 -13.626,9.119 -16.291,13.707 -3.065,-4.561 -9.391,-9.35 -16.291,-13.707 -11.741,-7.415 -20.62,-19.099 -20.62,-33.87 0,-2.885 0.332,-5.693 0.961,-8.386 0.841,-3.605 2.212,-7.0059996 4.026,-10.1179996"
     id="path18"
     inkscape:connector-curvature="0"
     style="fill:none;stroke:#0076ff;stroke-width:12;stroke-miterlimit:10" /><path
     stroke-miterlimit="10"
     d="m 60.701,28.310663 c 0,9.722 -17.604,17.604 -17.604,17.604 0,0 -17.604,-7.882 -17.604,-17.604 0,-9.722 7.882,-17.604 17.604,-17.604 9.722,0 17.604,7.881 17.604,17.604 z"
     id="path20"
     inkscape:connector-curvature="0"
     style="fill:none;stroke:#52aeff;stroke-width:7;stroke-miterlimit:10" /><circle
     cx="43.217003"
     cy="28.133661"
     r="8.2550001"
     id="circle22"
     style="fill:#52aeff" /></svg>