<svg width="32" height="32" version="1.1" viewBox="0 0 32 32" xmlns="http://www.w3.org/2000/svg" xmlns:xlink="http://www.w3.org/1999/xlink">
 <defs>
  <linearGradient id="linearGradient6" x1="27.32" x2="4.692" y1="4.692" y2="27.32" gradientUnits="userSpaceOnUse">
   <stop stop-color="#8c8c8c" offset="0"/>
   <stop stop-color="#808080" offset="1"/>
  </linearGradient>
  <linearGradient id="linearGradient8" x1="27.32" x2="4.692" y1="4.692" y2="27.32" gradientUnits="userSpaceOnUse">
   <stop stop-color="#404040" offset="0"/>
   <stop stop-color="#333" offset="1"/>
  </linearGradient>
  <linearGradient id="linearGradient10" x1="25.312" x2="6.7149" y1="6.7101" y2="25.308" gradientUnits="userSpaceOnUse">
   <stop stop-color="#404040" offset="0"/>
   <stop stop-color="#333" offset="1"/>
  </linearGradient>
 </defs>
 <circle cx="16.006" cy="16.006" r="14.946" fill="url(#linearGradient6)" stroke="url(#linearGradient8)" stroke-width="2.1087"/>
 <path d="m16.01 2.8652-1.3555 2.3477-0.066406 0.11523-1.2891 2.2324h1.2891v7.0313h-7.0293v-1.2871l-2.2324 1.2871h-0.0019531v0.001953l-0.11328 0.064453-2.3477 1.3555 2.4609 1.4199v0.003906h0.0058593l2.2285 1.2871v-1.2871h7.0293v7.0215h-1.2871l1.2871 2.2305v0.009766h0.005859l1.416 2.4531 1.3555-2.3457 0.0625-0.10742h0.003907v-0.007813l1.2891-2.2324h-1.2891v-7.0215h7.0371v1.2871l4.6953-2.7109-2.3477-1.3555-2.3477-1.3535v1.2871h-7.0371v-7.0313h1.2871l-1.2871-2.2305v-0.0019531l-1.4219-2.4629z" fill="url(#linearGradient10)" stroke-width="6.1213"/>
</svg>
