<?xml version="1.0" encoding="UTF-8" standalone="no"?>
<svg
   shape-rendering="crispEdges"
   version="1.1"
   viewBox="0 -0.5 50 48"
   id="svg3"
   sodipodi:docname="confused_valetudog.svg"
   width="50"
   height="48"
   inkscape:version="1.3.2 (091e20e, 2023-11-25, custom)"
   xmlns:inkscape="http://www.inkscape.org/namespaces/inkscape"
   xmlns:sodipodi="http://sodipodi.sourceforge.net/DTD/sodipodi-0.dtd"
   xmlns="http://www.w3.org/2000/svg"
   xmlns:svg="http://www.w3.org/2000/svg">
  <defs
     id="defs3" />
  <sodipodi:namedview
     id="namedview3"
     pagecolor="#ffffff"
     bordercolor="#000000"
     borderopacity="0.25"
     inkscape:showpageshadow="2"
     inkscape:pageopacity="0.0"
     inkscape:pagecheckerboard="true"
     inkscape:deskcolor="#d1d1d1"
     showguides="true"
     inkscape:zoom="8.7159622"
     inkscape:cx="14.857797"
     inkscape:cy="30.117157"
     inkscape:window-width="3840"
     inkscape:window-height="1537"
     inkscape:window-x="-8"
     inkscape:window-y="-8"
     inkscape:window-maximized="1"
     inkscape:current-layer="svg3">
    <sodipodi:guide
       position="21,21.872356"
       orientation="-1,0"
       id="guide3"
       inkscape:locked="false"
       inkscape:label=""
       inkscape:color="rgb(0,134,229)" />
  </sodipodi:namedview>
  <g
     id="g1">
    <g
       id="g3"
       transform="translate(-25,-3)">
      <path
         d="m 31,20 h 32 m -32,1 h 1 m 30,0 h 1 m -32,1 h 1 m 30,0 h 2 m -37,1 h 5 m 31,0 h 2 m -39,1 h 2 m 36,0 h 2 m -40,1 h 1 m 38,0 h 2 m -41,1 h 1 m 39,0 h 2 m -42,1 h 2 m 39,0 h 4 m -44,1 h 2 m 41,0 h 1 m -44,1 h 1 m 42,0 h 1 m -44,1 h 1 m 42,0 h 1 m 1,0 h 3 m -48,1 h 1 m 42,0 h 3 m 1,0 h 1 m -48,1 h 1 m 42,0 h 2 m 1,0 h 2 m -48,1 h 1 m 42,0 h 1 m 1,0 h 2 m -47,1 h 1 m 43,0 h 2 m -46,1 h 1 m 42,0 h 2 m -45,1 h 1 m 42,0 h 1 m -44,1 h 1 m 42,0 h 1 m -44,1 h 1 m 42,0 h 1 m -44,1 h 1 m 42,0 h 1 m -44,1 h 1 m 42,0 h 1 m -44,1 h 1 m 42,0 h 1 m -44,1 h 1 m 42,0 h 1 m -44,1 h 1 m 42,0 h 1 m -44,1 h 1 m 42,0 h 1 m -44,1 h 1 m 42,0 h 1 m -46,1 h 3 m 42,0 h 3 m -48,1 h 1 m 46,0 h 1 m -48,1 h 1 m 5,0 h 36 m 5,0 h 1 m -48,1 h 1 m 5,0 h 1 m 34,0 h 1 m 5,0 h 1 m -48,1 h 7 m 34,0 h 7"
         stroke="#ffffff"
         id="path1" />
      <path
         d="m 32,21 h 30 m -30,1 h 1 m 28,0 h 1 m -30,1 h 1 m 12,0 h 1 m 16,0 h 1 m -35,1 h 5 m 30,0 h 1 m -37,1 h 1 m 36,0 h 1 m -38,1 h 18 m 20,0 h 1 m -38,1 h 1 m 37,0 h 1 m 0,1 h 3 m -42,1 h 1 m 40,0 h 1 m -42,1 h 1 m 40,0 h 1 m -42,1 h 1 m 40,0 h 1 m 3,0 h 1 m -46,1 h 1 m 40,0 h 1 m 2,0 h 1 m -45,1 h 1 m 40,0 h 1 m 1,0 h 1 m -44,1 h 1 m 40,0 h 2 m -43,1 h 1 m 40,0 h 1 m -42,1 h 1 m 40,0 h 1 m -42,1 h 1 m 40,0 h 1 m -42,1 h 1 m 40,0 h 1 m -42,1 h 1 m 40,0 h 1 m -42,1 h 1 m 40,0 h 1 m -42,1 h 1 m 40,0 h 1 m -42,1 h 1 m 40,0 h 1 m -42,1 h 1 m 40,0 h 1 m -42,1 h 1 m 40,0 h 1 m -42,1 h 1 m 40,0 h 1 m -42,1 h 1 m 40,0 h 1 m -44,1 h 3 m 1,0 h 38 m 1,0 h 3 m -46,1 h 1 m 3,0 h 1 m 36,0 h 1 m 3,0 h 1 m -46,1 h 5 m 36,0 h 5"
         stroke="#000000"
         id="path2" />
      <path
         d="m 33,22 h 28 m -28,1 h 12 m 1,0 h 16 m -29,1 h 30 m -35,1 h 36 m -19,1 h 20 m -36,1 h 37 m -37,1 h 38 m -38,1 h 40 m -40,1 h 40 m -40,1 h 40 m -40,1 h 40 m -40,1 h 40 m -40,1 h 40 m -40,1 h 40 m -40,1 h 40 m -40,1 h 40 m -40,1 h 40 m -40,1 h 40 m -40,1 h 40 m -40,1 h 40 m -40,1 h 40 m -40,1 h 40 m -40,1 h 40 m -40,1 h 40 m -40,1 h 40 m -40,1 h 1 m 38,0 h 1 m -42,1 h 3 m 38,0 h 3"
         stroke="#da7446"
         id="path3" />
    </g>
    <g
       id="g4"
       transform="translate(-10.5,-9)">
      <path
         stroke="#ffffff"
         d="m 27,9 h 8 m -9,1 h 2 m 6,0 h 2 m -10,1 h 1 m 8,0 h 1 m -10,1 h 1 m 2,0 h 4 m 2,0 h 1 m -10,1 h 1 m 2,0 h 1 m 1,0 h 2 m 2,0 h 1 m -10,1 h 6 m 3,0 h 1 m -7,1 h 2 m 3,0 h 2 m -7,1 h 1 m 3,0 h 2 m -6,1 h 1 m 2,0 h 2 m -5,1 h 1 m 2,0 h 1 m -4,1 h 4 m -4,1 h 1 m 2,0 h 1 m -4,1 h 1 m 2,0 h 1 m -4,1 h 4"
         id="path1-5" />
      <path
         stroke="#000000"
         d="m 28,10 h 6 m -7,1 h 8 m -8,1 h 2 m 4,0 h 2 m -8,1 h 2 m 4,0 h 2 m -3,1 h 3 m -4,1 h 3 m -4,1 h 3 m -3,1 h 2 m -2,1 h 2 m -2,2 h 2 m -2,1 h 2"
         id="path2-0" />
    </g>
  </g>
</svg>
