<svg shape-rendering="crispEdges" version="1.1" viewBox="0 -.5 50 31" xmlns="http://www.w3.org/2000/svg">
 <path d="M6 0h32M6 1h1M37 1h1M6 2h1M37 2h2M2 3h5M38 3h2M1 4h2M39 4h2M1 5h1M40 5h2M1 6h1M41 6h2M1 7h2M42 7h4M2 8h2M45 8h1M2 9h1M45 9h1M2 10h1M45 10h1M47 10h3M2 11h1M45 11h3M49 11h1M2 12h1M45 12h2M48 12h2M2 13h1M45 13h1M47 13h2M2 14h1M46 14h2M2 15h1M45 15h2M2 16h1M45 16h1M2 17h1M45 17h1M2 18h1M45 18h1M2 19h1M45 19h1M2 20h1M45 20h1M2 21h1M45 21h1M2 22h1M45 22h1M2 23h1M45 23h1M2 24h1M45 24h1M2 25h1M45 25h1M0 26h3M45 26h3M0 27h1M47 27h1M0 28h1M6 28h36M47 28h1M0 29h1M6 29h1M41 29h1M47 29h1M0 30h7M41 30h7" stroke="#fff"/>
 <path d="M7 1h30M7 2h1M36 2h1M7 3h1M20 3h1M37 3h1M3 4h5M38 4h1M2 5h1M39 5h1M2 6h18M40 6h1M3 7h1M41 7h1M42 8h3M3 9h1M44 9h1M3 10h1M44 10h1M3 11h1M44 11h1M48 11h1M3 12h1M44 12h1M47 12h1M3 13h1M44 13h1M46 13h1M3 14h1M44 14h2M3 15h1M44 15h1M3 16h1M44 16h1M3 17h1M44 17h1M3 18h1M44 18h1M3 19h1M44 19h1M3 20h1M44 20h1M3 21h1M44 21h1M3 22h1M44 22h1M3 23h1M44 23h1M3 24h1M44 24h1M3 25h1M44 25h1M3 26h1M44 26h1M1 27h3M5 27h38M44 27h3M1 28h1M5 28h1M42 28h1M46 28h1M1 29h5M42 29h5" stroke="#000"/>
 <path d="M8 2h28M8 3h12M21 3h16M8 4h30M3 5h36M20 6h20M4 7h37M4 8h38M4 9h40M4 10h40M4 11h40M4 12h40M4 13h40M4 14h40M4 15h40M4 16h40M4 17h40M4 18h40M4 19h40M4 20h40M4 21h40M4 22h40M4 23h40M4 24h40M4 25h40M4 26h40M4 27h1M43 27h1M2 28h3M43 28h3" stroke="#da7446"/>
</svg>
