<?xml version="1.0" encoding="UTF-8" standalone="no"?>
<svg
   width="25cm"
   height="8cm"
   viewBox="0 0 250 79.999996"
   version="1.1"
   id="svg934"
   inkscape:version="1.1 (c68e22c387, 2021-05-23)"
   sodipodi:docname="works_with_valetudo_v3.svg"
   xmlns:inkscape="http://www.inkscape.org/namespaces/inkscape"
   xmlns:sodipodi="http://sodipodi.sourceforge.net/DTD/sodipodi-0.dtd"
   xmlns="http://www.w3.org/2000/svg"
   xmlns:svg="http://www.w3.org/2000/svg"
   xmlns:rdf="http://www.w3.org/1999/02/22-rdf-syntax-ns#"
   xmlns:cc="http://creativecommons.org/ns#"
   xmlns:dc="http://purl.org/dc/elements/1.1/">
  <defs
     id="defs928" />
  <sodipodi:namedview
     id="base"
     pagecolor="#ffffff"
     bordercolor="#666666"
     borderopacity="1.0"
     inkscape:pageopacity="0.0"
     inkscape:pageshadow="2"
     inkscape:zoom="3.959798"
     inkscape:cx="309.99056"
     inkscape:cy="147.86108"
     inkscape:document-units="mm"
     inkscape:current-layer="layer1"
     inkscape:document-rotation="0"
     showgrid="false"
     units="cm"
     fit-margin-top="0"
     fit-margin-left="0"
     fit-margin-right="0"
     fit-margin-bottom="0"
     showguides="true"
     inkscape:guide-bbox="true"
     inkscape:window-width="3840"
     inkscape:window-height="1537"
     inkscape:window-x="-8"
     inkscape:window-y="-8"
     inkscape:window-maximized="1"
     inkscape:pagecheckerboard="true"
     inkscape:snap-global="false">
    <sodipodi:guide
       position="80.04722,57.549357"
       orientation="1,0"
       id="guide1561" />
    <sodipodi:guide
       position="171.98794,15.053504"
       orientation="0,-1"
       id="guide1607" />
    <sodipodi:guide
       position="39.956793,152.07924"
       orientation="1,0"
       id="guide1609" />
    <sodipodi:guide
       position="60.192708,65.069935"
       orientation="0,-1"
       id="guide1616" />
    <sodipodi:guide
       position="85.044642,-1.7373512"
       orientation="1,0"
       id="guide1618" />
    <sodipodi:guide
       position="99.825168,26.412458"
       orientation="1,0"
       id="guide1620" />
    <sodipodi:guide
       position="93.999996,99.71112"
       orientation="-1,0"
       id="guide1693"
       inkscape:label=""
       inkscape:locked="false"
       inkscape:color="rgb(0,0,255)" />
  </sodipodi:namedview>
  <metadata
     id="metadata931">
    <rdf:RDF>
      <cc:Work
         rdf:about="">
        <dc:format>image/svg+xml</dc:format>
        <dc:type
           rdf:resource="http://purl.org/dc/dcmitype/StillImage" />
      </cc:Work>
    </rdf:RDF>
  </metadata>
  <g
     inkscape:groupmode="layer"
     id="layer2"
     inkscape:label="Background" />
  <g
     inkscape:label="Ebene 1"
     inkscape:groupmode="layer"
     id="layer1"
     transform="translate(-0.0377676,-0.3122568)"
     style="display:inline">
    <path
       id="rect1577-7"
       style="display:inline;fill:#ffffff;fill-opacity:1;stroke-width:0.184"
       d="M 170.11421,0.7132568 V 79.987488 H 11.952285 c -6.3074207,0 -11.38535073,-5.077928 -11.38535073,-11.385351 v -56.58001 c 0,-5.8650475 4.39139003,-10.6641536 10.07846073,-11.3088702 z"
    />
    <path
       id="rect1577"
       style="opacity:1;fill:#0076ff;fill-opacity:1;stroke-width:0.695433"
       d="M 302.54102,1.515625 V 301.13477 h 597.77734 c 23.83908,0 43.03125,-19.19217 43.03125,-43.03125 V 44.257812 c 0,-22.167109 -16.59738,-40.305463 -38.0918,-42.742187 z"
       transform="matrix(0.26458333,0,0,0.26458333,0.0377676,0.3122568)"
/>
    <rect
       style="fill:none;stroke:#000000;stroke-width:0.45722;stroke-linejoin:round;stop-color:#000000"
       id="rect837-03"
       width="249.1891"
       height="79.350708"
       x="0.44321653"
       y="0.63690281"
       ry="11.385242" />
    <g
       aria-label="works with"
       id="text859-0"
       style="font-style:normal;font-variant:normal;font-weight:normal;font-stretch:normal;font-size:25.4px;line-height:1.25;font-family:Utsaah;-inkscape-font-specification:Utsaah;letter-spacing:0px;word-spacing:0px;fill:#ffffff;fill-opacity:1;stroke:none;stroke-width:0.120973">
      <path
         d="m 96.927515,28.17075 -2.889746,-9.425781 h 1.649511 l 1.500684,5.444628 0.570508,2.021582 q 0.0248,-0.148828 0.483691,-1.947168 l 1.500684,-5.519042 h 1.637113 l 1.41386,5.469433 0.47129,1.79834 0.54571,-1.823145 1.6123,-5.444628 h 1.5627 l -2.95176,9.425781 h -1.66192 l -1.50068,-5.643067 -0.35967,-1.612304 -1.909959,7.255371 z"
         style="font-style:normal;font-variant:normal;font-weight:normal;font-stretch:normal;font-size:25.4px;font-family:Utsaah;-inkscape-font-specification:Utsaah;fill:#ffffff;fill-opacity:1;stroke-width:0.120973"
         id="path880" />
      <path
         d="m 107.72996,23.457859 q 0,-2.616894 1.45107,-3.881933 1.21543,-1.0542 2.96416,-1.0542 1.94717,0 3.175,1.277442 1.24023,1.277441 1.24023,3.522265 0,1.823145 -0.5457,2.864942 -0.5457,1.041797 -1.5875,1.624707 -1.0418,0.570508 -2.28203,0.570508 -1.97197,0 -3.1998,-1.26504 -1.21543,-1.277441 -1.21543,-3.658691 z m 1.63711,0 q 0,1.810742 0.79375,2.716113 0.79375,0.892969 1.98437,0.892969 1.19063,0 1.98438,-0.905371 0.79375,-0.905371 0.79375,-2.75332 0,-1.761133 -0.80616,-2.654102 -0.79375,-0.905371 -1.97197,-0.905371 -1.19062,0 -1.98437,0.905371 -0.79375,0.892969 -0.79375,2.703711 z"
         style="font-style:normal;font-variant:normal;font-weight:normal;font-stretch:normal;font-size:25.4px;font-family:Utsaah;-inkscape-font-specification:Utsaah;fill:#ffffff;fill-opacity:1;stroke-width:0.120973"
         id="path882" />
      <path
         d="m 118.42078,28.17075 v -9.425781 h 1.43867 v 1.426269 q 0.5581,-1.00459 1.01699,-1.327051 0.47129,-0.322461 1.02939,-0.322461 0.80616,0 1.63711,0.520899 l -0.5457,1.488281 q -0.58291,-0.347266 -1.17822,-0.347266 -0.5209,0 -0.94258,0.310059 -0.40928,0.310059 -0.58291,0.880566 -0.27285,0.84336 -0.27285,1.860352 v 4.936133 z"
         style="font-style:normal;font-variant:normal;font-weight:normal;font-stretch:normal;font-size:25.4px;font-family:Utsaah;-inkscape-font-specification:Utsaah;fill:#ffffff;fill-opacity:1;stroke-width:0.120973"
         id="path884" />
      <path
         d="M 124.49792,28.17075 V 15.148289 h 1.59991 v 7.429004 l 3.78271,-3.832324 h 2.07119 l -3.60908,3.49746 3.96875,5.928321 h -1.95957 l -3.12539,-4.824512 -1.12861,1.091406 v 3.733106 z"
         style="font-style:normal;font-variant:normal;font-weight:normal;font-stretch:normal;font-size:25.4px;font-family:Utsaah;-inkscape-font-specification:Utsaah;fill:#ffffff;fill-opacity:1;stroke-width:0.120973"
         id="path886" />
      <path
         d="m 132.94392,25.355418 1.5875,-0.248047 q 0.12402,0.95498 0.73174,1.463476 0.60771,0.496094 1.69912,0.496094 1.10381,0 1.63711,-0.446484 0.5333,-0.446485 0.5333,-1.054199 0,-0.533301 -0.47129,-0.855762 -0.32246,-0.21084 -1.63711,-0.533301 -1.74873,-0.446484 -2.43086,-0.768945 -0.68213,-0.322461 -1.02939,-0.892969 -0.34727,-0.58291 -0.34727,-1.265039 0,-0.63252 0.28526,-1.16582 0.28525,-0.545703 0.78134,-0.905371 0.37207,-0.272852 1.017,-0.458887 0.64492,-0.198438 1.38906,-0.198438 1.10381,0 1.93476,0.322461 0.84336,0.322461 1.24024,0.868164 0.40928,0.545703 0.5581,1.463477 l -1.56269,0.21084 q -0.11162,-0.731739 -0.62012,-1.141016 -0.5085,-0.409277 -1.43867,-0.409277 -1.10381,0 -1.5751,0.37207 -0.47129,0.359668 -0.47129,0.843359 0,0.322461 0.19844,0.570508 0.19844,0.248047 0.60771,0.42168 0.24805,0.08682 1.41387,0.409277 1.69912,0.446485 2.36885,0.744141 0.66973,0.285254 1.0542,0.843359 0.38447,0.545703 0.38447,1.364258 0,0.79375 -0.47129,1.500684 -0.47129,0.706933 -1.35185,1.091406 -0.86817,0.384473 -1.98438,0.384473 -1.83555,0 -2.80293,-0.756543 -0.95498,-0.768946 -1.22783,-2.269629 z"
         style="font-style:normal;font-variant:normal;font-weight:normal;font-stretch:normal;font-size:25.4px;font-family:Utsaah;-inkscape-font-specification:Utsaah;fill:#ffffff;fill-opacity:1;stroke-width:0.120973"
         id="path888" />
      <path
         d="m 149.46384,28.17075 -2.88974,-9.425781 h 1.64951 l 1.50068,5.444628 0.57051,2.021582 q 0.0248,-0.148828 0.48369,-1.947168 l 1.50068,-5.519042 h 1.63711 l 1.41387,5.469433 0.47129,1.79834 0.5457,-1.823145 1.61231,-5.444628 h 1.56269 l -2.95176,9.425781 h -1.66191 l -1.50068,-5.643067 -0.35967,-1.612304 -1.90996,7.255371 z"
         style="font-style:normal;font-variant:normal;font-weight:normal;font-stretch:normal;font-size:25.4px;font-family:Utsaah;-inkscape-font-specification:Utsaah;fill:#ffffff;fill-opacity:1;stroke-width:0.120973"
         id="path890" />
      <path
         d="m 160.8616,16.996238 v -1.847949 h 1.5999 v 1.847949 z m 0,11.174512 v -9.425781 h 1.5999 v 9.425781 z"
         style="font-style:normal;font-variant:normal;font-weight:normal;font-stretch:normal;font-size:25.4px;font-family:Utsaah;-inkscape-font-specification:Utsaah;fill:#ffffff;fill-opacity:1;stroke-width:0.120973"
         id="path892" />
      <path
         d="m 168.38981,26.74448 0.23565,1.413867 q -0.68213,0.136426 -1.21543,0.136426 -0.86816,0 -1.35186,-0.272851 -0.47128,-0.272852 -0.66972,-0.719336 -0.19844,-0.458887 -0.19844,-1.897559 v -5.419824 h -1.16582 v -1.240234 h 1.16582 v -2.344043 l 1.5875,-0.954981 v 3.299024 h 1.6123 v 1.240234 h -1.6123 v 5.50664 q 0,0.694532 0.0868,0.892969 0.0868,0.186035 0.27285,0.310059 0.19844,0.111621 0.5457,0.111621 0.27285,0 0.70693,-0.06201 z"
         style="font-style:normal;font-variant:normal;font-weight:normal;font-stretch:normal;font-size:25.4px;font-family:Utsaah;-inkscape-font-specification:Utsaah;fill:#ffffff;fill-opacity:1;stroke-width:0.120973"
         id="path894" />
      <path
         d="M 169.95252,28.17075 V 15.148289 h 1.5999 v 4.675683 q 1.11621,-1.302246 2.81533,-1.302246 1.0542,0 1.82314,0.42168 0.76895,0.409277 1.10381,1.141016 0.33487,0.719336 0.33487,2.108398 v 5.97793 h -1.59991 v -5.97793 q 0,-1.203027 -0.52089,-1.74873 -0.5209,-0.545703 -1.46348,-0.545703 -0.71934,0 -1.33945,0.37207 -0.62012,0.37207 -0.89297,1.00459 -0.26045,0.632519 -0.26045,1.736328 v 5.159375 z"
         style="font-style:normal;font-variant:normal;font-weight:normal;font-stretch:normal;font-size:25.4px;font-family:Utsaah;-inkscape-font-specification:Utsaah;fill:#ffffff;fill-opacity:1;stroke-width:0.120973"
         id="path896" />
    </g>
    <g
       aria-label="Valetudo"
       id="text859-0-4"
       style="font-style:normal;font-variant:normal;font-weight:normal;font-stretch:normal;font-size:50.8px;line-height:1.25;font-family:Utsaah;-inkscape-font-specification:Utsaah;letter-spacing:0px;word-spacing:0px;fill:#ffffff;fill-opacity:1;stroke:none;stroke-width:0.142746">
      <path
         d="M 104.13327,64.970909 94.037767,38.925988 h 3.745508 l 6.771675,18.925976 q 0.81856,2.282031 1.36426,4.266406 0.59531,-2.133203 1.38906,-4.266406 l 7.04454,-18.925976 h 3.52226 l -10.19473,26.044921 z"
         style="font-style:normal;font-variant:normal;font-weight:normal;font-stretch:normal;font-size:50.8px;font-family:Utsaah;-inkscape-font-specification:Utsaah;fill:#ffffff;fill-opacity:1;stroke-width:0.142746"
         id="path899" />
      <path
         d="m 132.8571,62.639269 q -1.78594,1.513085 -3.42304,2.133203 -1.63711,0.620117 -3.52227,0.620117 -3.10059,0 -4.78731,-1.513086 -1.66191,-1.513086 -1.66191,-3.869531 0,-1.389063 0.62012,-2.530078 0.64492,-1.165821 1.66191,-1.860352 1.01699,-0.694531 2.30684,-1.041797 0.94258,-0.248047 2.82773,-0.471289 3.86953,-0.471289 5.70508,-1.116211 0.0248,-0.644922 0.0248,-0.818554 0,-1.959571 -0.91778,-2.753321 -1.21543,-1.091406 -3.62148,-1.091406 -2.25723,0 -3.34864,0.79375 -1.0666,0.79375 -1.5875,2.80293 l -3.12539,-0.42168 q 0.42168,-2.00918 1.38907,-3.249414 0.99218,-1.240234 2.82773,-1.909961 1.86035,-0.669726 4.29121,-0.669726 2.43086,0 3.91914,0.570507 1.51309,0.570508 2.23242,1.438672 0.71934,0.868164 0.99219,2.182813 0.14883,0.818554 0.14883,2.951757 v 4.241602 q 0,4.464844 0.19844,5.655469 0.22324,1.16582 0.81855,2.257226 h -3.32383 q -0.49609,-0.992187 -0.64492,-2.33164 z m -0.27285,-7.14375 q -1.73633,0.719336 -5.20898,1.215429 -1.98438,0.297657 -2.80293,0.644922 -0.81856,0.347266 -1.26504,1.041797 -0.44649,0.669727 -0.44649,1.513086 0,1.265039 0.96739,2.133203 0.99218,0.843359 2.85253,0.843359 1.83555,0 3.27422,-0.79375 1.43868,-0.818554 2.1084,-2.207617 0.5209,-1.091406 0.5209,-3.199804 z"
         style="font-style:normal;font-variant:normal;font-weight:normal;font-stretch:normal;font-size:50.8px;font-family:Utsaah;-inkscape-font-specification:Utsaah;fill:#ffffff;fill-opacity:1;stroke-width:0.142746"
         id="path901" />
      <path
         d="M 140.72019,64.970909 V 38.925988 H 143.92 v 26.044921 z"
         style="font-style:normal;font-variant:normal;font-weight:normal;font-stretch:normal;font-size:50.8px;font-family:Utsaah;-inkscape-font-specification:Utsaah;fill:#ffffff;fill-opacity:1;stroke-width:0.142746"
         id="path903" />
      <path
         d="m 161.77937,58.893761 3.29902,0.421679 q -0.76894,2.877344 -2.90215,4.489649 -2.1084,1.5875 -5.38261,1.5875 -4.14239,0 -6.57325,-2.530078 -2.40605,-2.554883 -2.40605,-7.168555 0,-4.7625 2.43086,-7.391797 2.45566,-2.629296 6.3748,-2.629296 3.77032,0 6.17637,2.579687 2.40606,2.579687 2.40606,7.242969 0,0.297656 -0.0248,0.868164 h -14.06426 q 0.17364,3.100586 1.73633,4.7625 1.5875,1.637109 3.96875,1.637109 1.76113,0 3.00137,-0.917773 1.24023,-0.917774 1.95957,-2.951758 z m -10.49238,-5.159375 h 10.54199 q -0.22324,-2.38125 -1.21543,-3.571875 -1.53789,-1.860352 -3.96875,-1.860352 -2.20762,0 -3.7207,1.488282 -1.48829,1.463476 -1.63711,3.943945 z"
         style="font-style:normal;font-variant:normal;font-weight:normal;font-stretch:normal;font-size:50.8px;font-family:Utsaah;-inkscape-font-specification:Utsaah;fill:#ffffff;fill-opacity:1;stroke-width:0.142746"
         id="path905" />
      <path
         d="m 176.09167,62.11837 0.47129,2.827734 q -1.36426,0.272852 -2.43086,0.272852 -1.73633,0 -2.70371,-0.545703 -0.94258,-0.545703 -1.33945,-1.438672 -0.39688,-0.917773 -0.39688,-3.795117 V 48.599816 h -2.33164 v -2.480469 h 2.33164 v -4.688086 l 3.175,-1.909961 v 6.598047 h 3.22461 v 2.480469 h -3.22461 v 11.013281 q 0,1.389062 0.17364,1.785937 0.17363,0.37207 0.5457,0.620117 0.39687,0.223243 1.0914,0.223243 0.54571,0 1.41387,-0.124024 z"
         style="font-style:normal;font-variant:normal;font-weight:normal;font-stretch:normal;font-size:50.8px;font-family:Utsaah;-inkscape-font-specification:Utsaah;fill:#ffffff;fill-opacity:1;stroke-width:0.142746"
         id="path907" />
      <path
         d="m 191.5698,64.970909 v -2.778125 q -2.20762,3.199805 -5.97793,3.199805 -1.68672,0 -3.12539,-0.620117 -1.43867,-0.644922 -2.15801,-1.612305 -0.69453,-0.967383 -0.96738,-2.38125 -0.19844,-0.942578 -0.19844,-2.976562 V 46.119347 h 3.19981 V 56.56212 q 0,2.505274 0.19843,3.373438 0.29766,1.265039 1.26504,1.984375 0.96739,0.719336 2.40606,0.719336 1.43867,0 2.70371,-0.719336 1.26504,-0.744141 1.78594,-2.00918 0.5209,-1.289844 0.5209,-3.695898 V 46.119347 h 3.1998 v 18.851562 z"
         style="font-style:normal;font-variant:normal;font-weight:normal;font-stretch:normal;font-size:50.8px;font-family:Utsaah;-inkscape-font-specification:Utsaah;fill:#ffffff;fill-opacity:1;stroke-width:0.142746"
         id="path909" />
      <path
         d="m 211.6864,64.970909 v -2.38125 q -1.78594,2.80293 -5.2834,2.80293 -2.25722,0 -4.14238,-1.240235 -1.88516,-1.240234 -2.92695,-3.472656 -1.0418,-2.232422 -1.0418,-5.109765 0,-2.827735 0.94258,-5.134571 0.94258,-2.306835 2.82773,-3.522265 1.88516,-1.240234 4.2168,-1.240234 1.68672,0 3.02617,0.719335 1.33945,0.719336 2.15801,1.885157 v -9.351367 h 3.1998 v 26.044921 z m -10.09551,-9.400976 q 0,3.621484 1.51309,5.407421 1.53789,1.785938 3.62148,1.785938 2.0836,0 3.54707,-1.711523 1.46348,-1.711524 1.46348,-5.233789 0,-3.869532 -1.48828,-5.680274 -1.48828,-1.810742 -3.67109,-1.810742 -2.13321,0 -3.57188,1.736328 -1.41387,1.736328 -1.41387,5.506641 z"
         style="font-style:normal;font-variant:normal;font-weight:normal;font-stretch:normal;font-size:50.8px;font-family:Utsaah;-inkscape-font-specification:Utsaah;fill:#ffffff;fill-opacity:1;stroke-width:0.142746"
         id="path911" />
      <path
         d="m 218.50769,55.545128 q 0,-5.233789 2.90215,-7.763867 2.43086,-2.108398 5.92832,-2.108398 3.89433,0 6.35,2.554882 2.48047,2.554883 2.48047,7.044531 0,3.646289 -1.09141,5.729883 -1.09141,2.083594 -3.175,3.249414 -2.08359,1.141016 -4.56406,1.141016 -3.94395,0 -6.39961,-2.530078 -2.43086,-2.554883 -2.43086,-7.317383 z m 3.27422,0 q 0,3.621484 1.5875,5.432226 1.5875,1.785938 3.96875,1.785938 2.38125,0 3.96875,-1.810742 1.5875,-1.810742 1.5875,-5.506641 0,-3.522265 -1.61231,-5.308203 -1.5875,-1.810742 -3.94394,-1.810742 -2.38125,0 -3.96875,1.810742 -1.5875,1.785938 -1.5875,5.407422 z"
         style="font-style:normal;font-variant:normal;font-weight:normal;font-stretch:normal;font-size:50.8px;font-family:Utsaah;-inkscape-font-specification:Utsaah;fill:#ffffff;fill-opacity:1;stroke-width:0.142746"
         id="path913" />
    </g>
    <g
       id="g953"
       transform="matrix(1.9896733,0,0,1.9896733,164.88749,170.44197)">
      <path
         style="fill:#0076ff;fill-opacity:1;stroke-width:0.0132353"
         d="m -63.59946,-54.16929 c -0.80856,-1.286085 -0.919485,-1.452632 -1.139861,-1.711429 -0.144129,-0.169256 -0.623121,-0.648107 -0.829231,-0.828986 -0.834315,-0.732182 -1.67985,-1.341982 -3.33087,-2.402224 -0.662946,-0.425725 -1.40405,-0.976691 -1.993928,-1.48236 -0.442408,-0.379251 -1.114144,-1.030703 -1.482295,-1.437535 -2.382329,-2.632624 -3.622915,-5.735273 -3.624092,-9.063684 -5.3e-4,-1.902483 0.397355,-3.754052 1.179305,-5.48599 0.250386,-0.554575 0.733304,-1.444198 0.771825,-1.421844 0.192513,0.111727 3.141048,1.919272 3.141452,1.925811 3.18e-4,0.0051 -0.05622,0.108453 -0.12564,0.229626 -1.050707,1.834033 -1.462215,3.986816 -1.162923,6.083752 0.373665,2.617999 1.916061,5.031062 4.417871,6.911712 0.359566,0.270292 0.59951,0.43572 1.071177,0.738519 0.991233,0.63635 1.561349,1.02644 2.255994,1.543616 0.621698,0.462864 1.017702,0.788666 1.610319,1.324839 l 0.06979,0.06473 0.0505,-0.04567 c 1.224923,-1.107692 2.107556,-1.745376 3.974728,-2.944388 2.069217,-1.328755 3.59031,-2.939254 4.50734,-4.772268 0.79352,-1.586134 1.115098,-3.309197 0.945376,-5.065486 -0.132377,-1.369898 -0.543846,-2.666418 -1.222041,-3.850622 -0.06592,-0.115106 -0.119604,-0.213422 -0.119292,-0.21848 2.65e-4,-0.0051 0.117887,-0.0802 0.261279,-0.166993 0.304206,-0.184117 2.827287,-1.724573 2.867975,-1.751026 0.02625,-0.01708 0.03255,-0.0094 0.134447,0.164223 1.206364,2.055317 1.82947,4.352767 1.828856,6.743164 -7.94e-4,3.176877 -1.150052,6.185801 -3.332611,8.725423 -0.457718,0.532602 -1.086137,1.166677 -1.621604,1.636202 -0.722913,0.633887 -1.407826,1.141963 -2.387742,1.771257 -2.15601,1.38457 -3.444032,2.426666 -4.135777,3.346121 -0.05753,0.07647 -0.472659,0.724461 -0.922506,1.439984 -0.449849,0.715523 -0.822858,1.300951 -0.828909,1.300951 -0.0061,0 -0.379059,-0.585428 -0.828906,-1.300951 z"
         id="path48"
         sodipodi:nodetypes="sssssccccccssssccssssscscccsssssss" />
      <path
         style="fill:#52aeff;fill-opacity:1;stroke-width:0.0132292"
         d="m -63.074842,-62.748759 c -0.946802,-0.431288 -1.961893,-1.010385 -2.803118,-1.599145 -1.169257,-0.818347 -2.032884,-1.648702 -2.603983,-2.503664 -0.563512,-0.843604 -0.828145,-1.710812 -0.791242,-2.592916 0.04219,-1.008451 0.25525,-1.849971 0.688311,-2.718594 0.220214,-0.441698 0.442224,-0.790768 0.739408,-1.162583 1.05799,-1.323678 2.591526,-2.185448 4.261301,-2.394635 0.469267,-0.05879 1.108372,-0.06235 1.559274,-0.0087 1.994375,0.237376 3.733148,1.348354 4.794147,3.063187 0.151328,0.244584 0.399745,0.739855 0.504296,1.005417 0.281096,0.713996 0.426165,1.418833 0.458798,2.229115 0.06621,1.644109 -0.929737,3.244646 -2.970798,4.774214 -0.746995,0.559797 -1.505858,1.034889 -2.427488,1.519746 -0.371573,0.195479 -1.061506,0.517677 -1.104611,0.516512 -0.0098,-2.65e-4 -0.14786,-0.05672 -0.304295,-0.127976 z m 0.54901,-2.377609 c 0.827483,-0.44082 1.625005,-0.957813 2.26069,-1.465492 1.049552,-0.838206 1.681411,-1.667983 1.814605,-2.382989 0.03079,-0.165313 0.02039,-0.635704 -0.0199,-0.899583 -0.192132,-1.258371 -0.866613,-2.320064 -1.919454,-3.021391 -0.541209,-0.360515 -1.161366,-0.590587 -1.844897,-0.68444 -0.24039,-0.03301 -0.82996,-0.03337 -1.064948,-6.61e-4 -0.541518,0.07538 -0.943654,0.198743 -1.415521,0.434233 -1.210081,0.603904 -2.075047,1.756025 -2.327565,3.10028 -0.06708,0.357068 -0.08836,0.855119 -0.04616,1.080023 0.214349,1.142314 1.726355,2.573169 4.033742,3.817246 0.152662,0.08231 0.280655,0.149651 0.284427,0.149643 0.0038,-8e-6 0.114014,-0.0571 0.244983,-0.126869 z"
         id="path1308"
         sodipodi:nodetypes="sssssssssssssssssscsssssssss" />
      <path
         style="fill:#52aeff;fill-opacity:1;stroke-width:0.0132292"
         d="m -63.021926,-66.966062 c -0.436803,-0.04944 -0.883335,-0.229393 -1.246035,-0.502166 -0.13794,-0.103739 -0.390713,-0.356834 -0.491825,-0.492451 -0.237115,-0.318029 -0.40853,-0.710279 -0.478153,-1.094159 -0.03012,-0.166052 -0.0413,-0.58049 -0.02027,-0.751037 0.09255,-0.750508 0.497922,-1.411024 1.118418,-1.822371 0.313957,-0.208133 0.626241,-0.3318 1.005416,-0.398153 0.184445,-0.03228 0.533175,-0.03231 0.727604,-7.9e-5 1.106263,0.183417 1.952985,1.050299 2.115976,2.166357 0.02607,0.178492 0.02634,0.529519 5.56e-4,0.710956 -0.103879,0.73085 -0.505344,1.366855 -1.123806,1.780352 -0.464793,0.310757 -1.073495,0.463227 -1.607877,0.402749 z"
         id="path1522" />
    </g>
  </g>
</svg>
