<svg width="550" height="95" enable-background="new 0 0 600 400" version="1.1" viewBox="0 0 550 95" xml:space="preserve"
     xmlns="http://www.w3.org/2000/svg">
    <g fill="#0076ff" stroke-width="1px" aria-label="Valetudo"><path d="m156.11 81.6q-7.5-16.2-14.5-33.9-6.9-17.7-12.9-35.4h13.9q2.4 7 4.9 14.3t5 14.4q2.5 7 5 13.6t4.9 12.1q2.3-5.5 4.8-12 2.5-6.6 5-13.7 2.6-7.1 5.1-14.4t4.8-14.3h13.5q-6.1 17.7-13 35.4t-14.4 33.9z"/>
        <path d="m220.32 73.1q5.6 0 8.5-0.6v-13.4q-1-0.3-2.9-0.6t-4.2-0.3q-2 0-4.1 0.3-2 0.3-3.7 1.1-1.6 0.8-2.6 2.3-1 1.4-1 3.6 0 4.3 2.7 6 2.7 1.6 7.3 1.6zm-1-45.1q6 0 10.1 1.5t6.5 4.2q2.5 2.7 3.5 6.6 1.1 3.8 1.1 8.4v31.7q-2.8 0.6-8.5 1.4-5.6 0.9-12.7 0.9-4.7 0-8.6-0.9t-6.7-2.9q-2.7-2-4.3-5.2-1.5-3.2-1.5-7.9 0-4.5 1.7-7.6 1.8-3.1 4.8-5 3-2 6.9-2.8 4-0.9 8.3-0.9 2 0 4.2 0.3 2.2 0.2 4.7 0.8v-2q0-2.1-0.5-4t-1.8-3.3q-1.2-1.5-3.3-2.3-2-0.8-5.1-0.8-4.2 0-7.7 0.6t-5.7 1.4l-1.5-9.8q2.3-0.8 6.7-1.6t9.4-0.8z"/>
        <path d="m273.44 82.6q-5.4-0.1-9-1.2-3.5-1.1-5.6-3.1-2.1-2.1-3-5.1-0.8-3.1-0.8-7v-60.2l12.1-2v59.9q0 2.2 0.3 3.7 0.4 1.5 1.3 2.6 0.9 1 2.4 1.6 1.6 0.5 4 0.8z"/>
        <path d="m282.03 55.7q0-6.9 2-12.1 2.1-5.2 5.5-8.6 3.4-3.5 7.8-5.2 4.4-1.8 9-1.8 10.8 0 16.8 6.7 6.1 6.7 6.1 20 0 1-0.1 2.3 0 1.2-0.1 2.2h-34.5q0.5 6.3 4.4 9.8 4 3.4 11.5 3.4 4.4 0 8-0.8 3.7-0.8 5.8-1.7l1.6 9.9q-1 0.5-2.8 1.1-1.7 0.5-4 0.9-2.2 0.5-4.8 0.8t-5.3 0.3q-6.9 0-12-2-5.1-2.1-8.4-5.7-3.3-3.7-4.9-8.6-1.6-5-1.6-10.9zm35.1-5.4q0-2.5-0.7-4.7-0.7-2.3-2.1-3.9-1.3-1.7-3.3-2.6-1.9-1-4.6-1-2.8 0-4.9 1.1-2.1 1-3.6 2.7-1.4 1.7-2.2 3.9t-1.1 4.5z"/>
        <path d="m341.36 15.5 12.1-2v15.8h18.6v10.1h-18.6v21.3q0 6.3 2 9t6.8 2.7q3.3 0 5.8-0.7 2.6-0.7 4.1-1.3l2 9.6q-2.1 0.9-5.5 1.8-3.4 1-8 1-5.6 0-9.4-1.5-3.7-1.5-5.9-4.3-2.2-2.9-3.1-6.9-0.9-4.1-0.9-9.3z"/>
        <path d="m426.66 80q-3.5 0.9-9.1 1.8-5.6 1-12.3 1-6.3 0-10.6-1.8-4.2-1.8-6.8-5-2.5-3.2-3.6-7.6-1.1-4.5-1.1-9.8v-29.3h12.1v27.4q0 8.4 2.4 12 2.5 3.6 8.6 3.6 2.2 0 4.6-0.2 2.5-0.2 3.7-0.5v-42.3h12.1z"/>
        <path d="m451.66 55.3q0 8 3.8 12.6 3.8 4.5 10.5 4.5 2.9 0 4.9-0.2 2.1-0.3 3.4-0.6v-30q-1.6-1.1-4.3-2-2.6-1-5.6-1-6.6 0-9.7 4.5-3 4.5-3 12.2zm34.7 24.7q-3.6 1.1-9.1 2-5.4 0.9-11.4 0.9-6.2 0-11.1-1.9t-8.4-5.4q-3.4-3.6-5.3-8.6-1.8-5.1-1.8-11.4 0-6.2 1.5-11.2 1.6-5.1 4.6-8.7t7.3-5.5q4.3-2 9.9-2 3.8 0 6.7 0.9t5 2v-25.1l12.1-2z"/>
        <path d="m549.03 55.4q0 6.2-1.8 11.3t-5.1 8.7-8 5.6q-4.6 2-10.2 2t-10.2-2-7.9-5.6-5.2-8.7q-1.8-5.1-1.8-11.3t1.8-11.2q1.9-5.1 5.2-8.7 3.4-3.6 8-5.5 4.6-2 10.1-2t10.1 2q4.7 1.9 8 5.5t5.1 8.7q1.9 5 1.9 11.2zm-12.4 0q0-7.8-3.4-12.3-3.3-4.6-9.3-4.6t-9.4 4.6q-3.3 4.5-3.3 12.3 0 7.9 3.3 12.5 3.4 4.6 9.4 4.6t9.3-4.6q3.4-4.6 3.4-12.5z"/>
</g>
    <g transform="translate(-37.79 -94.688)">
        <path d="m85.148 184.77c-3.056-4.8608-3.4752-5.4903-4.3081-6.4684-0.54474-0.6397-2.3551-2.4495-3.1341-3.1332-3.1533-2.7673-6.349-5.0721-12.589-9.0793-2.5056-1.609-5.3066-3.6914-7.5361-5.6026-1.6721-1.4334-4.2109-3.8956-5.6024-5.4332-9.0041-9.9501-13.693-21.677-13.697-34.256-2e-3 -7.1905 1.5018-14.189 4.4572-20.734 0.94634-2.096 2.7715-5.4584 2.9171-5.3739 0.72761 0.42228 11.872 7.2539 11.873 7.2787 0.0012 0.0193-0.21249 0.4099-0.47486 0.86788-3.9712 6.9318-5.5265 15.068-4.3953 22.994 1.4123 9.8948 7.2418 19.015 16.697 26.123 1.359 1.0216 2.2659 1.6468 4.0485 2.7912 3.7464 2.4051 5.9012 3.8795 8.5266 5.8341 2.3497 1.7494 3.8464 2.9808 6.0862 5.0073l0.26376 0.24465 0.19086-0.17259c4.6296-4.1866 7.9656-6.5967 15.023-11.128 7.8207-5.0221 13.57-11.109 17.036-18.037 2.9991-5.9948 4.2145-12.507 3.5731-19.145-0.50033-5.1776-2.0555-10.078-4.6187-14.554-0.24916-0.43505-0.45205-0.80664-0.45087-0.82575 1e-3 -0.0191 0.44556-0.30314 0.98751-0.63116 1.1498-0.69587 10.686-6.5181 10.84-6.6181 0.0992-0.06456 0.12303-0.03543 0.50815 0.62069 4.5595 7.7681 6.9145 16.451 6.9122 25.486-3e-3 12.007-4.3467 23.379-12.596 32.978-1.73 2.013-4.1051 4.4095-6.1289 6.1841-2.7323 2.3958-5.3209 4.3161-9.0245 6.6945-8.1487 5.233-13.017 9.1716-15.631 12.647-0.21744 0.28901-1.7864 2.7381-3.4866 5.4425-1.7002 2.7043-3.11 4.917-3.1329 4.917-0.0229 0-1.4327-2.2126-3.1329-4.917z"
              fill="#0076ff" stroke-width=".050023"/>
        <path d="m87.131 152.34c-3.5785-1.6301-7.415-3.8188-10.594-6.044-4.4192-3.093-7.6833-6.2313-9.8418-9.4627-2.1298-3.1884-3.13-6.4661-2.9905-9.8 0.15945-3.8115 0.96473-6.992 2.6015-10.275 0.8323-1.6694 1.6714-2.9887 2.7946-4.394 3.9987-5.0029 9.7947-8.26 16.106-9.0506 1.7736-0.2222 4.1891-0.23564 5.8933-0.0328 7.5378 0.89717 14.11 5.0961 18.12 11.577 0.57195 0.92441 1.5108 2.7963 1.906 3.8 1.0624 2.6986 1.6107 5.3625 1.734 8.425 0.25025 6.214-3.514 12.263-11.228 18.044-2.8233 2.1158-5.6914 3.9114-9.1748 5.7439-1.4044 0.73882-4.012 1.9566-4.1749 1.9522-0.037-1e-3 -0.55884-0.21437-1.1501-0.48369zm2.075-8.9862c3.1275-1.6661 6.1418-3.6201 8.5443-5.5389 3.9668-3.168 6.3549-6.3042 6.8584-9.0066 0.11639-0.62481 0.0771-2.4027-0.0752-3.4-0.72617-4.756-3.2754-8.7687-7.2546-11.419-2.0455-1.3626-4.3894-2.2321-6.9728-2.5869-0.90856-0.12475-3.1369-0.12613-4.025-2e-3 -2.0467 0.28491-3.5666 0.75116-5.35 1.6412-4.5735 2.2825-7.8427 6.6369-8.7971 11.718-0.25351 1.3496-0.33396 3.232-0.17446 4.082 0.81014 4.3174 6.5248 9.7254 15.246 14.427 0.57699 0.31109 1.0607 0.56561 1.075 0.56557 0.01426-3e-5 0.43092-0.2158 0.92592-0.4795z"
              fill="#52aeff" stroke-width=".05"/>
        <path d="m87.331 136.4c-1.6509-0.18684-3.3386-0.86699-4.7094-1.8979-0.52135-0.39209-1.4767-1.3487-1.8589-1.8612-0.89618-1.202-1.544-2.6845-1.8072-4.1354-0.11383-0.6276-0.1561-2.194-0.07661-2.8386 0.34981-2.8366 1.8819-5.333 4.2271-6.8877 1.1866-0.78664 2.3669-1.254 3.8-1.5048 0.69711-0.12199 2.0152-0.12213 2.75-3e-4 4.1812 0.69323 7.3814 3.9696 7.9974 8.1878 0.09852 0.67461 0.09955 2.0013 0.0021 2.6871-0.39262 2.7623-1.91 5.1661-4.2475 6.7289-1.7567 1.1745-4.0573 1.7508-6.077 1.5222z"
              fill="#52aeff" stroke-width=".05"/>
    </g>
</svg>
