<svg width="24" height="24" version="1.1"  xmlns="http://www.w3.org/2000/svg">
 <path d="m16.347 23.997c-1.0088-0.05881-1.7458-0.97784-1.5815-1.9722 0.02248-0.13615 0.04792-0.22285 0.1214-0.41392 0.88009-2.2883 1.1904-4.32 0.92514-6.0579-0.04117-0.26972-0.08707-0.48952-0.16598-0.79485-0.26776-1.036 0.4648-2.0538 1.5298-2.1255 0.81919-0.05515 1.5501 0.46278 1.7664 1.2516 0.21223 0.77407 0.33325 1.6207 0.36461 2.5505 0.0035 0.10342 0.0036 0.57751 2.6e-5 0.68387-0.04836 1.4781-0.31467 2.9268-0.83461 4.5401-0.16469 0.51101-0.42052 1.2147-0.50362 1.3853-0.29943 0.61452-0.94268 0.99251-1.6216 0.95293zm0.17197-0.96164c0.26046-0.02728 0.49035-0.19344 0.59588-0.43065 0.04195-0.09431 0.21403-0.56106 0.31628-0.8579 0.57055-1.6563 0.86555-3.1517 0.91596-4.6431 0.0035-0.10153 0.0035-0.55491 7e-6 -0.65288-0.02953-0.84354-0.13188-1.5657-0.32462-2.2906-0.19665-0.73954-1.2254-0.76961-1.4424-0.04217-0.0436 0.14614-0.04138 0.26108 0.0087 0.45252 0.549 2.0972 0.27945 4.5523-0.81266 7.4022-0.03497 0.09126-0.0415 0.11019-0.05078 0.14715-0.12486 0.4976 0.28368 0.96887 0.7936 0.91544zm-11.77-1.0259c-0.40777-0.0019-1.0673-0.02587-1.2338-0.04476-1.383-0.15687-1.9942-1.8285-1.0426-2.8515 0.35712-0.38388 0.83158-0.56158 1.4106-0.52829 0.24856 0.0143 0.53622 0.0234 0.83307 0.02637 2.2634 0.02267 4.1217-0.38046 5.5697-1.2082 0.10336-0.05908 0.20173-0.11878 0.32194-0.19536 0.31687-0.20186 0.62227-0.29135 0.97382-0.28535 1.2135 0.02071 2.0135 1.2712 1.5251 2.3839-0.13938 0.31754-0.35424 0.56225-0.67326 0.76679-0.92766 0.59477-1.9555 1.0502-3.0955 1.3715-1.3755 0.38772-2.881 0.57303-4.5891 0.56486zm0.48291-0.96258c1.5235-0.02609 2.9013-0.23012 4.1402-0.6131 0.05837-0.01805 0.07116-0.02212 0.17497-0.05577 0.84495-0.27391 1.6649-0.65966 2.3755-1.1175 0.17807-0.11474 0.27985-0.24187 0.33475-0.41808 0.17537-0.56292-0.34534-1.0958-0.91054-0.93178-0.08349 0.02422-0.13227 0.04829-0.24795 0.12233-1.4622 0.93584-3.3444 1.4519-5.5739 1.5282-0.03244 0.0012-0.07248 0.0025-0.08899 0.0031-0.44485 0.01593-1.1122 0.0069-1.6347-0.02204-0.22043-0.01222-0.37055 0.02619-0.51997 0.13304-0.48178 0.34453-0.38273 1.0886 0.17245 1.2954 0.08336 0.03105 0.14105 0.04077 0.28653 0.04831 0.53049 0.02746 1.0017 0.03626 1.4917 0.02787zm0.41692-4.8583c-0.37136-0.01171-0.72154-0.14136-1.0138-0.37534-1.8111-1.4499-3.2344-3.6541-4.1681-6.455-0.17401-0.52201-0.39884-1.2917-0.43781-1.4987-0.18698-0.99355 0.53877-1.9394 1.5405-2.0076 0.01814-0.00124 0.03615-0.00314 0.04-0.00423 0.0098-0.00278 0.18742 0.00117 0.23196 0.00517 0.67052 0.060105 1.2327 0.49353 1.4578 1.1238 0.01836 0.051409 0.02955 0.089003 0.05696 0.1912 0.73922 2.7569 1.8518 4.7196 3.3943 5.9877 0.29578 0.24316 0.48381 0.52238 0.58171 0.86381 0.31742 1.1071-0.53502 2.2055-1.6835 2.1692zm0.13198-0.96354c0.65643-0.07461 0.89196-0.89528 0.37717-1.3142-1.6996-1.3831-2.9411-3.5439-3.7265-6.4862-0.040139-0.15035-0.063123-0.20696-0.11631-0.28647-0.40512-0.60562-1.3544-0.32216-1.3544 0.40445-6e-6 0.097461 0.0032 0.11631 0.049 0.28695 0.86787 3.2339 2.3015 5.6905 4.2194 7.2298 0.16295 0.13079 0.35404 0.1882 0.55168 0.16573zm16.414-2.7125c-0.37377-0.02497-0.68941-0.15226-0.99681-0.40197-2.2197-1.8031-4.2886-2.747-6.2808-2.8653-0.66791-0.039673-1.2161-0.40592-1.4827-0.99057-0.53327-1.1696 0.36658-2.4743 1.6573-2.403 2.7167 0.15018 5.4258 1.3367 8.2227 3.6012 0.11254 0.091118 0.16054 0.13421 0.21941 0.19697 0.97413 1.0386 0.3287 2.7254-1.0942 2.8599-0.03864 0.0037-0.2036 0.0055-0.24495 0.0027zm0.19796-0.96256c0.50996-0.07274 0.79525-0.60898 0.56675-1.0652-0.05724-0.11428-0.10817-0.17176-0.2639-0.29776-2.5467-2.0606-5.0114-3.1753-7.4345-3.3622-0.30408-0.023453-0.38665-0.020188-0.51044 0.02018-0.5415 0.17658-0.68766 0.87845-0.26142 1.2553 0.13758 0.12162 0.27589 0.17437 0.49091 0.18723 2.1888 0.1309 4.4337 1.1413 6.8037 3.0624 0.06207 0.05031 0.08099 0.06493 0.10421 0.08052 0.1018 0.06836 0.21421 0.10859 0.3417 0.12232 0.02645 0.0029 0.13692 0.0011 0.16297-0.0027zm-14.657-2.2041c-1.1617-0.06839-1.9133-1.2142-1.5073-2.2981 0.93636-2.4999 3.0046-4.825 6.0185-6.7659 0.17753-0.11432 0.338-0.18478 0.53062-0.23296 0.03505-0.00874 0.11833-0.025998 0.12575-0.026017 0.0025-5.8e-6 0.0079-0.00298 0.012-0.00672 0.01384-0.012327 0.27785-0.02139 0.38743-0.013297 1.1808 0.087153 1.9142 1.3058 1.4357 2.3857-0.14231 0.32113-0.3477 0.55268-0.6828 0.76973-2.3773 1.5398-3.9222 3.2275-4.6431 5.072-0.0914 0.23384-0.18957 0.39606-0.34007 0.56189-0.33635 0.37062-0.84761 0.58237-1.3366 0.55359zm0.16833-0.96326c0.2966-0.040045 0.49945-0.20778 0.61816-0.51115 0.79347-2.0278 2.4443-3.8478 4.9972-5.5094 0.1881-0.12243 0.26143-0.19759 0.33027-0.33853 0.26608-0.54473-0.19828-1.1589-0.79593-1.0527-0.11209 0.019921-0.1842 0.051391-0.32194 0.14051-2.8198 1.8244-4.723 3.9532-5.6017 6.2658-0.19967 0.52545 0.22672 1.0793 0.774 1.0055z"/>
</svg>
