<?xml version="1.0" encoding="UTF-8" standalone="no"?>
<!-- Created with Inkscape (http://www.inkscape.org/) -->

<svg
   width="24"
   height="24"
   viewBox="0 0 24 24"
   version="1.1"
   id="svg1"
   inkscape:version="1.3.2 (091e20e, 2023-11-25, custom)"
   sodipodi:docname="robot_with_extensions.svg"
   xmlns:inkscape="http://www.inkscape.org/namespaces/inkscape"
   xmlns:sodipodi="http://sodipodi.sourceforge.net/DTD/sodipodi-0.dtd"
   xmlns="http://www.w3.org/2000/svg"
   xmlns:svg="http://www.w3.org/2000/svg">
  <sodipodi:namedview
     id="namedview1"
     pagecolor="#ffffff"
     bordercolor="#666666"
     borderopacity="1.0"
     inkscape:showpageshadow="2"
     inkscape:pageopacity="0.0"
     inkscape:pagecheckerboard="0"
     inkscape:deskcolor="#d1d1d1"
     inkscape:document-units="px"
     inkscape:zoom="8"
     inkscape:cx="-52.0625"
     inkscape:cy="2.6875"
     inkscape:window-width="3840"
     inkscape:window-height="1537"
     inkscape:window-x="-8"
     inkscape:window-y="-8"
     inkscape:window-maximized="1"
     inkscape:current-layer="layer1" />
  <defs
     id="defs1" />
  <g
     inkscape:label="Layer 1"
     inkscape:groupmode="layer"
     id="layer1">
    <path
       d="m 11.275729,23.995059 c -0.0466,-0.0052 -0.22091,-0.02108 -0.38734,-0.03518 -0.83761,-0.07102 -1.8157003,-0.2757 -2.6638003,-0.55746 -0.99337,-0.33 -2.0568,-0.85274 -2.9284,-1.4395 -1.0958,-0.73769 -2.133,-1.7267 -2.9179,-2.7823 -2.97830002,-4.0056 -3.17620002,-9.4130001 -0.49864,-13.6269999 0.35679,-0.56156 0.87047,-1.2299 1.2841,-1.6706 0.0892,-0.09505 0.20504,-0.22008 0.25743,-0.27784 0.05238,-0.05776 0.2424,-0.23938 0.42225,-0.40359 1.3391,-1.2226 2.7611,-2.0579 4.4435,-2.61020001 1.9327003,-0.63444 4.0413003,-0.76202 6.0392003,-0.36539 2.0143,0.3999 3.8194,1.26580001 5.4239,2.60190001 0.36962,0.30779 1.0918,1.0271 1.4083,1.4028 0.63425,0.75277 1.1109,1.473 1.5542,2.3483 0.67626,1.3353 1.0646,2.6463998 1.2416,4.1920999 0.06671,0.58251 0.0594,1.9845 -0.01355,2.5846 -0.36085,2.9717 -1.7049,5.5833 -3.8955,7.5692 -1.4391,1.3046 -3.2226,2.2537 -5.1295,2.7296 -0.99296,0.2478 -1.6763,0.33244 -2.7683,0.34288 -0.43274,0.0042 -0.82492,0.0033 -0.87152,-0.002 z m 1.8036,-2.5389 c 1.8044,-0.21732 3.4498,-0.90148 4.866,-2.0232 0.40107,-0.31769 1.1639,-1.0808 1.4876,-1.4881 1.3561,-1.7066 2.0832,-3.7948 2.0832,-5.9832 v -0.39593 h -6.1032 l -0.02699,0.07868 c -0.01484,0.04328 -0.08526,0.19307 -0.15648,0.33287 -0.45518,0.89359 -1.2836,1.5814 -2.2295,1.8512 -0.66429,0.18945 -1.3948,0.19028 -2.0434,0.0023 -1.0497003,-0.30419 -1.9323003,-1.0917 -2.3553003,-2.1017 l -0.06845,-0.16341 h -6.0159 l -0.01721,0.17137 c -0.02057,0.20481 0.0026,0.77456 0.05079,1.2499 0.13047,1.2866 0.54474,2.5818 1.1908,3.7231 0.0603,0.10651 0.22142,0.36253 0.35805,0.56891 1.5419,2.3291 4.0632,3.8657 6.8494003,4.1743 0.51174,0.05666 0.53503,0.05764 1.1983,0.04883 0.35506,-0.0047 0.75103,-0.02429 0.93204,-0.04609 z m -0.73157,-8.9338 c 0.71565,-0.1248 1.3101,-0.56708 1.6271,-1.2106 0.17846,-0.36228 0.21736,-0.53994 0.21736,-0.99264 0,-0.3291101 -0.0082,-0.4156901 -0.05429,-0.5759001 -0.1882,-0.65366 -0.62305,-1.1666 -1.2305,-1.4516 -1.095,-0.5136898 -2.4068,-0.04253 -2.9383003,1.0554 -0.137,0.28296 -0.18935,0.46815 -0.21565,0.7628901 -0.03738,0.41886 0.02777,0.78742 0.20603,1.1655 0.3242303,0.68766 0.9466803,1.1441 1.7278003,1.267 0.14627,0.02302 0.4702,0.01324 0.66045,-0.01995 z M 8.4919587,9.2115589 c 0.07934,-0.27474 0.35375,-0.80932 0.54858,-1.0687 0.56521,-0.7524198 1.3949003,-1.2636998 2.3042003,-1.4199998 0.33569,-0.0577 0.88574,-0.06298 1.2027,-0.01153 0.79729,0.12931 1.4938,0.49626 2.0623,1.0865 0.38396,0.3986398 0.68007,0.8901098 0.8445,1.4016998 l 0.06809,0.21183 h 5.6316 l -0.01606,-0.06657 c -0.0089,-0.03661 -0.06992,-0.22338 -0.13573,-0.41503 -0.38829,-1.1305998 -0.95495,-2.1323998 -1.7336,-3.0650998 -0.28272,-0.33863 -0.92631,-0.9668 -1.2869,-1.2561 -0.87974,-0.70577 -1.8343,-1.2312 -2.9045,-1.5989 -1.0022,-0.34431 -1.9727,-0.50441 -3.063,-0.50533 -0.95648,-8.08e-4 -1.7867,0.11516 -2.6669003,0.37253 -2.6501,0.77486 -4.8616,2.6858 -5.9872,5.1733998 -0.15714,0.3473 -0.35036,0.85231 -0.44433,1.1613 l -0.06074,0.19972 h 5.5793 z"
       id="path1" />
    <path
       id="path8"
       style="fill:#000000;fill-opacity:1;stroke:none;stroke-width:1;stroke-dasharray:none;stroke-opacity:1;paint-order:markers fill stroke"
       d="m 33.703355,4.1295207 a 4,4 0 0 0 -4,4 4,4 0 0 0 4,4.0000003 4,4 0 0 0 4,-4.0000003 4,4 0 0 0 -4,-4 z m 0,1 a 3,3 0 0 1 3,3 3,3 0 0 1 -3,3.0000003 3,3 0 0 1 -3,-3.0000003 3,3 0 0 1 3,-3 z" />
    <circle
       style="fill:#000000;fill-opacity:1;stroke:none;stroke-width:1;stroke-dasharray:none;stroke-opacity:1;paint-order:markers fill stroke"
       id="path13"
       cx="52.71875"
       cy="-27.75"
       r="12" />
    <path
       id="path8-4-7"
       style="fill:#000000;fill-opacity:1;stroke:none;stroke-width:1;stroke-dasharray:none;stroke-opacity:1;paint-order:markers fill stroke"
       d="m 36.646484,16 a 12,12 0 0 1 -0.505859,0.927735 3,3 0 0 1 0.6875,1.910156 3,3 0 0 1 -3,3 A 3,3 0 0 1 31.925781,21.146485 12,12 0 0 1 31,21.652344 a 4,4 0 0 0 2.828125,1.185547 4,4 0 0 0 4,-4 A 4,4 0 0 0 36.646484,16 Z" />
    <path
       id="path8-2"
       style="fill:#000000;fill-opacity:1;stroke:none;stroke-width:1;stroke-dasharray:none;stroke-opacity:1;paint-order:markers fill stroke"
       d="M 21.830078 18.84375 A 12 12 0 0 1 20.998047 19.927734 A 3 3 0 0 1 21 20 A 3 3 0 0 1 18 23 A 3 3 0 0 1 17.091797 22.857422 A 12 12 0 0 1 15.818359 23.351562 A 4 4 0 0 0 18 24 A 4 4 0 0 0 22 20 A 4 4 0 0 0 21.830078 18.84375 z " />
    <path
       id="path8-2-8"
       style="fill:#000000;fill-opacity:1;stroke:none;stroke-width:1;stroke-dasharray:none;stroke-opacity:1;paint-order:markers fill stroke"
       d="m 41.011719,22 a 12,12 0 0 1 -0.832031,1.083984 3,3 0 0 1 0.002,0.07227 3,3 0 0 1 -3,3 A 3,3 0 0 1 36.273438,26.013672 12,12 0 0 1 35,26.507812 a 4,4 0 0 0 2.181641,0.648438 4,4 0 0 0 4,-4 A 4,4 0 0 0 41.011719,22 Z" />
    <path
       d="m -12.989,-1.4999407 v 0.52500001 h -1.05 v 1.04999982 h 1.05 v 0.52500002 l 1.05,-1.04999998 z"
       id="path1-1"
       style="stroke-width:0.999996" />
    <path
       id="path14-5"
       style="opacity:0.502427;fill:#ff9dfb;fill-opacity:1;stroke:none;stroke-width:1;stroke-dasharray:none;stroke-opacity:1;paint-order:markers fill stroke"
       d="M -38.25,-15 A 13.75,13.75 0 0 0 -52,-1.25 13.75,13.75 0 0 0 -38.25,12.5 13.75,13.75 0 0 0 -24.5,-1.25 13.75,13.75 0 0 0 -38.25,-15 Z m 0,0.75 a 12.999999,12.999999 0 0 1 13,13 12.999999,12.999999 0 0 1 -13,13 12.999999,12.999999 0 0 1 -13,-13 12.999999,12.999999 0 0 1 13,-13 z" />
    <path
       d="m -3.871875,-5.296875 v 0.525 1.0499998 0.525 l 1.05,-1.0499999 z"
       id="path1-1-4"
       style="stroke-width:0.999996"
       sodipodi:nodetypes="cccccc" />
    <path
       id="path14-6"
       style="fill:#000000;fill-opacity:1;stroke:none;stroke-width:1;stroke-dasharray:none;stroke-opacity:1;paint-order:markers fill stroke"
       d="M 11.810547,-10 A 13.75,13.75 0 0 0 9,-7.1894531 V -6.65625 H 9.5332031 A 12.999999,12.999999 0 0 1 12.34375,-9.4667969 V -10 Z" />
    <path
       d="M 10.484924,-6.6568941 10.113693,-7.0281252 9.371231,-7.7705872 9,-8.1418182 v 1.4849242 z"
       id="path1-1-4-2-8"
       style="opacity:0.557039;stroke-width:0.999996"
       sodipodi:nodetypes="cccccc" />
    <path
       d="m 10.858,-9.9999999 0.371231,0.371231 0.742462,0.742462 0.371231,0.3712311 0,-1.4849242 z"
       id="path1-1-4-29-3"
       style="opacity:0.475728;stroke-width:0.999996"
       sodipodi:nodetypes="cccccc" />
    <path
       id="path14-3"
       style="fill:#000000;fill-opacity:1;stroke:none;stroke-width:1;stroke-dasharray:none;stroke-opacity:1;paint-order:markers fill stroke"
       d="M 7.9105469,-15.9 A 13.75,13.75 0 0 0 5.1,-13.089453 v 0.533203 H 5.6332031 A 12.999999,12.999999 0 0 1 8.44375,-15.366797 V -15.9 Z" />
    <path
       d="M 6.4849241,-12.557076 6.113693,-12.928307 5.3712311,-13.670769 5,-14.042 v 1.484924 z"
       id="path1-1-4-2-7"
       style="stroke-width:0.999996"
       sodipodi:nodetypes="cccccc" />
    <path
       d="m 6.958,-16 0.3712311,0.371231 0.7424619,0.742462 0.371231,0.371231 2e-7,-1.484924 z"
       id="path1-1-4-29-7"
       style="stroke-width:0.999996"
       sodipodi:nodetypes="cccccc" />
    <path
       id="path14-5-8"
       style="opacity:1;fill:#000000;fill-opacity:1;stroke:none;stroke-width:1;stroke-dasharray:none;stroke-opacity:1;paint-order:markers fill stroke"
       d="M 4.6269531 0.40039062 A 13.75 13.75 0 0 0 0.40039062 4.6269531 L 0.40039062 5.09375 L 1.0234375 5.09375 A 12.999999 12.999999 0 0 1 5.09375 1.0253906 L 5.09375 0.40039062 L 4.6269531 0.40039062 z " />
    <path
       d="M 3.9366289,0.07950854 4.2395709,0.50828728 4.8454547,1.3658443 5.1483968,1.7946232 5.4000702,0.33118186 Z"
       id="path1-1-4-0"
       style="stroke-width:0.999996"
       sodipodi:nodetypes="cccccc" />
    <path
       d="M 1.7936061,5.1549238 1.367165,4.8486998 0.51428337,4.2362521 0.08784235,3.9300282 0.32827636,5.3953579 Z"
       id="path1-1-4-0-2"
       style="stroke-width:0.999996"
       sodipodi:nodetypes="cccccc" />
    <path
       d="m 63.275747,8.995083 c -0.0466,-0.0052 -0.22091,-0.02108 -0.38734,-0.03518 -0.83761,-0.07102 -1.8157,-0.2757 -2.6638,-0.55746 -0.99337,-0.33 -2.0568,-0.85274 -2.9284,-1.4395 -1.0958,-0.73769 -2.133,-1.7267 -2.9179,-2.7823 -2.9783,-4.0056 -3.1762,-9.4130001 -0.49864,-13.6269999 0.35679,-0.5615601 0.87047,-1.2299001 1.2841,-1.6706001 0.0892,-0.09505 0.20504,-0.22008 0.25743,-0.27784 0.05238,-0.05776 0.2424,-0.23938 0.42225,-0.40359 1.3391,-1.2226 2.7611,-2.0579 4.4435,-2.6102 1.9327,-0.63444 4.0413,-0.76202 6.0392,-0.36539 2.0143,0.3999 3.8194,1.2658 5.4239,2.6019 0.36962,0.30779 1.0918,1.0271 1.4083,1.4028 0.63425,0.75277 1.1109,1.4730001 1.5542,2.3483001 0.67626,1.3353 1.0646,2.6463998 1.2416,4.1920999 0.06671,0.58251 0.0594,1.9845 -0.01355,2.5846 -0.36085,2.9717 -1.7049,5.5833 -3.8955,7.5692 -1.4391,1.3046 -3.2226,2.2537 -5.1295,2.7296 -0.99296,0.2478 -1.6763,0.33244 -2.7683,0.34288 -0.43274,0.0042 -0.82492,0.0033 -0.87152,-0.002 z m 1.8036,-2.5389 c 1.8044,-0.21732 3.4498,-0.90148 4.866,-2.0232 0.40107,-0.31769 1.1639,-1.0808 1.4876,-1.4881 1.3561,-1.7066 2.0832,-3.7948 2.0832,-5.9832 v -0.39593 h -6.1032 l -0.02699,0.07868 c -0.01484,0.04328 -0.08526,0.19307 -0.15648,0.33287 -0.45518,0.89359 -1.2836,1.5814 -2.2295,1.8512 -0.66429,0.18945 -1.3948,0.19028 -2.0434,0.0023 -1.0497,-0.30419 -1.9323,-1.0917 -2.3553,-2.1017 l -0.06845,-0.16341 h -6.0159 l -0.01721,0.17137 c -0.02057,0.20481 0.0026,0.77456 0.05079,1.2499 0.13047,1.2866 0.54474,2.5818 1.1908,3.7231 0.0603,0.10651 0.22142,0.36253 0.35805,0.56891 1.5419,2.3291 4.0632,3.8657 6.8494,4.1743 0.51174,0.05666 0.53503,0.05764 1.1983,0.04883 0.35506,-0.0047 0.75103,-0.02429 0.93204,-0.04609 z m -0.73157,-8.9338 c 0.71565,-0.1248 1.3101,-0.56708 1.6271,-1.2106 0.17846,-0.36228 0.21736,-0.53994 0.21736,-0.99264 0,-0.3291101 -0.0082,-0.4156901 -0.05429,-0.5759001 -0.1882,-0.65366 -0.62305,-1.1666 -1.2305,-1.4516 -1.095,-0.5136898 -2.4068,-0.04253 -2.9383,1.0554 -0.137,0.28296 -0.18935,0.46815 -0.21565,0.7628901 -0.03738,0.41886 0.02777,0.78742 0.20603,1.1655 0.32423,0.68766 0.94668,1.1441 1.7278,1.267 0.14627,0.02302 0.4702,0.01324 0.66045,-0.01995 z m -3.8558,-3.3108001 c 0.07934,-0.27474 0.35375,-0.80932 0.54858,-1.0687 0.56521,-0.7524198 1.3949,-1.2636998 2.3042,-1.4199998 0.33569,-0.0577 0.88574,-0.06298 1.2027,-0.01153 0.79729,0.12931 1.4938,0.49626 2.0623,1.0865 0.38396,0.3986398 0.68007,0.8901098 0.8445,1.4016998 l 0.06809,0.21183 h 5.6316 l -0.01606,-0.06657 c -0.0089,-0.03661 -0.06992,-0.22338 -0.13573,-0.41503 -0.38829,-1.1305998 -0.95495,-2.1323998 -1.7336,-3.0650998 -0.28272,-0.33863 -0.92631,-0.9668001 -1.2869,-1.2561001 -0.87974,-0.70577 -1.8343,-1.2312 -2.9045,-1.5989 -1.0022,-0.34431 -1.9727,-0.50441 -3.063,-0.50533 -0.95648,-8.08e-4 -1.7867,0.11516 -2.6669,0.37253 -2.6501,0.77486 -4.8616,2.6858001 -5.9872,5.1733999 -0.15714,0.3473 -0.35036,0.85231 -0.44433,1.1613 l -0.06074,0.19972 h 5.5793 z"
       id="path1-9" />
  </g>
</svg>
