<?xml version="1.0" encoding="UTF-8" standalone="no"?>
<svg
   viewBox="0 0 24 24"
   version="1.1"
   id="svg1779"
   sodipodi:docname="add_no_go_area.svg"
   xml:space="preserve"
   inkscape:version="1.2.2 (732a01da63, 2022-12-09)"
   xmlns:inkscape="http://www.inkscape.org/namespaces/inkscape"
   xmlns:sodipodi="http://sodipodi.sourceforge.net/DTD/sodipodi-0.dtd"
   xmlns="http://www.w3.org/2000/svg"
   xmlns:svg="http://www.w3.org/2000/svg"><defs
     id="defs1783"><path
       id="a"
       d="M23.809 456.512h.051v-.047h-.051v.047z" /><path
       id="b"
       d="M23.809 456.465v.047l.05-.047h-.05zm.05 0-.05.047v-.047h.05z" /><path
       id="c"
       d="M23.859 456.465h-.05.023v.047l.027-.047z" /><path
       id="d"
       d="M23.809 456.465v.047-.047l.05.047-.05-.047z" /><path
       id="e"
       d="M23.859 456.512v-.047h-.05l.05.047z" /></defs><sodipodi:namedview
     id="namedview1781"
     pagecolor="#ffffff"
     bordercolor="#666666"
     borderopacity="1.0"
     inkscape:showpageshadow="2"
     inkscape:pageopacity="0.0"
     inkscape:pagecheckerboard="0"
     inkscape:deskcolor="#d1d1d1"
     showgrid="false"
     inkscape:zoom="8"
     inkscape:cx="-97.5625"
     inkscape:cy="1"
     inkscape:window-width="3840"
     inkscape:window-height="1537"
     inkscape:window-x="-8"
     inkscape:window-y="-8"
     inkscape:window-maximized="1"
     inkscape:current-layer="svg1779" /><path
     id="path1777"
     style="display:inline"
     d="M 12 2 C 6.4771635 2 2 6.4771635 2 12 C 2 17.522835 6.4771635 22 12 22 C 12.592362 22 13.17226 21.946433 13.736328 21.847656 A 6 6 0 0 1 13 19 A 6 6 0 0 1 16.623047 13.5 L 3.3457031 13.5 L 3.3457031 10.5 L 20.650391 10.503906 L 20.650391 13.232422 A 6 6 0 0 1 21.849609 13.720703 C 21.946622 13.161509 22 12.586934 22 12 C 22 6.4771635 17.522835 2 12 2 z M 18 15 L 18 18 L 15 18 L 15 20 L 18 20 L 18 23 L 20 23 L 20 20 L 23 20 L 23 18 L 20 18 L 20 15 L 18 15 z " /></svg>
