<?xml version="1.0" encoding="UTF-8" standalone="no"?>
<svg
   viewBox="0 0 24 24"
   version="1.1"
   id="svg1631"
   sodipodi:docname="add_virtual_wall.svg"
   inkscape:version="1.2.2 (732a01da63, 2022-12-09)"
   xmlns:inkscape="http://www.inkscape.org/namespaces/inkscape"
   xmlns:sodipodi="http://sodipodi.sourceforge.net/DTD/sodipodi-0.dtd"
   xmlns="http://www.w3.org/2000/svg"
   xmlns:svg="http://www.w3.org/2000/svg">
  <defs
     id="defs1635" />
  <sodipodi:namedview
     id="namedview1633"
     pagecolor="#ffffff"
     bordercolor="#666666"
     borderopacity="1.0"
     inkscape:showpageshadow="2"
     inkscape:pageopacity="0.0"
     inkscape:pagecheckerboard="0"
     inkscape:deskcolor="#d1d1d1"
     showgrid="false"
     inkscape:zoom="42.791667"
     inkscape:cx="4.6738072"
     inkscape:cy="10.726388"
     inkscape:window-width="3840"
     inkscape:window-height="1537"
     inkscape:window-x="-8"
     inkscape:window-y="-8"
     inkscape:window-maximized="1"
     inkscape:current-layer="svg1631" />
  <path
     id="path1629"
     d="M 3 4 L 3 9 L 11 9 L 11 4 L 3 4 z M 12 4 L 12 9 L 21 9 L 21 4 L 12 4 z M 2 10 L 2 15 L 8 15 L 8 10 L 2 10 z M 9 10 L 9 15 L 14.535156 15 A 6 6 0 0 1 15 14.535156 L 15 10 L 9 10 z M 16 10 L 16 13.820312 A 6 6 0 0 1 19 13 A 6 6 0 0 1 22 13.806641 L 22 10 L 16 10 z M 18 15 L 18 18 L 15 18 L 15 20 L 18 20 L 18 23 L 20 23 L 20 20 L 23 20 L 23 18 L 20 18 L 20 15 L 18 15 z M 3 16 L 3 21 L 12 21 L 12 16 L 3 16 z M 13 16 L 13 19 A 6 6 0 0 1 13.820312 16 L 13 16 z M 13 19 L 13 21 L 13.359375 21 A 6 6 0 0 1 13 19 z " />
</svg>
