<?xml version="1.0" encoding="UTF-8" standalone="no"?>
<svg
   viewBox="0 0 24 24"
   version="1.1"
   id="svg4"
   sodipodi:docname="add_cutting_line.svg"
   inkscape:version="1.2.2 (732a01da63, 2022-12-09)"
   xmlns:inkscape="http://www.inkscape.org/namespaces/inkscape"
   xmlns:sodipodi="http://sodipodi.sourceforge.net/DTD/sodipodi-0.dtd"
   xmlns="http://www.w3.org/2000/svg"
   xmlns:svg="http://www.w3.org/2000/svg">
  <defs
     id="defs8" />
  <sodipodi:namedview
     id="namedview6"
     pagecolor="#ffffff"
     bordercolor="#666666"
     borderopacity="1.0"
     inkscape:showpageshadow="2"
     inkscape:pageopacity="0.0"
     inkscape:pagecheckerboard="0"
     inkscape:deskcolor="#d1d1d1"
     showgrid="false"
     inkscape:zoom="10.697917"
     inkscape:cx="25.70594"
     inkscape:cy="37.110029"
     inkscape:window-width="3840"
     inkscape:window-height="1537"
     inkscape:window-x="-8"
     inkscape:window-y="-8"
     inkscape:window-maximized="1"
     inkscape:current-layer="svg4" />
  <path
     id="path2"
     d="M 6 2 A 4 4 0 0 0 2 6 A 4 4 0 0 0 6 10 C 6.5899988 10 7.140626 9.8706246 7.640625 9.640625 L 10 12 L 7.640625 14.359375 C 7.140626 14.129375 6.5899988 14 6 14 A 4 4 0 0 0 2 18 A 4 4 0 0 0 6 22 A 4 4 0 0 0 10 18 C 10 17.410002 9.8706246 16.859375 9.640625 16.359375 L 12 14 L 13.882812 15.882812 A 6 6 0 0 1 15.882812 13.882812 L 9.640625 7.640625 C 9.8706246 7.140626 10 6.5899988 10 6 A 4 4 0 0 0 6 2 z M 19 3 L 13 9 L 15 11 L 22 4 L 22 3 L 19 3 z M 6 4 A 2 2 0 0 1 8 6 C 8 7.1099978 7.0999978 8 6 8 A 2 2 0 0 1 4 6 C 4 4.8900022 4.9000022 4 6 4 z M 12 11.5 A 0.5 0.5 0 0 1 12.5 12 A 0.5 0.5 0 0 1 12 12.5 A 0.5 0.5 0 0 1 11.5 12 A 0.5 0.5 0 0 1 12 11.5 z M 18 15 L 18 18 L 15 18 L 15 20 L 18 20 L 18 23 L 20 23 L 20 20 L 23 20 L 23 18 L 20 18 L 20 15 L 18 15 z M 6 16 A 2 2 0 0 1 8 18 C 8 19.109998 7.0999978 20 6 20 A 2 2 0 0 1 4 18 C 4 16.890002 4.9000022 16 6 16 z " />
</svg>
