<svg width="24" height="24" version="1.1" xmlns="http://www.w3.org/2000/svg">
 <path d="m12 3.9917-0.54498 0.65175s-1.2654 1.5147-2.5335 3.4516c-1.2682 1.9368-2.6015 4.2352-2.6015 6.2333 0 3.1286 2.5514 5.68 5.68 5.68s5.68-2.5514 5.68-5.68c0-1.9981-1.3333-4.2965-2.6015-6.2333-1.2682-1.9369-2.5335-3.4516-2.5335-3.4516zm0 2.3047c0.37587 0.46594 0.94674 1.1336 1.8915 2.5765 1.2168 1.8585 2.3685 4.1747 2.3685 5.4554 0 2.3611-1.8989 4.26-4.26 4.26s-4.26-1.8989-4.26-4.26c0-1.2807 1.1517-3.5969 2.3685-5.4554 0.94474-1.4429 1.5156-2.1106 1.8915-2.5765z"/>
</svg>
