<svg width="24" height="24" version="1.1" viewBox="0 0 24 24" xmlns="http://www.w3.org/2000/svg">
 <path d="m12.522 3.1191e-5c-4.9475 0-8.9746 4.0271-8.9746 8.9746 0 1.9077 0.59769 3.6787 1.6172 5.1348a2.9918 2.9918 0 0 0-0.12305 0.84961 2.9918 2.9918 0 0 0 2.9922 2.9922 2.9918 2.9918 0 0 0 1.6133-0.47266c0.90303 0.30633 1.87 0.47266 2.875 0.47266 1.3865 0 2.7013-0.3166 3.875-0.88086a2.9918 2.9918 0 0 0 2.1094 0.88086 2.9918 2.9918 0 0 0 2.9902-2.9922 2.9918 2.9918 0 0 0-0.87695-2.1172c0.56219-1.1719 0.87695-2.4834 0.87695-3.8672 0-4.9475-4.0271-8.9746-8.9746-8.9746zm9.9785 0v24h1.5v-24zm-9.9785 1.5586c3.3586 0 6.1861 2.2155 7.1035 5.2695h-4.3125c-0.0073-0.1289-0.01918-0.25278-0.03711-0.375-0.05427-0.36992-0.19327-0.75184-0.47852-1.0371-0.28525-0.28525-0.66718-0.42425-1.0371-0.47852-0.36992-0.05427-0.75914-0.050781-1.2383-0.050781s-0.86834-0.00349-1.2383 0.050781c-0.36992 0.05427-0.75184 0.19327-1.0371 0.47852-0.28525 0.28525-0.42425 0.66718-0.47852 1.0371-0.017949 0.12222-0.029779 0.2461-0.037109 0.375h-4.3125c0.91737-3.0541 3.745-5.2695 7.1035-5.2695zm0 4.5625c0.47914 0 0.83563 0.00443 1.0586 0.037109 0.223 0.03271 0.28301 0.068163 0.3457 0.13086 0.06268 0.06269 0.09619 0.11879 0.12891 0.3418 0.03272 0.223 0.03711 0.58142 0.03711 1.0605 0 0.47914-0.0043 0.83563-0.03711 1.0586-0.03272 0.223-0.06621 0.28106-0.12891 0.34375-0.06268 0.06269-0.1227 0.098143-0.3457 0.13086-0.223 0.03272-0.57947 0.037109-1.0586 0.037109-0.47913 0-0.83563-0.00439-1.0586-0.037109-0.223-0.03272-0.28106-0.068163-0.34375-0.13086-0.06268-0.06269-0.09814-0.12075-0.13086-0.34375-0.03269-0.223-0.03711-0.57947-0.03711-1.0586 0-0.47914 0.0044-0.83758 0.03711-1.0605 0.03269-0.223 0.06816-0.2791 0.13086-0.3418 0.06268-0.06269 0.12075-0.098143 0.34375-0.13086 0.223-0.03272 0.57947-0.037109 1.0586-0.037109zm-7.3984 2.3398h4.6016c0.0067 0.16234 0.020749 0.31563 0.042968 0.4668 0.0543 0.36992 0.19326 0.75184 0.47852 1.0371 0.28525 0.28525 0.66718 0.4262 1.0371 0.48047 0.36991 0.05427 0.75914 0.04883 1.2383 0.04883 0.47914 0 0.86834 0.0054 1.2383-0.04883 0.36992-0.05427 0.75184-0.19522 1.0371-0.48047 0.28525-0.28525 0.42425-0.66718 0.47852-1.0371 0.02218-0.15118 0.03614-0.30445 0.04297-0.4668h4.6016c0.01155 0.16982 0.01758 0.34086 0.01758 0.51367 0 4.1053-3.3107 7.416-7.416 7.416-4.1053 0-7.416-3.3107-7.416-7.416 0-0.17282 0.00595-0.34386 0.017578-0.51367zm15.121 5.0801a2.2439 2.2439 0 0 1 0.50586 1.418 2.2439 2.2439 0 0 1-2.2441 2.2441 2.2439 2.2439 0 0 1-1.4121-0.50781c1.2952-0.77031 2.381-1.8585 3.1504-3.1543zm-14.453 1.3652c0.80778 0.91546 1.7978 1.6648 2.9141 2.1914a2.2439 2.2439 0 0 1-0.67187 0.10547 2.2439 2.2439 0 0 1-2.2441-2.2441 2.2439 2.2439 0 0 1 0.00195-0.05273zm10.926 3.3301v1.8809h-5v2h5v1.8828l4.7793-2.8926z"/>
</svg>
