<svg width="24" height="24" version="1.1" viewBox="0 0 24 24" xmlns="http://www.w3.org/2000/svg">
 <path d="m12.557 0c-0.95394-0.0027638-1.909 0.14678-2.8125 0.44336-1.2584 0.41308-2.3207 1.0367-3.3223 1.9512-0.13452 0.12282-0.27723 0.25953-0.31641 0.30273-0.039186 0.043201-0.12664 0.13594-0.19336 0.20703-0.30938 0.32961-0.69401 0.82808-0.96094 1.248-1.9528 3.0731-1.8579 6.996 0.21289 9.9668a2.9918 2.9917 0 0 0-0.12109 0.83984 2.9918 2.9917 0 0 0 2.9902 2.9922 2.9918 2.9917 0 0 0 1.6055-0.46875c0.019749 0.0068 0.038918 0.014934 0.058594 0.021484 0.63434 0.21074 1.3657 0.3629 1.9922 0.41602 0.12448 0.01057 0.25616 0.021501 0.29102 0.02539v0.001954c0.03485 0.0039 0.32672 0.005053 0.65039 0.001953 0.81677-0.0077 1.3296-0.07247 2.0723-0.25781 0.58679-0.14644 1.1552-0.35511 1.6992-0.61523a2.9918 2.9917 0 0 0 2.1035 0.875 2.9918 2.9917 0 0 0 2.9902-2.9922 2.9918 2.9917 0 0 0-0.86914-2.1074c0.42193-0.88548 0.70264-1.8459 0.82617-2.8633 0.05456-0.44883 0.059636-1.496 0.009766-1.9316-0.1324-1.1561-0.4219-2.138-0.92774-3.1367-0.33157-0.65467-0.68965-1.1928-1.1641-1.7559-0.23673-0.281-0.77629-0.81869-1.0527-1.0488-1.2001-0.99931-2.55-1.6462-4.0566-1.9453-0.56038-0.11125-1.1327-0.16827-1.7051-0.16992zm9.9434 0v24h1.5v-24h-1.5zm-9.9688 1.873c0.8155 6.882e-4 1.5414 0.12139 2.291 0.37891 0.80046 0.27502 1.5159 0.66746 2.1738 1.1953 0.26971 0.21638 0.74941 0.68612 0.96094 0.93945 0.5824 0.6976 1.0064 1.4474 1.2969 2.293 0.04922 0.14334 0.096853 0.28317 0.10352 0.31055l0.011719 0.048828h-4.2129l-0.050781-0.1582c-0.12298-0.38264-0.34563-0.7507-0.63281-1.0488-0.42521-0.44146-0.94467-0.71584-1.541-0.8125-0.23707-0.03848-0.64731-0.033394-0.89844 0.0097657-0.68012 0.1169-1.3019 0.49782-1.7246 1.0605-0.14572 0.194-0.35081 0.59328-0.41016 0.79883l-0.044922 0.15039h-4.1719l0.044922-0.15039c0.070285-0.2311 0.2145-0.60737 0.33203-0.86719 0.8419-1.8606 2.4964-3.2896 4.4785-3.8691 0.65835-0.1925 1.2787-0.2799 1.9941-0.2793zm0.035156 4.1758c0.21337 0.00816 0.43001 0.056286 0.63477 0.15234 0.45435 0.21316 0.77916 0.59904 0.91992 1.0879 0.03447 0.11983 0.039062 0.18158 0.039062 0.42773 0 0.33859-0.02862 0.47318-0.16211 0.74414-0.2371 0.48131-0.68145 0.81096-1.2168 0.9043-0.1423 0.024817-0.38474 0.032823-0.49414 0.015625-0.58425-0.091922-1.0505-0.43291-1.293-0.94727-0.13333-0.28278-0.1803-0.5598-0.15234-0.87305 0.019675-0.22045 0.057686-0.35672 0.16016-0.56836 0.29815-0.61589 0.92435-0.96789 1.5645-0.94336zm-7.1367 2.6016h4.498l0.052734 0.12109c0.31639 0.75541 0.97659 1.3447 1.7617 1.5723 0.48513 0.1406 1.0305 0.13978 1.5273-0.001953 0.70749-0.20179 1.3255-0.71636 1.666-1.3848 0.05328-0.10456 0.10804-0.21568 0.11914-0.24805l0.019531-0.058594h4.5645v0.29492c0 1.6368-0.54238 3.2001-1.5566 4.4766-0.24212 0.30463-0.81328 0.87566-1.1133 1.1133-1.0593 0.83896-2.2891 1.3511-3.6387 1.5137l-0.001953-0.001953c-0.13539 0.01631-0.43169 0.031646-0.69727 0.035156-0.4961 0.0065-0.51172 0.005211-0.89453-0.037109-2.0839-0.23073-3.9698-1.3791-5.123-3.1211-0.10225-0.15441-0.22248-0.34612-0.26758-0.42578-0.48323-0.85362-0.79497-1.8229-0.89258-2.7852-0.036044-0.35552-0.052495-0.78237-0.037109-0.93555l0.013672-0.12695zm14.822 4.9043a2.2439 2.2438 0 0 1 0.49609 1.4043 2.2439 2.2438 0 0 1-2.2422 2.2441 2.2439 2.2438 0 0 1-1.4004-0.50195c0.5126-0.30322 0.99529-0.65344 1.4336-1.0508 0.68514-0.6211 1.2566-1.3255 1.7129-2.0957zm-14.461 1.3633c0.50597 0.57051 1.099 1.0938 1.7168 1.5098 0.36476 0.24555 0.77511 0.47316 1.1953 0.67188a2.2439 2.2438 0 0 1-0.66992 0.10352 2.2439 2.2438 0 0 1-2.2441-2.2441 2.2439 2.2438 0 0 1 0.0019531-0.041015zm10.926 3.3184v1.8809h-5v2h5v1.8828l4.7793-2.8926-4.7793-2.8711z"/>
</svg>
