<svg width="24" height="24" version="1.1" viewBox="0 0 24 24" xmlns="http://www.w3.org/2000/svg">
 <path d="m12.047 0c-1.2754-0.0036952-2.5518 0.19527-3.7598 0.5918-1.6824 0.5523-3.1043 1.3868-4.4434 2.6094-0.17985 0.16421-0.3695 0.34654-0.42188 0.4043-0.05239 0.05776-0.16861 0.18229-0.25781 0.27734-0.41363 0.4407-0.92829 1.1084-1.2852 1.6699-2.6108 4.1088-2.4854 9.3522 0.2832 13.324a4 4 0 0 0-0.16211 1.123 4 4 0 0 0 4 4 4 4 0 0 0 2.1445-0.62695c0.026407 0.00901 0.053764 0.020554 0.080078 0.029297 0.8481 0.28176 1.8265 0.48562 2.6641 0.55664 0.16643 0.0141 0.34012 0.029957 0.38672 0.035157v0.001953c0.0466 0.0053 0.43835 0.006153 0.87109 0.001953 1.092-0.01044 1.7766-0.09595 2.7695-0.34375 0.78452-0.19579 1.5461-0.47643 2.2734-0.82422a4 4 0 0 0 2.8105 1.1699 4 4 0 0 0 4-4 4 4 0 0 0-1.1621-2.8164c0.56411-1.1839 0.93836-2.4678 1.1035-3.8281 0.07295-0.6001 0.080382-2.0015 0.013672-2.584-0.177-1.5457-0.56591-2.8581-1.2422-4.1934-0.4433-0.8753-0.92042-1.5949-1.5547-2.3477-0.3165-0.3757-1.0386-1.0946-1.4082-1.4023-1.6045-1.3361-3.4095-2.2017-5.4238-2.6016-0.74921-0.14874-1.5141-0.22435-2.2793-0.22656zm-8.1133 0.080078 0.30273 0.42773 0.074219 0.10352a13.75 13.75 0 0 0-3.6992 3.6973l-0.099609-0.072266-0.42773-0.30664 0.24219 1.4648 1.4648-0.24023-0.42773-0.30664-0.11914-0.085937a13 13 0 0 1 3.5156-3.5137l0.082031 0.11719 0.30273 0.42969 0.25195-1.4629-1.4629-0.25195zm8.0801 2.4238c1.0903 9.2e-4 2.0603 0.16155 3.0625 0.50586 1.0702 0.3677 2.0267 0.89386 2.9062 1.5996 0.36059 0.2893 1.0024 0.91715 1.2852 1.2559 0.77865 0.9327 1.3461 1.9339 1.7344 3.0645 0.06581 0.19165 0.12782 0.37941 0.13672 0.41602l0.015625 0.066406h-5.6328l-0.066406-0.21289c-0.16443-0.51159-0.46174-1.0037-0.8457-1.4023-0.5685-0.59024-1.2652-0.95671-2.0625-1.0859-0.31696-0.05145-0.86542-0.045981-1.2012 0.011719-0.9093 0.1563-1.7395 0.66754-2.3047 1.4199-0.19483 0.25938-0.46949 0.79354-0.54883 1.0684l-0.058594 0.20117h-5.5781l0.060547-0.20117c0.09397-0.30899 0.28622-0.81278 0.44336-1.1602 1.1256-2.4876 3.3382-4.399 5.9883-5.1738 0.8802-0.25737 1.7095-0.37385 2.666-0.37305zm0.046875 5.582c0.28527 0.010911 0.57391 0.076652 0.84766 0.20508 0.60745 0.285 1.0423 0.79953 1.2305 1.4531 0.04609 0.16021 0.052734 0.24511 0.052734 0.57422 0 0.4527-0.038331 0.63186-0.2168 0.99414-0.317 0.64352-0.9112 1.0842-1.627 1.209-0.19025 0.03319-0.51389 0.044505-0.66016 0.021485-0.78112-0.1229-1.4043-0.57988-1.7285-1.2676-0.17826-0.37808-0.24246-0.7472-0.20508-1.166 0.0263-0.29474 0.077852-0.47876 0.21484-0.76172 0.39862-0.82345 1.236-1.2945 2.0918-1.2617zm-9.543 3.4805h6.0156l0.068359 0.16211c0.423 1.01 1.3058 1.7974 2.3555 2.1016 0.6486 0.18798 1.3787 0.1875 2.043-0.001953 0.9459-0.2698 1.7733-0.95789 2.2285-1.8516 0.07122-0.1398 0.14336-0.28875 0.1582-0.33203l0.02539-0.078125h6.1035v0.39453c0 2.1884-0.72599 4.2778-2.082 5.9844-0.3237 0.4073-1.0872 1.1706-1.4883 1.4883-1.4162 1.1217-3.0608 1.8061-4.8652 2.0234l-0.001953-0.001953c-0.18101 0.0218-0.57658 0.042175-0.93164 0.046875-0.66327 0.00881-0.68547 0.007832-1.1973-0.048828-2.7862-0.3086-5.3077-1.8447-6.8496-4.1738-0.13663-0.20638-0.29712-0.46185-0.35742-0.56836-0.64606-1.1413-1.0609-2.438-1.1914-3.7246-0.04819-0.47534-0.071351-1.0452-0.050781-1.25l0.017578-0.16992zm19.818 6.5566a3 3 0 0 1 0.66406 1.877 3 3 0 0 1-3 3 3 3 0 0 1-1.8711-0.66992c0.68533-0.40541 1.33-0.87304 1.916-1.4043 0.91602-0.83042 1.681-1.7729 2.291-2.8027zm-19.334 1.8223c0.67647 0.76278 1.4689 1.4615 2.2949 2.0176 0.48768 0.32831 1.0359 0.63276 1.5977 0.89844a3 3 0 0 1-0.89453 0.13867 3 3 0 0 1-3-3 3 3 0 0 1 0.0019531-0.054688z"/>
</svg>
