<svg width="24" height="24" version="1.1" viewBox="0 0 24 24" xmlns="http://www.w3.org/2000/svg">
 <path d="m11.281 0v1.4746 0.31445c-5.1177 0.15815-9.225 4.2783-9.3672 9.3965h-0.43945-1.4746l2.9609 4.8926 2.9395-4.8945-1.4766 0.001953h-0.51172c0.14106-4.0149 3.3549-7.2414 7.3691-7.3984v0.63672 1.4746l4.8926-2.959-4.8926-2.9395zm11.219 0v24h1.5v-24h-1.5zm-7.9707 7c-0.79711-0.00231-1.5946 0.12131-2.3496 0.36914-1.0515 0.34518-1.9404 0.86675-2.7773 1.6309-0.1124 0.10263-0.23094 0.21781-0.26367 0.25391-0.03274 0.036099-0.10636 0.11442-0.16211 0.17383-0.25851 0.27543-0.57967 0.69204-0.80273 1.043-1.6317 2.5679-1.5526 5.8458 0.17773 8.3281-0.06695 0.22795-0.10131 0.46359-0.10156 0.70117 0 1.3807 1.1193 2.5 2.5 2.5 0.47491-6.25e-4 0.93937-0.13731 1.3398-0.39258 0.01651 0.0056 0.034331 0.014061 0.050781 0.019531 0.53005 0.1761 1.1406 0.30327 1.6641 0.34766 0.10402 0.0088 0.21306 0.018235 0.24219 0.021485v0.001953c0.02912 0.0033 0.27446 0.0027 0.54492 0 0.68249-0.0065 1.1099-0.059975 1.7305-0.21484 0.49031-0.12237 0.96537-0.29631 1.4199-0.51367 0.46625 0.46571 1.0988 0.72779 1.7578 0.73047 1.3807 0 2.5-1.1193 2.5-2.5-4.16e-4 -0.65958-0.26174-1.2918-0.72656-1.7598 0.35256-0.73992 0.58624-1.5424 0.68945-2.3926 0.04559-0.37505 0.049552-1.2512 0.007812-1.6152-0.11062-0.96604-0.35272-1.7865-0.77539-2.6211-0.27706-0.54704-0.57624-0.99631-0.97266-1.4668-0.19781-0.23481-0.64791-0.68464-0.87891-0.87695-1.0028-0.83505-2.1317-1.377-3.3906-1.627-0.46825-0.092961-0.94559-0.13924-1.4238-0.14062zm-0.021485 1.5645c0.68142 5.75e-4 1.2877 0.10122 1.9141 0.31641 0.66886 0.22981 1.2667 0.55892 1.8164 1 0.22536 0.18081 0.62599 0.57344 0.80274 0.78516 0.48665 0.58292 0.8413 1.2094 1.084 1.916 0.04113 0.11978 0.080378 0.23689 0.085938 0.25977l0.009765 0.041015h-3.5195l-0.042969-0.13281c-0.10276-0.31974-0.28737-0.62783-0.52734-0.87695-0.3553-0.36889-0.79076-0.59699-1.2891-0.67774-0.1981-0.032159-0.5421-0.03018-0.75195 0.00586-0.5683 0.09769-1.0862 0.41846-1.4395 0.88867-0.12177 0.16211-0.29416 0.49618-0.34375 0.66797l-0.035157 0.125h-3.4863l0.037109-0.125c0.05873-0.19311 0.17913-0.50943 0.27734-0.72656 0.70349-1.5547 2.0859-2.7482 3.7422-3.2324 0.55011-0.16085 1.0682-0.23488 1.666-0.23438zm0.029297 3.4902c0.17829 0.006799 0.35821 0.046691 0.5293 0.12695 0.37965 0.17812 0.65191 0.49973 0.76953 0.9082 0.028809 0.10013 0.033203 0.15369 0.033203 0.35938 0 0.28293-0.023229 0.39467-0.13477 0.62109-0.19812 0.40219-0.57021 0.67786-1.0176 0.75586-0.1189 0.02074-0.32069 0.028052-0.41211 0.013672-0.48819-0.07681-0.87746-0.36315-1.0801-0.79297-0.11141-0.2363-0.15227-0.46677-0.12891-0.72852 0.01644-0.18421 0.049154-0.29972 0.13477-0.47656 0.24913-0.51465 0.77178-0.80761 1.3066-0.78711zm-5.9629 2.1738h3.7578l0.042969 0.10156c0.26437 0.63124 0.81661 1.1243 1.4727 1.3145 0.40537 0.11748 0.86216 0.11653 1.2773-0.001953 0.59118-0.16862 1.1081-0.59965 1.3926-1.1582 0.04451-0.08737 0.09034-0.17998 0.09961-0.20703l0.015624-0.048828h3.8145v0.24609c0 1.3677-0.45329 2.6736-1.3008 3.7402-0.20231 0.25456-0.68096 0.73308-0.93164 0.93164-0.88511 0.70105-1.9133 1.1279-3.041 1.2637-0.11313 0.01362-0.36012 0.026367-0.58203 0.029297-0.41454 0.0055-0.42816 0.00417-0.74805-0.03125-1.7414-0.19287-3.3176-1.1537-4.2812-2.6094-0.085393-0.12898-0.18692-0.2889-0.22461-0.35547-0.40378-0.7133-0.66258-1.5221-0.74414-2.3262-0.030118-0.29708-0.044106-0.65325-0.03125-0.78125l0.011719-0.10742zm12.385 4.0977c0.26785 0.33239 0.41525 0.74695 0.41602 1.1738 0 1.0355-0.83949 1.875-1.875 1.875-0.42605-0.0026-0.83901-0.14959-1.1699-0.41797 0.42832-0.25338 0.83102-0.54688 1.1973-0.87891 0.5725-0.519 1.0504-1.1083 1.4316-1.752zm-12.084 1.1387c0.42278 0.47673 0.91931 0.91416 1.4355 1.2617 0.30479 0.20519 0.64693 0.39645 0.99805 0.5625-0.1809 0.057-0.36893 0.085488-0.55859 0.085938-1.0355 0-1.875-0.83949-1.875-1.875 3.02e-4 -0.01139-5.13e-4 -0.023766 0-0.035156z"/>
</svg>
