<svg width="24" height="24" version="1.1" viewBox="0 0 24 24" xmlns="http://www.w3.org/2000/svg">
 <path d="m11.281 5e-8v1.7891a9.6696 9.6696 0 0 0-9.3672 9.3965h-1.9141l2.9609 4.8926 2.9395-4.8945-1.4766 0.0039h-0.51172a7.6737 7.6737 0 0 1 7.3691-7.4004v2.1113l4.8926-2.959zm11.219 0v24h1.5v-24zm-8 7c-4.1342 0-7.5 3.3658-7.5 7.5 0 1.5941 0.50161 3.0743 1.3535 4.291a2.5 2.5 0 0 0-0.10352 0.70898 2.5 2.5 0 0 0 2.5 2.5 2.5 2.5 0 0 0 1.3477-0.39453c0.75458 0.25597 1.5626 0.39453 2.4023 0.39453 0.83982 0 1.6497-0.13852 2.4043-0.39453a2.5 2.5 0 0 0 1.3457 0.39453 2.5 2.5 0 0 0 2.5-2.5 2.5 2.5 0 0 0-0.10156-0.70898c0.85187-1.2167 1.3516-2.697 1.3516-4.291 0-4.1342-3.3658-7.5-7.5-7.5zm0 1.3027c2.8064 0 5.169 1.8523 5.9355 4.4043h-3.6035c-0.0061-0.10771-0.01432-0.21037-0.0293-0.3125-0.04535-0.3091-0.16203-0.62881-0.40039-0.86719-0.23836-0.23836-0.55808-0.35505-0.86719-0.40039-0.30911-0.04535-0.63478-0.04102-1.0352-0.04102s-0.72408-0.0043-1.0332 0.04102c-0.30911 0.04535-0.62881 0.16204-0.86719 0.40039-0.23836 0.23836-0.35505 0.55808-0.40039 0.86719-0.015 0.10212-0.02512 0.20479-0.03125 0.3125h-3.6035c0.76656-2.552 3.1291-4.4043 5.9355-4.4043zm0 3.8125c0.40038 0 0.69845 0.0039 0.88476 0.03125 0.18634 0.02734 0.23668 0.05699 0.28906 0.10938 0.05238 0.05239 0.08009 0.10076 0.10742 0.28711 0.02734 0.18634 0.03125 0.4844 0.03125 0.88477 0 0.40038-0.0039 0.69845-0.03125 0.88476-0.02734 0.18634-0.05504 0.23668-0.10742 0.28906-0.05237 0.05239-0.10272 0.08008-0.28906 0.10742-0.18634 0.02734-0.4844 0.03125-0.88476 0.03125-0.40036 0-0.6965-0.0039-0.88281-0.03125-0.18634-0.02734-0.23668-0.05503-0.28906-0.10742-0.05237-0.05239-0.08204-0.10272-0.10938-0.28906-0.02731-0.18634-0.0293-0.4844-0.0293-0.88476 0-0.40038 2e-3 -0.69845 0.0293-0.88477 0.02731-0.18634 0.05698-0.23472 0.10938-0.28711 0.05238-0.05239 0.10272-0.08204 0.28906-0.10938 0.18634-0.02734 0.48245-0.03125 0.88281-0.03125zm-6.1836 1.9551h3.8477c0.0056 0.13566 0.0166 0.26431 0.03516 0.39062 0.04537 0.30911 0.16203 0.62881 0.40039 0.86719 0.23836 0.23836 0.55808 0.35505 0.86719 0.40039 0.3091 0.04535 0.63283 0.04297 1.0332 0.04297s0.72603 0.0024 1.0352-0.04297c0.30911-0.04535 0.62881-0.16204 0.86719-0.40039 0.23836-0.23836 0.35505-0.55807 0.40039-0.86719 0.01853-0.12632 0.02749-0.25497 0.0332-0.39062h3.8477c0.0096 0.1419 0.01367 0.28528 0.01367 0.42969 0 3.4304-2.7668 6.1992-6.1973 6.1992-3.4304 0-6.1953-2.7688-6.1953-6.1992 0-0.14441 2e-3 -0.28779 0.011721-0.42969zm0.56055 5.3867c0.67499 0.76498 1.5028 1.392 2.4355 1.832a1.875 1.875 0 0 1-0.5625 0.08594 1.875 1.875 0 0 1-1.875-1.875 1.875 1.875 0 0 1 2e-3 -0.04297zm11.246 0a1.875 1.875 0 0 1 2e-3 0.04297 1.875 1.875 0 0 1-1.875 1.875 1.875 1.875 0 0 1-0.56055-0.08789c0.93268-0.44003 1.7586-1.0652 2.4336-1.8301z"/>
</svg>
