<svg width="24" height="24" version="1.1" viewBox="0 0 24 24" xmlns="http://www.w3.org/2000/svg">
 <path d="m11.281 0v1.7891a9.6696 9.6696 0 0 0-9.3672 9.3965h-1.9141l2.9609 4.8926 2.9395-4.8945-1.4766 2e-3h-0.51172a7.6737 7.6737 0 0 1 7.3691-7.3984v2.1113l4.8926-2.959zm11.219 0v24h1.5v-24zm-8 7c-4.1342 0-7.5 3.3658-7.5 7.5 0 1.5941 0.50161 3.0743 1.3535 4.291a2.5 2.5 0 0 0-0.10352 0.70898 2.5 2.5 0 0 0 2.5 2.5 2.5 2.5 0 0 0 1.3477-0.39453c0.75458 0.25597 1.5626 0.39453 2.4023 0.39453 1.1586 0 2.2576-0.26482 3.2383-0.73633a2.5 2.5 0 0 0 1.7617 0.73633 2.5 2.5 0 0 0 2.5-2.5 2.5 2.5 0 0 0-0.73438-1.7695c0.46977-0.97925 0.73438-2.0742 0.73438-3.2305 0-4.1342-3.3658-7.5-7.5-7.5zm0 1.3027c2.8064 0 5.169 1.8523 5.9355 4.4043h-3.6035c-0.0061-0.10771-0.01626-0.21232-0.03125-0.31445-0.04535-0.3091-0.16203-0.62685-0.40039-0.86523-0.23836-0.23835-0.55808-0.35504-0.86719-0.40039-0.30911-0.0454-0.63283-0.04297-1.0332-0.04297s-0.72408-0.0025-1.0332 0.04297c-0.30911 0.0454-0.62881 0.16204-0.86719 0.40039-0.23836 0.23835-0.35505 0.55613-0.40039 0.86523-0.015 0.10213-0.02512 0.20674-0.03125 0.31445h-3.6035c0.76656-2.552 3.1291-4.4043 5.9355-4.4043zm0 3.8125c0.40038 0 0.69845 0.0034 0.88477 0.03125 0.18634 0.0273 0.23668 0.05693 0.28906 0.10938 0.05238 0.0524 0.08009 0.10077 0.10742 0.28711 0.02734 0.18635 0.03125 0.4844 0.03125 0.88476 0 0.40037-0.0038 0.69845-0.03125 0.88477-0.02734 0.18634-0.05503 0.23472-0.10742 0.28711-0.05238 0.0524-0.10272 0.08204-0.28906 0.10938-0.18634 0.0273-0.4844 0.03125-0.88477 0.03125-0.40036 0-0.69845-0.0037-0.88477-0.03125-0.18634-0.0273-0.23472-0.05693-0.28711-0.10938-0.05238-0.0524-0.08204-0.10077-0.10938-0.28711-0.02732-0.18635-0.03125-0.48441-0.03125-0.88477 0-0.40038 0.0039-0.69844 0.03125-0.88476 0.02732-0.18634 0.05698-0.23472 0.10938-0.28711 0.05238-0.0524 0.10076-0.08204 0.28711-0.10938 0.18634-0.0273 0.4844-0.03125 0.88477-0.03125zm-6.1836 1.9551h3.8477c0.0056 0.13566 0.01659 0.2643 0.03516 0.39063 0.04537 0.3091 0.16203 0.62881 0.40039 0.86719 0.23836 0.23835 0.55808 0.35505 0.86719 0.40039 0.3091 0.0454 0.63283 0.04101 1.0332 0.04101 0.40038 0 0.72408 0.0045 1.0332-0.04101 0.30911-0.0454 0.62881-0.16204 0.86719-0.40039 0.23836-0.23836 0.35505-0.55808 0.40039-0.86719 0.01853-0.12633 0.02945-0.25496 0.03516-0.39063h3.8477c0.0097 0.14191 0.01367 0.28528 0.01367 0.42969 0 3.4304-2.7668 6.1973-6.1973 6.1973-3.4304 0-6.1973-2.7668-6.1973-6.1973 0-0.14441 0.00392-0.28778 0.013672-0.42969zm12.637 4.2461a1.875 1.875 0 0 1 0.42188 1.1836 1.875 1.875 0 0 1-1.875 1.875 1.875 1.875 0 0 1-1.1797-0.42383c1.0823-0.64368 1.9899-1.552 2.6328-2.6348zm-12.076 1.1406c0.67499 0.76498 1.5028 1.392 2.4355 1.832a1.875 1.875 0 0 1-0.5625 0.08594 1.875 1.875 0 0 1-1.875-1.875 1.875 1.875 0 0 1 0.00195-0.04297z"/>
</svg>
