<svg width="24" height="24" version="1.1" viewBox="0 0 24 24" xmlns="http://www.w3.org/2000/svg">
 <path d="m11.281 0v1.4746 0.31445a9.6696 9.6696 0 0 0-9.3672 9.3965h-0.43945-1.4746l2.9609 4.8926 2.9395-4.8945-1.4766 0.001953h-0.51172a7.6737 7.6737 0 0 1 7.3691-7.3984v0.63672 1.4746l4.8926-2.959-4.8926-2.9395zm11.219 0v24h1.5v-24h-1.5zm-7.9707 7c-0.79711-0.0023056-1.5946 0.12132-2.3496 0.36914-1.0515 0.34518-1.9404 0.86676-2.7773 1.6309-0.1124 0.10263-0.23093 0.21781-0.26367 0.25391-0.032743 0.036099-0.10636 0.11442-0.16211 0.17383-0.25851 0.27543-0.57972 0.69204-0.80273 1.043-1.6317 2.5679-1.5525 5.8437 0.17773 8.3262-0.06695 0.22795-0.10131 0.46555-0.10156 0.70312-2e-7 1.3807 1.1193 2.5 2.5 2.5 0.47491-6.55e-4 0.93937-0.13731 1.3398-0.39258 0.01651 0.0056 0.034351 0.014061 0.050781 0.019531 0.53005 0.17609 1.1406 0.30327 1.6641 0.34766 0.10402 0.0089 0.21306 0.018235 0.24219 0.021485v0.001953c0.02914 0.0033 0.27446 0.0026 0.54492 0 0.68249-0.0064 1.1099-0.059976 1.7305-0.21484 0.19846-0.04953 0.39434-0.11019 0.58789-0.17578 0.40048 0.25526 0.86493 0.39192 1.3398 0.39258 1.3807 0 2.5-1.1193 2.5-2.5 1.38e-4 -0.23456-0.032736-0.46797-0.097656-0.69336v-0.001953c0.70818-1.0102 1.1555-2.1802 1.3105-3.457 0.04559-0.37505 0.049442-1.2512 0.007812-1.6152-0.1106-0.966-0.35273-1.7866-0.77539-2.6211-0.27707-0.54703-0.57625-0.99631-0.97266-1.4668-0.19781-0.23481-0.64791-0.68465-0.87891-0.87695-1.0028-0.83504-2.1317-1.377-3.3906-1.627-0.46825-0.09296-0.94559-0.13924-1.4238-0.14062zm-0.021485 1.5645c0.68143 5.749e-4 1.2877 0.10122 1.9141 0.31641 0.66886 0.22981 1.2666 0.55891 1.8164 1 0.22537 0.18081 0.62599 0.57349 0.80274 0.78516 0.48665 0.58292 0.8413 1.2094 1.084 1.916 0.04113 0.11978 0.080368 0.23493 0.085938 0.25781l0.009765 0.042968h-3.5195l-0.042969-0.13281c-0.10276-0.31974-0.28737-0.62784-0.52734-0.87695-0.35531-0.36889-0.79076-0.59694-1.2891-0.67774-0.1981-0.032159-0.54213-0.03027-0.75195 0.00586-0.5683 0.09769-1.0862 0.41844-1.4395 0.88867-0.12177 0.16211-0.29416 0.49624-0.34375 0.66797l-0.035157 0.125h-3.4863l0.037109-0.125c0.058731-0.19319 0.17913-0.50948 0.27734-0.72656 0.70349-1.5547 2.0859-2.7482 3.7422-3.2324 0.55012-0.16085 1.0682-0.23488 1.666-0.23438zm0.029297 3.4902c0.17829 0.006699 0.3582 0.046701 0.5293 0.12695 0.37965 0.17812 0.65191 0.49966 0.76953 0.9082 0.028799 0.10013 0.033203 0.15369 0.033203 0.35938 0 0.28293-0.023238 0.39468-0.13477 0.62109-0.19812 0.40219-0.57027 0.67786-1.0176 0.75586-0.1189 0.02075-0.32069 0.028062-0.41211 0.013672-0.48819-0.07681-0.87746-0.36318-1.0801-0.79297-0.11141-0.23629-0.15227-0.46675-0.12891-0.72852 0.01644-0.18421 0.049132-0.29972 0.13477-0.47656 0.24913-0.51464 0.77178-0.80761 1.3066-0.78711zm-5.9629 2.1738h3.7578l0.042969 0.10156c0.26437 0.63123 0.8166 1.1243 1.4727 1.3145 0.40537 0.11748 0.86216 0.11643 1.2773-0.001953 0.59118-0.16862 1.1081-0.5997 1.3926-1.1582 0.04451-0.08738 0.09033-0.17998 0.09961-0.20703l0.015624-0.048828h3.8145v0.24609c0 1.3677-0.45325 2.6736-1.3008 3.7402-0.20231 0.25455-0.68096 0.73308-0.93164 0.93164-0.88511 0.70104-1.9133 1.1279-3.041 1.2637-0.11313 0.01362-0.36012 0.026367-0.58203 0.029297-0.41454 0.0055-0.4282 0.00407-0.74805-0.03125-1.7414-0.19293-3.3176-1.1537-4.2812-2.6094-0.08539-0.12899-0.18692-0.2889-0.22461-0.35547-0.40378-0.71329-0.66258-1.5221-0.74414-2.3262-0.030118-0.29708-0.044106-0.65325-0.03125-0.78125l0.011719-0.10742zm0.30273 5.2363c0.42277 0.47656 0.91735 0.91417 1.4336 1.2617 0.3048 0.20519 0.6468 0.39646 0.99805 0.5625-0.1809 0.05699-0.36892 0.085508-0.55859 0.085938-1.0355 0-1.875-0.8395-1.875-1.875 3.008e-4 -0.0114 0.0014387-0.023766 0.0019531-0.035156zm11.246 0.007812c4.69e-4 9e-3 0.001611 0.018384 0.001953 0.027344 0 1.0355-0.83948 1.875-1.875 1.875-0.18627-6.35e-4 -0.37092-0.028784-0.54883-0.083984 0.66692-0.31368 1.2851-0.72234 1.8262-1.2129 0.21185-0.19206 0.40951-0.3953 0.5957-0.60547z"/>
</svg>
