<svg width="32" height="32" version="1.1" viewBox="0 0 32 32" xmlns="http://www.w3.org/2000/svg" xmlns:xlink="http://www.w3.org/1999/xlink">
 <defs>
  <linearGradient id="linearGradient20" x1="4.8773" x2="27.755" y1="6.3512" y2="29.229" gradientUnits="userSpaceOnUse" xlink:href="#linearGradient19"/>
  <linearGradient id="linearGradient19">
   <stop stop-color="#8c8c8c" offset="0"/>
   <stop stop-color="#7f7f7f" offset="1"/>
  </linearGradient>
  <linearGradient id="linearGradient18" x1="4.8773" x2="27.755" y1="6.3512" y2="29.229" gradientUnits="userSpaceOnUse" xlink:href="#linearGradient17"/>
  <linearGradient id="linearGradient17">
   <stop stop-color="#404040" offset="0"/>
   <stop stop-color="#333" offset="1"/>
  </linearGradient>
  <linearGradient id="linearGradient22" x1="4.9788" x2="27.653" y1="6.4949" y2="29.169" gradientUnits="userSpaceOnUse" xlink:href="#linearGradient19"/>
  <linearGradient id="linearGradient24" x1="5.0024" x2="27.63" y1="6.5283" y2="29.156" gradientUnits="userSpaceOnUse" xlink:href="#linearGradient23"/>
  <linearGradient id="linearGradient23">
   <stop stop-color="#4d4d4d" offset="0"/>
   <stop stop-color="#333" offset="1"/>
  </linearGradient>
  <linearGradient id="linearGradient14" x1="8.1593" x2="23.843" y1="9.6039" y2="25.288" gradientUnits="userSpaceOnUse">
   <stop stop-color="#1a84ff" offset="0"/>
   <stop stop-color="#0076ff" offset="1"/>
  </linearGradient>
 </defs>
 <g>
  <g transform="matrix(1 0 0 1 -.31611 -1.8421)" fill="none" stroke="url(#linearGradient24)">
   <path d="m30.463 30.767-14.147-24.758-14.147 24.758h14.147z" fill="none" stroke="url(#linearGradient24)" stroke-width="2.1506"/>
  </g>
  <g transform="matrix(.98234 0 0 .98234 -.027783 -1.4555)" fill="none" stroke="url(#linearGradient22)" stroke-width="1.018">
   <path d="m30.463 30.767-14.147-24.758-14.147 24.758h14.147z" fill="none" stroke="url(#linearGradient22)" stroke-width="2.1893"/>
  </g>
  <g transform="matrix(.9129 0 0 .9129 1.1052 .11643)" fill="url(#linearGradient20)" stroke="url(#linearGradient18)" stroke-width="1.0954">
   <path d="m30.463 30.767-14.147-24.758-14.147 24.758h14.147z" fill="url(#linearGradient20)" stroke="url(#linearGradient18)" stroke-width="2.3558"/>
  </g>
  <path d="m25.66 26.298-9.6593-16.865-9.6593 16.865h9.6593z" fill="none" stroke="url(#linearGradient14)" stroke-width="1.6588"/>
 </g>
</svg>
