<svg xmlns="http://www.w3.org/2000/svg" xmlns:xlink="http://www.w3.org/1999/xlink" width="294" height="90" version="1.1" viewBox="0 0 294 90"><title>Works with</title><desc>Created with Sketch.</desc><g id="Page-1" fill="none" fill-rule="evenodd" stroke="none" stroke-width="1"><g id="iPhone-8" transform="translate(-13.000000, -268.000000)"><g id="Works-with" transform="translate(13.000000, 268.000000)"><rect id="Rectangle" width="293" height="89" x=".5" y=".5" fill="#FFF" stroke="#CFCFCF" rx="12"/><path id="workswithMQTTHomie" fill="#7B7B7B" fill-rule="nonzero" d="M103.845,33 L106.144,25.856 L108.462,33 L110.248,33 L113.25,23.69 L111.464,23.69 L109.412,30.72 L109.393,30.72 L107.094,23.69 L105.289,23.69 L102.99,30.72 L102.971,30.72 L100.9,23.69 L99.076,23.69 L102.078,33 L103.845,33 Z M118.656,33.304 C120.036667,33.304 121.176667,32.8353333 122.076,31.898 C122.988,30.9733333 123.444,29.789 123.444,28.345 C123.444,26.9136667 122.988,25.7293333 122.076,24.792 C121.176667,23.8546667 120.036667,23.386 118.656,23.386 C117.275333,23.386 116.129,23.8546667 115.217,24.792 C114.317667,25.7293333 113.868,26.9136667 113.868,28.345 C113.868,29.7763333 114.317667,30.9606667 115.217,31.898 C116.129,32.8353333 117.275333,33.304 118.656,33.304 Z M118.656,31.708 C117.794667,31.708 117.072667,31.3976667 116.49,30.777 C115.907333,30.1563333 115.616,29.3456667 115.616,28.345 C115.616,27.357 115.907333,26.5526667 116.49,25.932 C117.085333,25.2986667 117.807333,24.982 118.656,24.982 C119.504667,24.982 120.226667,25.2986667 120.822,25.932 C121.404667,26.5526667 121.696,27.357 121.696,28.345 C121.696,29.3456667 121.404667,30.1563333 120.822,30.777 C120.239333,31.3976667 119.517333,31.708 118.656,31.708 Z M126.798,33 L126.798,27.87 C126.798,27.1606667 127.041833,26.54 127.5295,26.008 C128.017167,25.476 128.590333,25.21 129.249,25.21 C129.717667,25.21 130.059667,25.2543333 130.275,25.343 L130.275,25.343 L130.807,23.652 C130.452333,23.5 130.021667,23.424 129.515,23.424 C128.983,23.424 128.4415,23.5981667 127.8905,23.9465 C127.3395,24.2948333 126.975333,24.716 126.798,25.21 L126.798,25.21 L126.722,25.21 L126.722,23.69 L125.05,23.69 L125.05,33 L126.798,33 Z M133.99,33 L133.99,30.017 L135.415,28.611 L138.322,33 L140.431,33 L140.431,32.924 L136.631,27.376 L140.26,23.766 L140.26,23.69 L138.018,23.69 L133.99,27.775 L133.99,19.396 L132.242,19.396 L132.242,33 L133.99,33 Z M144.811,33.304 C145.887667,33.304 146.780667,33.0253333 147.49,32.468 C148.199333,31.9106667 148.554,31.2266667 148.554,30.416 C148.554,29.01 147.629333,28.079 145.78,27.623 L145.78,27.623 L144.374,27.262 C143.373333,27.034 142.873,26.654 142.873,26.122 C142.873,25.7926667 143.0535,25.514 143.4145,25.286 C143.7755,25.058 144.184,24.944 144.64,24.944 C145.134,24.944 145.5805,25.0548333 145.9795,25.2765 C146.3785,25.4981667 146.666667,25.8053333 146.844,26.198 L146.844,26.198 L148.402,25.552 C148.136,24.8933333 147.6705,24.3676667 147.0055,23.975 C146.3405,23.5823333 145.596333,23.386 144.773,23.386 C143.696333,23.386 142.812833,23.6425 142.1225,24.1555 C141.432167,24.6685 141.087,25.3493333 141.087,26.198 C141.087,27.49 141.992667,28.364 143.804,28.82 L143.804,28.82 L145.4,29.219 C146.312,29.4976667 146.768,29.9346667 146.768,30.53 C146.768,30.8593333 146.581167,31.1443333 146.2075,31.385 C145.833833,31.6256667 145.368333,31.746 144.811,31.746 C144.291667,31.746 143.8135,31.5908333 143.3765,31.2805 C142.9395,30.9701667 142.607,30.5363333 142.379,29.979 L142.379,29.979 L140.821,30.644 C141.125,31.442 141.631667,32.0848333 142.341,32.5725 C143.050333,33.0601667 143.873667,33.304 144.811,33.304 Z M158.435,33 L160.734,25.856 L163.052,33 L164.838,33 L167.84,23.69 L166.054,23.69 L164.002,30.72 L163.983,30.72 L161.684,23.69 L159.879,23.69 L157.58,30.72 L157.561,30.72 L155.49,23.69 L153.666,23.69 L156.668,33 L158.435,33 Z M170.206,21.714 C170.548,21.714 170.839333,21.5936667 171.08,21.353 C171.320667,21.1123333 171.441,20.821 171.441,20.479 C171.441,20.137 171.320667,19.8456667 171.08,19.605 C170.839333,19.3643333 170.548,19.244 170.206,19.244 C169.864,19.244 169.572667,19.3643333 169.332,19.605 C169.091333,19.8456667 168.971,20.137 168.971,20.479 C168.971,20.821 169.091333,21.1123333 169.332,21.353 C169.572667,21.5936667 169.864,21.714 170.206,21.714 Z M171.08,33 L171.08,23.69 L169.332,23.69 L169.332,33 L171.08,33 Z M177.151,33.152 C177.759,33.152 178.291,33.0696667 178.747,32.905 L178.747,32.905 L178.196,31.347 C178.082,31.3976667 177.9585,31.4388333 177.8255,31.4705 C177.6925,31.5021667 177.556333,31.518 177.417,31.518 C177.113,31.518 176.840667,31.4071667 176.6,31.1855 C176.359333,30.9638333 176.239,30.5426667 176.239,29.922 L176.239,29.922 L176.239,25.286 L178.519,25.286 L178.519,23.69 L176.239,23.69 L176.239,20.84 L174.491,20.84 L174.491,23.69 L172.857,23.69 L172.857,25.286 L174.491,25.286 L174.491,30.492 C174.503667,31.328 174.760167,31.9803333 175.2605,32.449 C175.760833,32.9176667 176.391,33.152 177.151,33.152 Z M182.234,33 L182.234,27.927 C182.234,27.1416667 182.477833,26.4545 182.9655,25.8655 C183.453167,25.2765 184.051667,24.982 184.761,24.982 C186.243,24.982 186.984,25.818 186.984,27.49 L186.984,27.49 L186.984,33 L188.732,33 L188.732,27.148 C188.732,25.9446667 188.424833,25.0168333 187.8105,24.3645 C187.196167,23.7121667 186.319,23.386 185.179,23.386 C184.583667,23.386 184.0105,23.538 183.4595,23.842 C182.9085,24.146 182.5,24.526 182.234,24.982 L182.234,24.982 L182.158,24.982 L182.234,23.69 L182.234,19.396 L180.486,19.396 L180.486,33 L182.234,33 Z M104.55,69 L104.55,57.33 L104.37,53.73 L104.55,53.73 L110.64,64.44 L112.65,64.44 L118.77,53.73 L118.95,53.73 L118.77,57.33 L118.77,69 L122.13,69 L122.13,47.52 L118.77,47.52 L111.75,59.73 L111.57,59.73 L104.55,47.52 L101.16,47.52 L101.16,69 L104.55,69 Z M143.025789,70.71 L145.605789,69 L144.045789,66.66 C145.185789,65.62 146.075789,64.385 146.715789,62.955 C147.355789,61.525 147.675789,59.96 147.675789,58.26 C147.675789,56.7 147.395789,55.24 146.835789,53.88 C146.275789,52.52 145.495789,51.33 144.495789,50.31 C143.495789,49.29 142.315789,48.49 140.955789,47.91 C139.595789,47.33 138.125789,47.04 136.545789,47.04 C134.945789,47.04 133.470789,47.33 132.120789,47.91 C130.770789,48.49 129.595789,49.29 128.595789,50.31 C127.595789,51.33 126.815789,52.52 126.255789,53.88 C125.695789,55.24 125.415789,56.7 125.415789,58.26 C125.415789,59.82 125.695789,61.285 126.255789,62.655 C126.815789,64.025 127.595789,65.215 128.595789,66.225 C129.595789,67.235 130.770789,68.03 132.120789,68.61 C133.470789,69.19 134.945789,69.48 136.545789,69.48 C138.305789,69.48 139.945789,69.11 141.465789,68.37 L141.465789,68.37 L143.025789,70.71 Z M136.545789,66.24 C135.485789,66.24 134.485789,66.05 133.545789,65.67 C132.605789,65.29 131.790789,64.75 131.100789,64.05 C130.410789,63.35 129.865789,62.51 129.465789,61.53 C129.065789,60.55 128.865789,59.46 128.865789,58.26 C128.865789,57.06 129.065789,55.97 129.465789,54.99 C129.865789,54.01 130.410789,53.17 131.100789,52.47 C131.790789,51.77 132.605789,51.23 133.545789,50.85 C134.485789,50.47 135.485789,50.28 136.545789,50.28 C137.605789,50.28 138.605789,50.47 139.545789,50.85 C140.485789,51.23 141.300789,51.77 141.990789,52.47 C142.680789,53.17 143.225789,54.01 143.625789,54.99 C144.025789,55.97 144.225789,57.06 144.225789,58.26 C144.225789,59.4 144.040789,60.44 143.670789,61.38 C143.300789,62.32 142.795789,63.14 142.155789,63.84 L142.155789,63.84 L139.725789,60.21 L137.145789,61.95 L139.575789,65.61 C139.115789,65.81 138.630789,65.965 138.120789,66.075 C137.610789,66.185 137.085789,66.24 136.545789,66.24 Z M158.311579,69 L158.311579,50.76 L164.311579,50.76 L164.311579,47.52 L148.921579,47.52 L148.921579,50.76 L154.921579,50.76 L154.921579,69 L158.311579,69 Z M175.457368,69 L175.457368,50.76 L181.457368,50.76 L181.457368,47.52 L166.067368,47.52 L166.067368,50.76 L172.067368,50.76 L172.067368,69 L175.457368,69 Z M194.958947,69 L194.958947,59.61 L204.888947,59.61 L204.888947,69 L208.278947,69 L208.278947,47.52 L204.888947,47.52 L204.888947,56.43 L194.958947,56.43 L194.958947,47.52 L191.568947,47.52 L191.568947,69 L194.958947,69 Z M219.274737,69.48 C220.394737,69.48 221.424737,69.285 222.364737,68.895 C223.304737,68.505 224.114737,67.96 224.794737,67.26 C225.474737,66.56 226.004737,65.73 226.384737,64.77 C226.764737,63.81 226.954737,62.77 226.954737,61.65 C226.954737,60.53 226.764737,59.49 226.384737,58.53 C226.004737,57.57 225.474737,56.74 224.794737,56.04 C224.114737,55.34 223.304737,54.795 222.364737,54.405 C221.424737,54.015 220.394737,53.82 219.274737,53.82 C218.154737,53.82 217.124737,54.015 216.184737,54.405 C215.244737,54.795 214.434737,55.34 213.754737,56.04 C213.074737,56.74 212.544737,57.57 212.164737,58.53 C211.784737,59.49 211.594737,60.53 211.594737,61.65 C211.594737,62.77 211.784737,63.81 212.164737,64.77 C212.544737,65.73 213.074737,66.56 213.754737,67.26 C214.434737,67.96 215.244737,68.505 216.184737,68.895 C217.124737,69.285 218.154737,69.48 219.274737,69.48 Z M219.274737,66.39 C218.714737,66.39 218.174737,66.28 217.654737,66.06 C217.134737,65.84 216.669737,65.53 216.259737,65.13 C215.849737,64.73 215.524737,64.235 215.284737,63.645 C215.044737,63.055 214.924737,62.39 214.924737,61.65 C214.924737,60.91 215.044737,60.245 215.284737,59.655 C215.524737,59.065 215.849737,58.57 216.259737,58.17 C216.669737,57.77 217.134737,57.46 217.654737,57.24 C218.174737,57.02 218.714737,56.91 219.274737,56.91 C219.834737,56.91 220.374737,57.02 220.894737,57.24 C221.414737,57.46 221.879737,57.77 222.289737,58.17 C222.699737,58.57 223.024737,59.065 223.264737,59.655 C223.504737,60.245 223.624737,60.91 223.624737,61.65 C223.624737,62.39 223.504737,63.055 223.264737,63.645 C223.024737,64.235 222.699737,64.73 222.289737,65.13 C221.879737,65.53 221.414737,65.84 220.894737,66.06 C220.374737,66.28 219.834737,66.39 219.274737,66.39 Z M232.820526,69 L232.820526,61.38 C232.820526,60.78 232.900526,60.21 233.060526,59.67 C233.220526,59.13 233.450526,58.655 233.750526,58.245 C234.050526,57.835 234.410526,57.51 234.830526,57.27 C235.250526,57.03 235.720526,56.91 236.240526,56.91 C237.200526,56.91 237.935526,57.165 238.445526,57.675 C238.955526,58.185 239.210526,59.08 239.210526,60.36 L239.210526,60.36 L239.210526,69 L242.540526,69 L242.540526,61.38 C242.540526,60.78 242.620526,60.21 242.780526,59.67 C242.940526,59.13 243.170526,58.655 243.470526,58.245 C243.770526,57.835 244.135526,57.51 244.565526,57.27 C244.995526,57.03 245.480526,56.91 246.020526,56.91 C246.960526,56.91 247.675526,57.165 248.165526,57.675 C248.655526,58.185 248.900526,59.08 248.900526,60.36 L248.900526,60.36 L248.900526,69 L252.230526,69 L252.230526,59.79 C252.230526,58.89 252.120526,58.075 251.900526,57.345 C251.680526,56.615 251.355526,55.99 250.925526,55.47 C250.495526,54.95 249.950526,54.545 249.290526,54.255 C248.630526,53.965 247.850526,53.82 246.950526,53.82 C245.770526,53.82 244.760526,54.085 243.920526,54.615 C243.080526,55.145 242.410526,55.8 241.910526,56.58 C241.550526,55.76 240.975526,55.095 240.185526,54.585 C239.395526,54.075 238.450526,53.82 237.350526,53.82 C236.430526,53.82 235.560526,54.05 234.740526,54.51 C233.920526,54.97 233.280526,55.56 232.820526,56.28 L232.820526,56.28 L232.640526,56.28 L232.640526,54.3 L229.490526,54.3 L229.490526,69 L232.820526,69 Z M257.706316,51.69 C258.326316,51.69 258.851316,51.47 259.281316,51.03 C259.711316,50.59 259.926316,50.06 259.926316,49.44 C259.926316,48.82 259.711316,48.29 259.281316,47.85 C258.851316,47.41 258.326316,47.19 257.706316,47.19 C257.066316,47.19 256.531316,47.41 256.101316,47.85 C255.671316,48.29 255.456316,48.82 255.456316,49.44 C255.456316,50.06 255.671316,50.59 256.101316,51.03 C256.531316,51.47 257.066316,51.69 257.706316,51.69 Z M259.356316,69 L259.356316,54.3 L256.026316,54.3 L256.026316,69 L259.356316,69 Z M269.902105,69.48 C271.562105,69.48 272.962105,69.1 274.102105,68.34 C275.242105,67.58 276.122105,66.63 276.742105,65.49 L276.742105,65.49 L273.892105,64.08 C273.492105,64.76 272.982105,65.33 272.362105,65.79 C271.742105,66.25 270.952105,66.48 269.992105,66.48 C269.512105,66.48 269.022105,66.4 268.522105,66.24 C268.022105,66.08 267.567105,65.83 267.157105,65.49 C266.747105,65.15 266.402105,64.72 266.122105,64.2 C265.842105,63.68 265.672105,63.07 265.612105,62.37 L265.612105,62.37 L276.922105,62.37 C276.922105,62.29 276.932105,62.21 276.952105,62.13 C276.952105,62.05 276.962105,61.96 276.982105,61.86 L276.982105,61.86 L276.982105,61.59 C276.982105,60.45 276.817105,59.4 276.487105,58.44 C276.157105,57.48 275.682105,56.66 275.062105,55.98 C274.442105,55.3 273.687105,54.77 272.797105,54.39 C271.907105,54.01 270.892105,53.82 269.752105,53.82 C268.632105,53.82 267.612105,54.03 266.692105,54.45 C265.772105,54.87 264.987105,55.435 264.337105,56.145 C263.687105,56.855 263.182105,57.685 262.822105,58.635 C262.462105,59.585 262.282105,60.59 262.282105,61.65 C262.282105,62.79 262.472105,63.835 262.852105,64.785 C263.232105,65.735 263.762105,66.56 264.442105,67.26 C265.122105,67.96 265.927105,68.505 266.857105,68.895 C267.787105,69.285 268.802105,69.48 269.902105,69.48 Z M273.652105,59.82 L265.822105,59.82 C266.062105,58.86 266.527105,58.095 267.217105,57.525 C267.907105,56.955 268.732105,56.67 269.692105,56.67 C270.392105,56.67 270.987105,56.78 271.477105,57 C271.967105,57.22 272.367105,57.485 272.677105,57.795 C272.987105,58.105 273.217105,58.445 273.367105,58.815 C273.517105,59.185 273.612105,59.52 273.652105,59.82 L273.652105,59.82 Z"/><g id="Homie-logo" transform="translate(3.000000, 0.000000)"><path id="Polygon" fill="#E74C3C" d="M50.3787065,11.4452482 L72.5715307,24.2582812 C75.1923398,25.7714061 76.8068248,28.5677761 76.8068248,31.5940258 L76.8068248,57.2200918 C76.8068248,60.2463415 75.1923398,63.0427116 72.5715307,64.5558364 L50.3787065,77.3688694 C47.7578974,78.8819943 44.5289274,78.8819943 41.9081183,77.3688694 L19.7152941,64.5558364 C17.094485,63.0427116 15.48,60.2463415 15.48,57.2200918 L15.48,31.5940258 C15.48,28.5677761 17.094485,25.7714061 19.7152941,24.2582812 L41.9081183,11.4452482 C44.5289274,9.93212335 47.7578974,9.93212335 50.3787065,11.4452482 Z" transform="translate(46.143412, 44.407059) rotate(-300.000000) translate(-46.143412, -44.407059)"/><path id="h" fill="#FFF" fill-rule="nonzero" d="M40.0361183,62.9830588 C40.7476477,62.9830588 41.2220006,62.7261176 41.4591771,62.2122353 C41.6963536,61.6983529 41.8940006,61.1647059 42.0521183,60.6112941 C42.1707065,59.9392941 42.3980006,59.0795294 42.7340006,58.032 C43.0700006,56.9844706 43.4751771,55.9270588 43.9495301,54.8597647 C44.423883,53.7924706 44.9476477,52.824 45.5208242,51.9543529 C46.0940006,51.0847059 46.6968242,50.5115294 47.3292948,50.2348235 C47.6850595,50.9463529 47.9222359,51.7962353 48.0408242,52.7844706 C48.1594124,53.7727059 48.3471771,54.7115294 48.6041183,55.6009412 C48.8610595,56.4903529 49.2761183,57.2414118 49.8492948,57.8541176 C50.4224712,58.4668235 51.3415301,58.7731765 52.6064712,58.7731765 C53.3180006,58.7731765 54.0987065,58.5458824 54.9485889,58.0912941 C55.7984712,57.6367059 56.5791771,57.0536471 57.2907065,56.3421176 C58.0022359,55.6305882 58.6050595,54.8597647 59.0991771,54.0296471 C59.5932948,53.1995294 59.8403536,52.4287059 59.8403536,51.7171765 C59.8403536,51.3614118 59.7316477,51.0254118 59.5142359,50.7091765 C59.2968242,50.3929412 58.9707065,50.2348235 58.535883,50.2348235 C58.0615301,50.2348235 57.6662359,50.5214118 57.3500006,51.0945882 C57.0337654,51.6677647 56.6977654,52.2903529 56.3420006,52.9623529 C55.9862359,53.6343529 55.5415301,54.2569412 55.007883,54.8301176 C54.4742359,55.4032941 53.7725889,55.6898824 52.9029418,55.6898824 C52.3890595,55.6898824 52.0234124,55.4724706 51.8060006,55.0376471 C51.5885889,54.6028235 51.4205889,54.0691765 51.3020006,53.4367059 C51.1834124,52.8042353 51.0747065,52.1025882 50.975883,51.3317647 C50.8770595,50.5609412 50.7189418,49.8592941 50.5015301,49.2268235 C50.2841183,48.5943529 49.9481183,48.0607059 49.4935301,47.6258824 C49.0389418,47.1910588 48.4163536,46.9736471 47.6257654,46.9736471 C47.111883,46.9736471 46.5881183,47.1712941 46.0544712,47.5665882 C45.5208242,47.9618824 45.0168242,48.4263529 44.5424712,48.96 C44.0681183,49.4936471 43.6332948,50.0470588 43.2380006,50.6202353 C42.8427065,51.1934118 42.5264712,51.6776471 42.2892948,52.0729412 L42.5264712,48.8710588 C43.6728242,47.6851765 44.759883,46.3807059 45.7876477,44.9576471 C46.8154124,43.5345882 47.7147065,42.0324706 48.4855301,40.4512941 C49.2563536,38.8701176 49.8690595,37.2395294 50.3236477,35.5595294 C50.7782359,33.8795294 51.0055301,32.1896471 51.0055301,30.4898824 C51.0055301,30.0155294 50.975883,29.5016471 50.9165889,28.9482353 C50.8572948,28.3948235 50.7189418,27.8809412 50.5015301,27.4065882 C50.2841183,26.9322353 49.9876477,26.5468235 49.6121183,26.2503529 C49.2365889,25.9538824 48.7325889,25.8056471 48.1001183,25.8056471 C46.8747065,25.8056471 45.8074124,26.3590588 44.8982359,27.4658824 C43.9890595,28.5727059 43.2083536,29.9957647 42.5561183,31.7350588 C41.903883,33.4743529 41.3702359,35.4112941 40.9551771,37.5458824 C40.5401183,39.6804706 40.2041183,41.7656471 39.9471771,43.8014118 C39.6902359,45.8371765 39.5123536,47.7148235 39.4135301,49.4343529 C39.3147065,51.1538824 39.2652948,52.4682353 39.2652948,53.3774118 C39.2652948,54.6818824 39.2356477,55.9665882 39.1763536,57.2315294 C39.1170595,58.4964706 38.9490595,59.7614118 38.6723536,61.0263529 C38.6328242,61.1054118 38.6130595,61.2437647 38.6130595,61.4414118 C38.6130595,61.8762353 38.7415301,62.2418824 38.9984712,62.5383529 C39.2554124,62.8348235 39.6012948,62.9830588 40.0361183,62.9830588 Z M42.6450595,44.9576471 C42.7636477,44.0089412 42.9711771,42.7637647 43.2676477,41.2221176 C43.5641183,39.6804706 43.9297654,38.1091765 44.3645889,36.5082353 C44.7994124,34.9072941 45.2935301,33.4051765 45.8469418,32.0018824 C46.4003536,30.5985882 47.0130595,29.6004706 47.6850595,29.0075294 C47.8431771,29.3632941 47.9420006,29.7388235 47.9815301,30.1341176 C48.0210595,30.5294118 48.0408242,30.9247059 48.0408242,31.32 C48.0408242,32.5058824 47.8827065,33.7115294 47.5664712,34.9369412 C47.2502359,36.1623529 46.8450595,37.368 46.3509418,38.5538824 C45.8568242,39.7397647 45.2836477,40.8762353 44.6314124,41.9632941 C43.9791771,43.0503529 43.3170595,44.0484706 42.6450595,44.9576471 Z"/><path id="ie" fill="#FFF" fill-rule="nonzero" d="M54.8979348,29.1030776 C55.2408242,29.1030776 55.5240806,28.9651765 55.7477042,28.6893741 C55.9713277,28.4135718 56.0831395,28.11168 56.0831395,27.7836988 C56.0831395,27.5600753 56.0197795,27.3476329 55.8930595,27.1463718 C55.7663395,26.9451106 55.5762595,26.84448 55.3228195,26.84448 C55.1290124,26.84448 54.9575677,26.8966588 54.8084854,27.0010165 C54.659403,27.1053741 54.5364101,27.2358212 54.4395065,27.3923576 C54.342603,27.5488941 54.2717889,27.7203388 54.2270642,27.9066918 C54.1823395,28.0930447 54.1599771,28.2682165 54.1599771,28.4322071 C54.1599771,28.6409224 54.2307912,28.8049129 54.3724195,28.9241788 C54.5140477,29.0434447 54.6892195,29.1030776 54.8979348,29.1030776 Z M54.9873842,35.6105224 C55.4793559,35.6105224 55.9415112,35.4539859 56.3738501,35.1409129 C56.5378406,35.0067388 56.7391018,34.8241129 56.9776336,34.5930353 C57.2161654,34.3619576 57.4435159,34.1085176 57.6596854,33.8327153 C57.8758548,33.5569129 58.0584806,33.2811106 58.207563,33.0053082 C58.3566454,32.7295059 58.4311865,32.4797929 58.4311865,32.2561694 C58.4311865,32.1219953 58.3864618,32.0101835 58.2970124,31.9207341 C58.207563,31.8312847 58.0957512,31.78656 57.9615771,31.78656 C57.8572195,31.78656 57.764043,31.8201035 57.6820477,31.8871906 C57.6000524,31.9542776 57.5292383,32.0250918 57.4696054,32.0996329 C57.3801559,32.2636235 57.2534359,32.4797929 57.0894454,32.7481412 C56.9254548,33.0164894 56.7428289,33.2773835 56.5415677,33.5308235 C56.3403065,33.7842635 56.1278642,34.00416 55.9042406,34.1905129 C55.6806171,34.3768659 55.4569936,34.4700424 55.2333701,34.4700424 C55.0991959,34.4700424 54.9911112,34.4364988 54.9091159,34.3694118 C54.8271206,34.3023247 54.7712148,34.2203294 54.7413983,34.1234259 C54.7115818,34.0265224 54.6929465,33.9184376 54.6854924,33.7991718 C54.6780383,33.6799059 54.6743112,33.5680941 54.6743112,33.4637365 C54.6743112,33.2252047 54.6966736,32.9754918 54.7413983,32.7145976 C54.786123,32.4537035 54.8345748,32.2002635 54.8867536,31.9542776 C54.9389324,31.7082918 54.9873842,31.4772141 55.0321089,31.2610447 C55.0768336,31.0448753 55.0991959,30.8547953 55.0991959,30.6908047 C55.0991959,30.5268141 55.0507442,30.3889129 54.9538406,30.2771012 C54.8569371,30.1652894 54.7264901,30.1093835 54.5624995,30.1093835 C54.3090595,30.1093835 54.1115254,30.2547388 53.9698971,30.5454494 C53.8282689,30.83616 53.7201842,31.1715953 53.645643,31.5517553 C53.5711018,31.9319153 53.5263771,32.3120753 53.5114689,32.6922353 C53.4965606,33.0723953 53.4891065,33.3519247 53.4891065,33.5308235 C53.4891065,33.7842635 53.5114689,34.0339765 53.5561936,34.2799624 C53.6009183,34.5259482 53.6791865,34.7495718 53.7909983,34.9508329 C53.9028101,35.1520941 54.0556195,35.3123576 54.2494265,35.4316235 C54.4432336,35.5508894 54.6892195,35.6105224 54.9873842,35.6105224 Z M60.0062701,35.1409129 C60.3789759,35.1409129 60.7479548,35.0626447 61.1132065,34.9061082 C61.4784583,34.7495718 61.8250748,34.5483106 62.1530559,34.3023247 C62.4810371,34.0563388 62.7754748,33.7730824 63.0363689,33.4525553 C63.297263,33.1320282 63.5097053,32.8152282 63.6736959,32.5021553 C63.7184206,32.4425224 63.740783,32.3605271 63.740783,32.2561694 C63.740783,32.1219953 63.6960583,32.0064565 63.6066089,31.9095529 C63.5171595,31.8126494 63.4053477,31.7641976 63.2711736,31.7641976 C63.1519077,31.7641976 63.0736395,31.7828329 63.0363689,31.8201035 C62.9990983,31.8573741 62.9431924,31.9207341 62.8686512,32.0101835 C62.7046606,32.2338071 62.5294889,32.4611576 62.3431359,32.6922353 C62.156783,32.9233129 61.9517948,33.1320282 61.7281712,33.3183812 C61.5045477,33.5047341 61.2622889,33.6575435 61.0013948,33.7768094 C60.7405006,33.8960753 60.4535171,33.9557082 60.1404442,33.9557082 C59.7975548,33.9557082 59.5105712,33.8588047 59.2794936,33.6649976 C59.0484159,33.4711906 58.8956065,33.2028424 58.8210653,32.8599529 C59.1490465,32.8450447 59.4733006,32.7593224 59.7938277,32.6027859 C60.1143548,32.4462494 60.3976112,32.2412612 60.6435971,31.9878212 C60.889583,31.7343812 61.0908442,31.4511247 61.2473806,31.1380518 C61.4039171,30.8249788 61.4821853,30.4969976 61.4821853,30.1541082 C61.4821853,29.7664941 61.3741006,29.4459671 61.1579312,29.1925271 C60.9417618,28.9390871 60.6398701,28.8123671 60.2522559,28.8123671 C59.8348253,28.8123671 59.4583924,28.9279059 59.1229571,29.1589835 C58.7875218,29.3900612 58.5042653,29.6807718 58.2731877,30.0311153 C58.0421101,30.3814588 57.8669383,30.7653459 57.7476724,31.1827765 C57.6284065,31.6002071 57.5687736,31.9952753 57.5687736,32.3679812 C57.5687736,32.7257788 57.6246795,33.0723953 57.7364912,33.4078306 C57.848303,33.7432659 58.0085665,34.0377035 58.2172818,34.2911435 C58.4259971,34.5445835 58.6794371,34.7495718 58.9776018,34.9061082 C59.2757665,35.0626447 59.6186559,35.1409129 60.0062701,35.1409129 Z M59.0446889,31.6971106 C58.9850559,31.6971106 58.8956065,31.6822024 58.7763406,31.6523859 C58.7912489,31.5033035 58.8322465,31.3244047 58.8993336,31.1156894 C58.9664206,30.9069741 59.052143,30.70944 59.1565006,30.5230871 C59.2608583,30.3367341 59.3913053,30.1801976 59.5478418,30.0534776 C59.7043783,29.9267576 59.8795501,29.8633976 60.0733571,29.8633976 C60.1777148,29.8633976 60.255983,29.9379388 60.3081618,30.0870212 C60.3603406,30.2361035 60.3864301,30.3479153 60.3864301,30.4224565 C60.3864301,30.5715388 60.3454324,30.7206212 60.2634371,30.8697035 C60.1814418,31.0187859 60.0733571,31.1566871 59.939183,31.2834071 C59.8050089,31.4101271 59.6596536,31.5107576 59.5031171,31.5852988 C59.3465806,31.65984 59.1937712,31.6971106 59.0446889,31.6971106 Z"/></g></g></g></g></svg>