<svg width="24" height="24" version="1.1" xmlns="http://www.w3.org/2000/svg">
 <path d="m11.999 0 0.81836 0.97655s1.8947 2.2696 3.7949 5.1719c1.1069 1.6906 2.2449 3.5655 3.0039 5.4277 0.54397 1.3347 0.89453 2.6621 0.89453 3.9121 0 4.688-3.8237 8.5117-8.5117 8.5117-4.688 0-8.5098-3.8237-8.5098-8.5117 0-2.9941 1.9982-6.4376 3.8984-9.3398 1.9003-2.9023 3.7949-5.1719 3.7949-5.1719zm0 3.4531c-0.56324 0.69818-1.4183 1.6992-2.834 3.8613-0.50262 0.76765-0.99359 1.5871-1.4473 2.4121 0.44331-0.1799 0.90206-0.27614 1.377-0.28125 0.8463-0.0085 1.7442 0.25933 2.6953 0.80469 0.76479 0.43851 1.3824 0.89783 2.8066 2.0801 0.65743 0.54572 0.78397 0.64645 1.0723 0.8711 0.86526 0.67424 1.4486 1.0082 1.959 1.1211 0.0902 0.01986 0.36659 0.03518 0.43945 0.02341 0.05529-0.0085 0.10574-0.02227 0.1543-0.03717-0.46726-1.9719-1.8927-4.7123-3.3867-6.9941-1.4156-2.1621-2.2727-3.1631-2.8359-3.8613z"/>
</svg>
