<svg width="24" height="24" version="1.1" xmlns="http://www.w3.org/2000/svg">
 <path d="m13.178 0.0019531a1.2692 1.2692 0 0 0-0.62695 0.19922c-2.9984 1.9312-5.0848 4.1913-6.0918 6.8125a1.2692 1.2692 0 0 0 0.73047 1.6406 1.2692 1.2692 0 0 0 1.6387-0.73047c0.761-1.9808 2.4052-3.8537 5.0977-5.5879a1.2692 1.2692 0 0 0 0.37891-1.7539 1.2692 1.2692 0 0 0-1.127-0.58008zm-11.9 6.0898a1.2692 1.2692 0 0 0-0.33008 0.041016 1.2692 1.2692 0 0 0-0.9043 1.5508c0.9101 3.4485 2.4159 6.1307 4.5977 7.8984a1.2692 1.2692 0 0 0 1.7852-0.1875 1.2692 1.2692 0 0 0-0.1875-1.7852c-1.6487-1.3358-2.923-3.4777-3.7402-6.5742a1.2692 1.2692 0 0 0-1.2207-0.94336zm13.893 0.0039062a1.2692 1.2692 0 0 0-1.334 1.2012 1.2692 1.2692 0 0 0 1.2012 1.334c2.119 0.1116 4.4075 1.0963 6.8887 3.1211a1.2692 1.2692 0 0 0 1.7871-0.18164 1.2692 1.2692 0 0 0-0.18164-1.7852c-2.7634-2.2549-5.5571-3.5417-8.3613-3.6895zm2.3379 7.0605a1.2692 1.2692 0 0 0-0.32812 0.042969 1.2692 1.2692 0 0 0-0.89648 1.5547c0.5487 2.0497 0.31906 4.532-0.83984 7.5176a1.2692 1.2692 0 0 0 0.72461 1.6426 1.2692 1.2692 0 0 0 1.6426-0.72461c1.2907-3.3249 1.6499-6.3793 0.92383-9.0918a1.2692 1.2692 0 0 0-1.2266-0.94141zm-6.0371 4.4727a1.2692 1.2692 0 0 0-0.625 0.20117c-1.7799 1.1552-4.2105 1.705-7.4082 1.5254a1.2692 1.2692 0 0 0-1.3398 1.1973 1.2692 1.2692 0 0 0 1.1973 1.3379c3.561 0.20008 6.5762-0.40098 8.9316-1.9297a1.2692 1.2692 0 0 0 0.37305-1.7559 1.2692 1.2692 0 0 0-1.1289-0.57617z" />
</svg>
