<svg width="24" height="24" version="1.1" xmlns="http://www.w3.org/2000/svg">
 <path d="m11.381 0c-0.88503 0-1.6091 0.72409-1.6091 1.6091v1.8533c-0.49345 0.11394-0.86645 0.56018-0.86645 1.086v1.1155c-1.0551 0.74842-2.028 1.4018-2.772 2.2135-0.78684 0.85853-1.2973 1.9178-1.2973 3.3449v9.7103c0 0.97661 0.3293 1.7888 0.98975 2.3131 0.66045 0.52427 1.5966 0.75428 2.7778 0.75428h6.7924c1.1812 0 2.1173-0.23 2.7778-0.75428 0.66045-0.52427 0.98975-1.3365 0.98975-2.3131v-9.7103c0-1.4177-0.49645-2.4751-1.2711-3.3362-0.74346-0.82638-1.7242-1.4922-2.7981-2.2561v-1.0816c0-0.52578-0.373-0.97202-0.86645-1.086v-1.8533c0-0.88503-0.72409-1.6091-1.6091-1.6091zm1.5076 1.0777a0.37134 0.37134 0 0 1 0.37134 0.37134v1.4762a0.37134 0.37134 0 0 1-0.37134 0.37134 0.37134 0.37134 0 0 1-0.37134-0.37134v-1.4762a0.37134 0.37134 0 0 1 0.37134-0.37134zm-2.4538 8.1573h6.1212a0.37133 0.37133 0 0 1 0.37134 0.37134 0.37133 0.37133 0 0 1-0.37134 0.37134h-6.1212a0.37133 0.37133 0 0 1-0.37134-0.37134 0.37133 0.37133 0 0 1 0.37134-0.37134zm-2.3494 1.2808c0.31938 0 0.57187 0.2003 0.74944 0.43854s0.31235 0.54043 0.42549 0.89933c0.22628 0.71781 0.35683 1.6663 0.35683 2.7144 0 1.0481-0.13055 1.9966-0.35683 2.7144-0.11314 0.3589-0.24792 0.66108-0.42549 0.89933s-0.43006 0.43854-0.74944 0.43854c-0.31938 0-0.57187-0.2003-0.74944-0.43854-0.17757-0.23825-0.31235-0.54043-0.42549-0.89933-0.22628-0.71781-0.35683-1.6663-0.35683-2.7144 0-1.0481 0.13055-1.9966 0.35683-2.7144 0.11314-0.3589 0.24792-0.66108 0.42549-0.89933 0.17757-0.23825 0.43007-0.43854 0.74944-0.43854zm-0.9559 10.532h9.7408a0.37133 0.37133 0 0 1 0.37134 0.37134 0.37133 0.37133 0 0 1-0.37134 0.37134h-9.7408a0.37133 0.37133 0 0 1-0.37134-0.37134 0.37133 0.37133 0 0 1 0.37134-0.37134z"/>
</svg>
