<svg width="24" height="24" version="1.1" xmlns="http://www.w3.org/2000/svg">
 <path d="m5.4081 1.3526c-1.6479 0-2.7456 1.0977-3.2949 3.2949l-1.0995 14.633c-0.21972 2.1972 2.1983 3.2969 3.2969 3.2969h15.379c1.0986 0 3.5166-1.0997 3.2969-3.2969l-1.0997-14.633c-0.5493-2.1972-1.647-3.2949-3.2949-3.2949h-13.184zm4.3946 2.8542h4.3945v2.1973h2.1973v8.7891h-8.7891v-8.7891h2.1973zm2.1973 3.8457c-1.5165 2.21e-4 -2.7459 1.2296-2.7461 2.7461 2.209e-4 1.5165 1.2296 2.7459 2.7461 2.7461 1.5165-2.21e-4 2.7459-1.2296 2.7461-2.7461-2.21e-4 -1.5165-1.2296-2.7459-2.7461-2.7461z"/>
</svg>
