<svg width="24" height="24" version="1.1" xmlns="http://www.w3.org/2000/svg">
    <path d="m11.276 23.995c-0.0466-0.0052-0.22091-0.02108-0.38734-0.03518-0.83761-0.07102-1.8157-0.2757-2.6638-0.55746-0.99337-0.33-2.0568-0.85274-2.9284-1.4395-1.0958-0.73769-2.133-1.7267-2.9179-2.7823-2.9783-4.0056-3.1762-9.413-0.49864-13.627 0.35679-0.56156 0.87047-1.2299 1.2841-1.6706 0.089202-0.09505 0.20504-0.22008 0.25743-0.27784 0.052382-0.05776 0.2424-0.23938 0.42225-0.40359 1.3391-1.2226 2.7611-2.0579 4.4435-2.6102 1.9327-0.63444 4.0413-0.76202 6.0392-0.36539 2.0143 0.3999 3.8194 1.2658 5.4239 2.6019 0.36962 0.30779 1.0918 1.0271 1.4083 1.4028 0.63425 0.75277 1.1109 1.473 1.5542 2.3483 0.67626 1.3353 1.0646 2.6464 1.2416 4.1921 0.06671 0.58251 0.0594 1.9845-0.01355 2.5846-0.36085 2.9717-1.7049 5.5833-3.8955 7.5692-1.4391 1.3046-3.2226 2.2537-5.1295 2.7296-0.99296 0.2478-1.6763 0.33244-2.7683 0.34288-0.43274 0.0042-0.82492 0.0033-0.87152-2e-3zm1.8036-2.5389c1.8044-0.21732 3.4498-0.90148 4.866-2.0232 0.40107-0.31769 1.1639-1.0808 1.4876-1.4881 1.3561-1.7066 2.0832-3.7948 2.0832-5.9832v-0.39593h-6.1032l-0.02699 0.07868c-0.01484 0.04328-0.08526 0.19307-0.15648 0.33287-0.45518 0.89359-1.2836 1.5814-2.2295 1.8512-0.66429 0.18945-1.3948 0.19028-2.0434 0.0023-1.0497-0.30419-1.9323-1.0917-2.3553-2.1017l-0.068451-0.16341h-6.0159l-0.017211 0.17137c-0.020569 0.20481 0.00257 0.77456 0.050785 1.2499 0.13047 1.2866 0.54474 2.5818 1.1908 3.7231 0.060303 0.10651 0.22142 0.36253 0.35805 0.56891 1.5419 2.3291 4.0632 3.8657 6.8494 4.1743 0.51174 0.05666 0.53503 0.05764 1.1983 0.04883 0.35506-0.0047 0.75103-0.02429 0.93204-0.04609zm-0.73157-8.9338c0.71565-0.1248 1.3101-0.56708 1.6271-1.2106 0.17846-0.36228 0.21736-0.53994 0.21736-0.99264 0-0.32911-0.0082-0.41569-0.05429-0.5759-0.1882-0.65366-0.62305-1.1666-1.2305-1.4516-1.095-0.51369-2.4068-0.04253-2.9383 1.0554-0.137 0.28296-0.18935 0.46815-0.21565 0.76289-0.037379 0.41886 0.027773 0.78742 0.20603 1.1655 0.32423 0.68766 0.94668 1.1441 1.7278 1.267 0.14627 0.02302 0.4702 0.01324 0.66045-0.01995zm-3.8558-3.3108c0.07934-0.27474 0.35375-0.80932 0.54858-1.0687 0.56521-0.75242 1.3949-1.2637 2.3042-1.42 0.33569-0.0577 0.88574-0.06298 1.2027-0.01153 0.79729 0.12931 1.4938 0.49626 2.0623 1.0865 0.38396 0.39864 0.68007 0.89011 0.8445 1.4017l0.06809 0.21183h5.6316l-0.01606-0.06657c-0.0089-0.03661-0.06992-0.22338-0.13573-0.41503-0.38829-1.1306-0.95495-2.1324-1.7336-3.0651-0.28272-0.33863-0.92631-0.9668-1.2869-1.2561-0.87974-0.70577-1.8343-1.2312-2.9045-1.5989-1.0022-0.34431-1.9727-0.50441-3.063-0.50533-0.95648-8.08e-4 -1.7867 0.11516-2.6669 0.37253-2.6501 0.77486-4.8616 2.6858-5.9872 5.1734-0.15714 0.3473-0.35036 0.85231-0.44433 1.1613l-0.060735 0.19972h5.5793z"/>,
</svg>
