<svg width="24" height="24" version="1.1" viewBox="0 0 24 24" xmlns="http://www.w3.org/2000/svg">
 <path d="m12 0c-6.6147 0-12 5.3853-12 12 0 6.6147 5.3853 12 12 12 6.6147 0 12-5.3853 12-12 0-6.6147-5.3853-12-12-12zm0 2.0844c4.4903 0 8.2701 2.9628 9.4966 7.046h-5.7649c-0.0098-0.17234-0.02576-0.33848-0.04973-0.50188-0.072563-0.49457-0.25918-1.0052-0.64055-1.3866-0.38137-0.38137-0.89202-0.56799-1.3866-0.64054-0.49457-0.072556-1.0143-0.066314-1.6549-0.066314s-1.1603-0.00625-1.6549 0.066317c-0.49457 0.07256-1.0052 0.25917-1.3866 0.64054-0.38137 0.38137-0.56799 0.89202-0.64054 1.3866-0.023972 0.1634-0.0399 0.32954-0.049736 0.50188h-5.7649c1.2265-4.0832 5.0063-7.046 9.4966-7.046zm0 6.0995c0.6406 0 1.1171 6e-3 1.4152 0.04973 0.29815 0.04374 0.37737 0.09101 0.46119 0.17483 0.08382 0.08382 0.12958 0.16153 0.17332 0.45968 0.04374 0.29815 0.04974 0.77462 0.04974 1.4152 0 0.6406-6e-3 1.1171-0.04974 1.4152-0.04374 0.29815-0.0895 0.37737-0.17332 0.46119-0.08382 0.08382-0.16304 0.12958-0.46119 0.17332-0.29815 0.04374-0.77462 0.04974-1.4152 0.04974s-1.1171-6e-3 -1.4152-0.04973c-0.29815-0.04375-0.37586-0.08951-0.45968-0.17333-0.08382-0.08382-0.13109-0.16304-0.17483-0.46119s-0.049736-0.77462-0.049736-1.4152c0-0.6406 6e-3 -1.1171 0.049736-1.4152 0.043741-0.29815 0.09101-0.37586 0.17483-0.45968 0.08382-0.08382 0.16153-0.13109 0.45968-0.17483 0.29815-0.04374 0.77462-0.04974 1.4152-0.04974zm-9.893 3.1289h6.1552c0.00914 0.21705 0.026112 0.42336 0.055765 0.62547 0.072557 0.49457 0.25917 1.0052 0.64054 1.3866 0.38137 0.38137 0.89202 0.56799 1.3866 0.64054 0.49457 0.07256 1.0143 0.06632 1.6549 0.06632s1.1603 0.0063 1.6549-0.06632c0.49457-0.07256 1.0052-0.25917 1.3866-0.64054 0.38137-0.38137 0.56799-0.89202 0.64054-1.3866 0.02965-0.20212 0.04663-0.40842 0.05577-0.62547h6.1552c0.01544 0.22704 0.02261 0.45621 0.02261 0.68726 0 5.4887-4.4269 9.9156-9.9156 9.9156-5.4887 0-9.9156-4.4269-9.9156-9.9156 0-0.23105 0.00717-0.46022 0.022608-0.68726z"/>
</svg>
