<svg width="24" height="24" version="1.1" xmlns="http://www.w3.org/2000/svg">
 <path d="m12 0-0.81641 0.97656s-1.8967 2.2695-3.7969 5.1719c-1.9003 2.9022-3.8984 6.3458-3.8984 9.3398 0 4.688 3.8237 8.5117 8.5117 8.5117 4.688 0 8.5117-3.8237 8.5117-8.5117 0-1.7407-0.6744-3.6326-1.6133-5.4824-0.86143 1.6794-1.3984 3.9941-1.3984 3.9941s-0.90371-3.9037-2.25-5.25c-1.3463-1.3463-5.25-2.25-5.25-2.25s3.9037-0.90371 5.25-2.25c0.012415-0.012415 0.02477-0.024265 0.037109-0.037109-1.3671-1.9148-2.4707-3.2363-2.4707-3.2363l-0.81641-0.97656zm5.5 1.25s-0.63182 2.7334-1.5742 3.6758c-0.9424 0.9424-3.6758 1.5742-3.6758 1.5742s2.7334 0.63181 3.6758 1.5742c0.9424 0.9424 1.5742 3.6758 1.5742 3.6758s0.63182-2.7334 1.5742-3.6758c0.9424-0.9424 3.6758-1.5742 3.6758-1.5742s-2.7334-0.63181-3.6758-1.5742c-0.9424-0.9424-1.5742-3.6758-1.5742-3.6758zm-10.551 12.965a0.85 0.85 0 0 1 0.11133 0 0.85 0.85 0 0 1 0.79102 0.9043c-0.17341 2.6301 2.3185 4.8868 4.584 4.3906a0.85 0.85 0 0 1 1.0137 0.64844 0.85 0.85 0 0 1-0.64844 1.0117c-3.5007 0.76668-6.8908-2.4297-6.6445-6.1641a0.85 0.85 0 0 1 0.79297-0.79102z"/>
</svg>
