<svg width="24" height="24" version="1.1" xmlns="http://www.w3.org/2000/svg">
 <path d="m12 0-0.81641 0.97656s-1.8967 2.2695-3.7969 5.1719c-1.9003 2.9022-3.8984 6.3458-3.8984 9.3398 0 4.688 3.8237 8.5117 8.5117 8.5117 4.688 0 8.5117-3.8237 8.5117-8.5117 0-2.994-1.9981-6.4377-3.8984-9.3398-1.9003-2.9023-3.7969-5.1719-3.7969-5.1719l-0.81641-0.97656zm-1.4766 8.9102-0.066407 4.4238-3.7969-2.2715 3.8633-2.1523zm4.5156 0.88281 2.5645 4.873-1.2188 0.64062-2.5645-4.873 1.2188-0.64063zm-5.8809 5.7715 1.3086 1.873-0.96875 2.0684-2.2754 0.19727-1.3086-1.873 0.96875-2.0703 2.2754-0.19531zm5.4492 1.3535 2.0723 2.5703-2.5723 2.0723-2.0723-2.5723 2.5723-2.0703z"/>
</svg>
