<svg width="5.2414mm" height="5.2414mm" version="1.1" viewBox="0 0 5.2414408 5.2414408" xmlns="http://www.w3.org/2000/svg">
  <circle cx="2.62" cy="2.62" r="2.4416" fill="#7f7f7f" stroke="#333" stroke-width=".34449"/>
  <g transform="translate(5.6967 -1.332)" fill="#333">
    <path d="m-2.8436 2.2077-1e-7 3.4912-0.46483 1e-7 1e-7 -3.4912zm-1.978 1.5132h3.4912v0.46483l-3.4912-1e-7z"/>
    <path d="m-0.92719 3.9533-0.38348 0.2214l-0.38348 0.2214v-0.4428-0.4428l0.38348 0.2214z"/>
    <path transform="scale(-1,1)" d="m5.2237 3.9533-0.38348 0.2214-0.38348 0.2214v-0.8856l0.38348 0.2214z"/>
    <path transform="matrix(0 -1 .99996 0 -5.6017 -.82508)" d="m-2.6304 2.5257-0.38348 0.2214-0.38348 0.2214v-0.4428-0.4428l0.38348 0.2214z"/>
    <path transform="rotate(90 -2.7221 4.4039)" d="m-1.0263 4.7577-0.38348 0.2214-0.38348 0.2214v-0.4428-0.4428l0.38348 0.2214z"/>
  </g>
</svg>
